<?xml version="1.0" encoding="UTF-8"?>
<!DOCTYPE svg PUBLIC "-//W3C//DTD SVG 1.1//EN" "http://www.w3.org/Graphics/SVG/1.1/DTD/svg11.dtd">
<!-- Creator: CorelDRAW (Versión de evaluación) -->
<svg xmlns="http://www.w3.org/2000/svg" xml:space="preserve" width="30px" height="30px" version="1.1" style="shape-rendering:geometricPrecision; text-rendering:geometricPrecision; image-rendering:optimizeQuality; fill-rule:evenodd; clip-rule:evenodd"
viewBox="0 0 30 30"
 xmlns:xlink="http://www.w3.org/1999/xlink"
 xmlns:xodm="http://www.corel.com/coreldraw/odm/2003">
 <defs>
  <style type="text/css">
   <![CDATA[
    .fil38 {fill:#F79533}
    .fil40 {fill:#F69933}
    .fil39 {fill:#F69733}
    .fil27 {fill:#EB268F}
    .fil44 {fill:#F69F33}
    .fil43 {fill:#F69E33}
    .fil42 {fill:#F69C33}
    .fil41 {fill:#F59A33}
    .fil50 {fill:#F6A532}
    .fil49 {fill:#F6A432}
    .fil48 {fill:#F5A332}
    .fil47 {fill:#F5A232}
    .fil46 {fill:#F5A133}
    .fil45 {fill:#F5A033}
    .fil26 {fill:#E9278B}
    .fil57 {fill:#F5A932}
    .fil56 {fill:#F5A932}
    .fil55 {fill:#F5A832}
    .fil54 {fill:#F5A732}
    .fil53 {fill:#F5A732}
    .fil52 {fill:#F5A632}
    .fil51 {fill:#F5A532}
    .fil83 {fill:#FBD926}
    .fil65 {fill:#F5AF31}
    .fil64 {fill:#F5AE31}
    .fil63 {fill:#F5AD31}
    .fil62 {fill:#F5AD32}
    .fil61 {fill:#F5AC32}
    .fil60 {fill:#F5AB32}
    .fil59 {fill:#F5AB32}
    .fil58 {fill:#F5AA32}
    .fil25 {fill:#E62888}
    .fil82 {fill:#F9D428}
    .fil71 {fill:#F5B531}
    .fil70 {fill:#F5B331}
    .fil69 {fill:#F5B231}
    .fil68 {fill:#F5B131}
    .fil67 {fill:#F5B031}
    .fil66 {fill:#F5AF31}
    .fil24 {fill:#E52987}
    .fil81 {fill:#F8D02A}
    .fil80 {fill:#F8CD2B}
    .fil74 {fill:#F5B930}
    .fil73 {fill:#F5B730}
    .fil72 {fill:#F5B531}
    .fil37 {fill:#ED8F35}
    .fil23 {fill:#E52986}
    .fil79 {fill:#F6C72D}
    .fil77 {fill:#F5BE2F}
    .fil76 {fill:#F5BC30}
    .fil75 {fill:#F5BA30}
    .fil22 {fill:#E32984}
    .fil78 {fill:#F5C12F}
    .fil21 {fill:#E22A83}
    .fil20 {fill:#E22A82}
    .fil19 {fill:#E12A81}
    .fil18 {fill:#E12A81}
    .fil17 {fill:#E12A80}
    .fil16 {fill:#E12A80}
    .fil15 {fill:#DF2B7F}
    .fil14 {fill:#DF2B7E}
    .fil13 {fill:#DE2B7E}
    .fil12 {fill:#DE2B7D}
    .fil11 {fill:#DE2B7C}
    .fil10 {fill:#DE2C7C}
    .fil9 {fill:#DD2C7B}
    .fil8 {fill:#DC2C79}
    .fil7 {fill:#DB2C78}
    .fil28 {fill:#DA507A}
    .fil6 {fill:#DA2D76}
    .fil5 {fill:#D82D74}
    .fil84 {fill:#E4CC2D}
    .fil36 {fill:#DD8A37}
    .fil4 {fill:#D62E71}
    .fil29 {fill:#D25D70}
    .fil3 {fill:#D2306B}
    .fil35 {fill:#D78838}
    .fil2 {fill:#D03168}
    .fil1 {fill:#CF3166}
    .fil30 {fill:#CE6468}
    .fil0 {fill:#CD3263}
    .fil34 {fill:#D18638}
    .fil31 {fill:#C86D5E}
    .fil33 {fill:#C88339}
    .fil32 {fill:#BC7A41}
    .fil85 {fill:#B6AA38}
    .fil251 {fill:#B357A0}
    .fil86 {fill:#9D993A}
    .fil250 {fill:#AF539E}
    .fil249 {fill:#AB509D}
    .fil248 {fill:#A94F9C}
    .fil247 {fill:#A84D9C}
    .fil87 {fill:#8E8E3B}
    .fil246 {fill:#A64C9B}
    .fil245 {fill:#A44A9A}
    .fil244 {fill:#A24899}
    .fil88 {fill:#82863B}
    .fil243 {fill:#9E4598}
    .fil200 {fill:#82D2E8}
    .fil242 {fill:#984096}
    .fil89 {fill:#757D3B}
    .fil241 {fill:#933D8F}
    .fil202 {fill:#749AAB}
    .fil199 {fill:#78CFE4}
    .fil240 {fill:#8F3C8A}
    .fil239 {fill:#8D3B86}
    .fil238 {fill:#8A3A83}
    .fil237 {fill:#883981}
    .fil198 {fill:#73CDE2}
    .fil236 {fill:#87397E}
    .fil235 {fill:#85387D}
    .fil234 {fill:#84377B}
    .fil233 {fill:#833779}
    .fil232 {fill:#823778}
    .fil231 {fill:#813777}
    .fil230 {fill:#803776}
    .fil229 {fill:#7F3675}
    .fil228 {fill:#7F3674}
    .fil227 {fill:#7E3573}
    .fil226 {fill:#7D3572}
    .fil225 {fill:#7C3571}
    .fil224 {fill:#7B3570}
    .fil197 {fill:#69CBE0}
    .fil203 {fill:#647F8D}
    .fil223 {fill:#79346E}
    .fil222 {fill:#78346D}
    .fil221 {fill:#76336B}
    .fil220 {fill:#743368}
    .fil219 {fill:#713266}
    .fil218 {fill:#6F3163}
    .fil90 {fill:#62703A}
    .fil217 {fill:#6B315F}
    .fil204 {fill:#5A6F7B}
    .fil216 {fill:#623158}
    .fil196 {fill:#53C6DA}
    .fil205 {fill:#546470}
    .fil195 {fill:#4EC0D6}
    .fil140 {fill:#6AB850}
    .fil139 {fill:#6AB456}
    .fil206 {fill:#4D5A65}
    .fil194 {fill:#4CBBD3}
    .fil138 {fill:#67B05B}
    .fil215 {fill:#55324F}
    .fil137 {fill:#66AD5D}
    .fil193 {fill:#4AB8D1}
    .fil136 {fill:#64AA5F}
    .fil192 {fill:#47B5D0}
    .fil135 {fill:#60A367}
    .fil214 {fill:#4D324B}
    .fil191 {fill:#46B2CF}
    .fil134 {fill:#5DA169}
    .fil207 {fill:#434C56}
    .fil190 {fill:#45B0CD}
    .fil133 {fill:#5AA268}
    .fil189 {fill:#45AECC}
    .fil132 {fill:#59A266}
    .fil213 {fill:#483248}
    .fil141 {fill:#59A653}
    .fil188 {fill:#43ACCB}
    .fil131 {fill:#57A365}
    .fil187 {fill:#42AACA}
    .fil130 {fill:#56A464}
    .fil129 {fill:#55A564}
    .fil186 {fill:#40A9C9}
    .fil212 {fill:#443145}
    .fil127 {fill:#54A662}
    .fil128 {fill:#53A562}
    .fil185 {fill:#40A7C8}
    .fil91 {fill:#475D38}
    .fil126 {fill:#52A661}
    .fil184 {fill:#3FA6C8}
    .fil124 {fill:#51A760}
    .fil125 {fill:#52A761}
    .fil183 {fill:#3EA5C7}
    .fil123 {fill:#50A760}
    .fil122 {fill:#50A75F}
    .fil182 {fill:#3DA4C6}
    .fil211 {fill:#403142}
    .fil120 {fill:#4FA85F}
    .fil121 {fill:#4FA85F}
    .fil181 {fill:#3DA3C5}
    .fil118 {fill:#4DA95E}
    .fil117 {fill:#4DA95E}
    .fil119 {fill:#4DA85F}
    .fil180 {fill:#3CA2C5}
    .fil179 {fill:#3DA1C4}
    .fil115 {fill:#4CA95E}
    .fil116 {fill:#4CA95E}
    .fil142 {fill:#4D9C55}
    .fil178 {fill:#3CA0C4}
    .fil113 {fill:#4AA95D}
    .fil112 {fill:#4AA95C}
    .fil114 {fill:#4AA95D}
    .fil177 {fill:#3BA0C4}
    .fil110 {fill:#48AB5C}
    .fil111 {fill:#49AA5C}
    .fil176 {fill:#3A9FC4}
    .fil175 {fill:#3B9EC3}
    .fil109 {fill:#47AA5B}
    .fil174 {fill:#3A9DC3}
    .fil208 {fill:#373B43}
    .fil107 {fill:#45AB5A}
    .fil108 {fill:#46AB5B}
    .fil173 {fill:#3A9CC2}
    .fil210 {fill:#3A303D}
    .fil106 {fill:#44AC59}
    .fil172 {fill:#399BC2}
    .fil105 {fill:#42AC59}
    .fil171 {fill:#389AC1}
    .fil170 {fill:#3999C0}
    .fil104 {fill:#40AD58}
    .fil143 {fill:#459556}
    .fil103 {fill:#3DAE57}
    .fil169 {fill:#3798BF}
    .fil102 {fill:#3BAF57}
    .fil168 {fill:#3697BF}
    .fil167 {fill:#3695BE}
    .fil101 {fill:#36AF56}
    .fil166 {fill:#3594BD}
    .fil100 {fill:#31B155}
    .fil144 {fill:#3F9057}
    .fil165 {fill:#3392BC}
    .fil98 {fill:#3A984D}
    .fil97 {fill:#3D8B49}
    .fil96 {fill:#3D8346}
    .fil95 {fill:#3E7E45}
    .fil94 {fill:#3D7743}
    .fil93 {fill:#3D6F40}
    .fil92 {fill:#3C613B}
    .fil164 {fill:#3190BB}
    .fil145 {fill:#3A8C57}
    .fil163 {fill:#328EB9}
    .fil209 {fill:#312E36}
    .fil162 {fill:#328CB8}
    .fil146 {fill:#358958}
    .fil161 {fill:#308AB6}
    .fil160 {fill:#3087B5}
    .fil147 {fill:#2F8458}
    .fil159 {fill:#2E84B3}
    .fil158 {fill:#2881B1}
    .fil148 {fill:#267E58}
    .fil157 {fill:#257B9F}
    .fil156 {fill:#1D7890}
    .fil149 {fill:#1A7559}
    .fil155 {fill:#1A7687}
    .fil154 {fill:#177481}
    .fil153 {fill:#15737C}
    .fil152 {fill:#157175}
    .fil151 {fill:#106E6A}
    .fil150 {fill:#086958}
    .fil99 {fill:#1DBC08}
    .fil201 {fill:#87EAFD}
    .fil253 {fill:#C90857}
    .fil252 {fill:#EA46E3}
   ]]>
  </style>
    <clipPath id="id0">
     <path d="M17.42 5.77l-1.11 -0.63c-1.3,-0.75 -1,-0.73 -1.7,-0.32 -0.19,0.1 -0.39,0.21 -0.57,0.32 -0.18,0.1 -0.37,0.2 -0.54,0.31l-0.57 0.32c-0.08,-0.08 -0.11,-0.18 -0.14,-0.28 -0.04,-0.09 -0.07,-0.19 -0.1,-0.31 -0.06,-0.24 -0.08,-0.49 -0.06,-0.75 0.03,-0.5 0.2,-0.9 0.4,-1.22 1.27,-2.03 4.52,-1.26 4.69,1.19 0.03,0.36 -0.06,0.98 -0.23,1.29 -0.01,0 -0.01,0.01 -0.02,0.02l-0.05 0.06zm-2.51 -0.91c-0.24,0.49 -0.94,1.57 -1.06,1.89 -0.24,-0.07 -0.75,-0.59 -0.83,-0.82 0.3,-0.19 0.62,-0.36 0.94,-0.54l0.95 -0.53zm1.63 1.89c-0.01,-0.01 -0.02,-0.01 -0.02,-0.02l-0.8 -1.38c-0.1,-0.17 -0.21,-0.33 -0.28,-0.49l1.9 1.07c-0.2,0.34 -0.47,0.61 -0.8,0.82zm-1.78 -1.25c-0.02,0.11 -0.45,1.38 -0.51,1.47l-0.27 -0.11 0.73 -1.3c0.01,0 0.02,-0.03 0.03,-0.03l0.02 -0.03zm1.6 1.35l-0.25 0.12c-0.06,-0.08 -0.49,-1.32 -0.52,-1.47 0.11,0.16 0.75,1.24 0.77,1.35zm-1.27 -1.69l0 1.98c-0.21,0.01 -0.51,-0.02 -0.66,-0.12l0.49 -1.42c0.04,-0.13 0.09,-0.33 0.16,-0.43 0,0 0.01,-0.01 0.01,-0.01zm0.84 1.89l-0.67 0.11 0 -2c0.14,0.28 0.25,0.65 0.35,0.95l0.32 0.94zm-2.04 -0.06c0.08,0.04 0.23,0.11 0.3,0.16 -0.08,0.31 -0.06,0.19 -0.32,0.33 -0.16,0.09 -0.28,0.19 -0.4,0.26 0.1,-0.24 0.28,-0.49 0.42,-0.75zm2.99 0.75l-0.19 -0.13c-0.44,-0.31 -0.46,-0.11 -0.53,-0.46l0.3 -0.15 0.42 0.74zm-4 -1.72c0.09,0.2 0.22,0.34 0.36,0.48 0.22,0.22 0.43,0.35 0.49,0.42 -0.09,0.22 -1.59,2.76 -1.62,2.79l-3.37 0c-0.01,-0.51 -0.17,-0.78 -0.32,-1.16 0.09,-0.08 0.17,-0.1 0.26,-0.16l4.2 -2.37zm9.05 2.53c-0.14,0.4 -0.31,0.62 -0.32,1.16l-3.37 0 -1.4 -2.41c-0.06,-0.11 -0.17,-0.27 -0.21,-0.38 0.11,-0.13 0.62,-0.42 0.85,-0.9l3.89 2.2c0.12,0.07 0.47,0.24 0.56,0.33zm-5.07 1.17l-1.61 -0.01 0.01 -2.38c0.17,-0.01 0.69,0.07 0.8,0.16 0.07,0.06 0.47,1.27 0.53,1.45 0.08,0.25 0.2,0.53 0.27,0.78zm0.86 -0.01l-0.67 0.01 -0.38 -1.07c-0.1,-0.32 -0.28,-0.73 -0.36,-1.05 0.32,0.07 0.76,0.55 0.95,0.8 0.25,0.34 0.41,0.78 0.46,1.31zm6.69 2.72l0 -2.65c-0.25,-0.24 -1.97,-1.1 -2.22,-1.3 0.09,-0.23 0.62,-0.68 0.85,-0.82 1.25,-0.71 2.8,-0.26 3.47,0.9 1.04,1.78 -0.22,3.76 -2.1,3.87zm-16.25 -3.93c-0.35,0.17 -0.74,0.41 -1.1,0.62 -0.28,0.16 -0.92,0.47 -1.11,0.66l-0.01 2.66c-1.99,-0.15 -3.06,-2.13 -2.11,-3.86 0.62,-1.14 2.2,-1.64 3.46,-0.93 0.32,0.18 0.71,0.54 0.87,0.85zm5.88 -0.9l-0.74 2.11 -0.67 0c0.05,-0.54 0.22,-0.96 0.46,-1.31 0.13,-0.19 0.71,-0.76 0.95,-0.8zm1.06 -0.27l-0.01 2.38 -1.6 0.01c0.15,-0.5 0.35,-1 0.52,-1.49 0.04,-0.11 0.22,-0.67 0.26,-0.72 0.11,-0.11 0.64,-0.19 0.83,-0.18zm-6.84 1.32c0.16,0.24 0.28,0.71 0.32,1.07l-2.19 -0.01c0.26,-0.19 0.65,-0.37 0.93,-0.54 0.18,-0.11 0.79,-0.47 0.94,-0.52zm15.71 1.06l-2.19 0.01c0.02,-0.35 0.17,-0.89 0.33,-1.08 0.1,0.1 1.73,0.95 1.86,1.07zm-15.4 0.5l-1.59 -0.31 1.59 -0.01 0 0.32zm0.16 0.05l0.03 -0.37 1.06 0c-0.16,0.09 -0.35,0.13 -0.5,0.22 -0.31,0.19 -0.19,0.19 -0.59,0.15zm3.14 -0.15c-0.1,-0.05 -0.4,-0.16 -0.48,-0.22l0.61 0c-0.03,0.1 -0.04,0.14 -0.13,0.22zm1.02 0.83c-0.06,-0.05 -0.07,-0.05 -0.12,-0.19 -0.08,-0.28 -0.16,-0.57 -0.14,-0.86l0.61 0 -0.35 1.05zm4.56 0.01l-0.35 -1.06 0.63 0c0,0.17 -0.03,0.4 -0.07,0.57 -0.04,0.15 -0.08,0.38 -0.21,0.49zm1.03 -0.84l-0.14 -0.22 0.62 0c-0.08,0.06 -0.37,0.16 -0.48,0.22zm3.14 0.15c-0.4,0.03 -0.24,0.06 -0.56,-0.13 -0.17,-0.1 -0.36,-0.14 -0.54,-0.24l1.08 0 0.02 0.37zm1.71 -0.34l-1.54 0.29 -0.01 -0.32c0.22,0 1.42,-0.04 1.55,0.03zm-11.54 0.32c-0.05,0.2 -0.21,0.39 -0.29,0.56l-2.22 -0.44c0,0 0.01,0 0.01,-0.01 0.01,-0.02 0.02,-0.02 0.02,-0.02l0.2 -0.12c0.3,-0.14 0.62,-0.23 0.97,-0.24 0.64,-0.02 0.83,0.11 1.31,0.27zm9.24 0.13l-2.18 0.43c-0.08,-0.18 -0.23,-0.35 -0.29,-0.56 0.43,-0.11 0.54,-0.3 1.32,-0.27 0.27,0.01 1.09,0.19 1.15,0.37 0,0 0,0.02 0,0.03zm-12.73 0.65c-0.14,-0.06 -0.3,-0.17 -0.42,-0.24 -0.15,-0.09 -0.29,-0.17 -0.44,-0.25 -0.17,-0.11 -0.74,-0.39 -0.85,-0.52l1.92 0.37c0.01,0.16 -0.11,0.51 -0.21,0.64zm15.46 -1.02c-0.09,0.12 -0.65,0.41 -0.83,0.51l-0.87 0.51c-0.12,-0.14 -0.2,-0.41 -0.23,-0.65l1.93 -0.37zm-14.96 0.43c-0.04,0.13 -0.03,0.1 -0.14,0.14 0.03,-0.14 0.01,-0.16 0.14,-0.14zm3.73 0.16c-0.02,-0.02 -0.44,-0.36 -0.48,-0.4 0.05,-0.09 0.11,-0.22 0.17,-0.3l0.23 0 0.08 0.7zm5.39 -0.7l0.21 0 0.17 0.29c-0.07,0.08 -0.15,0.13 -0.24,0.2 -0.1,0.09 -0.14,0.16 -0.25,0.21l0.11 -0.7zm-1.6 1.38l-0.15 0.07c-0.17,-0.22 -0.3,-0.49 -0.43,-0.74 0.11,0.08 0.46,0.55 0.58,0.67zm-8.67 0.6c-0.11,0.05 -0.14,0.1 -0.24,0.15l-0.81 -1.39c0.1,0.06 1.01,1.11 1.05,1.24zm6.95 -1.2c0,0.01 -0.19,0.31 -0.2,0.34 -0.09,0.13 -0.14,0.24 -0.21,0.32l-0.16 -0.06 0.57 -0.6zm8.34 1.35c-0.1,-0.05 -0.14,-0.11 -0.24,-0.15l1.03 -1.22 -0.59 1.03c-0.06,0.1 -0.11,0.23 -0.2,0.34zm-9.5 -2.13l1.39 0c-0.11,0.09 -1.59,0.99 -1.76,1.05 0.05,-0.17 0.12,-0.36 0.18,-0.53 0.05,-0.14 0.14,-0.42 0.19,-0.52zm3.85 1.05c-0.2,-0.07 -0.68,-0.39 -0.89,-0.51 -0.26,-0.16 -0.64,-0.35 -0.88,-0.54l1.39 0c0.06,0.08 0.32,0.88 0.38,1.05zm-4.63 0.07c-0.17,0 -0.88,-0.14 -0.97,-0.19 0.09,-0.16 0.17,-0.3 0.24,-0.46 0.23,0.08 0.63,0.46 0.73,0.65zm5.76 -0.66c0.07,0.17 0.2,0.34 0.24,0.5l-0.96 0.17c0.1,-0.21 0.48,-0.56 0.72,-0.67zm-7.03 0.62c-0.07,0.15 -0.73,1.31 -0.81,1.38l-1.54 -0.9c-0.2,-0.1 -0.37,-0.23 -0.56,-0.3 0.05,-0.19 0.33,-0.46 0.45,-0.57 0.18,-0.15 0.35,-0.05 0.8,0.04l1.66 0.35zm10.48 0.13c-0.09,0.11 -1.85,1.11 -2.12,1.26 -0.17,-0.37 -0.63,-1.04 -0.79,-1.39 0.14,-0.09 1.65,-0.34 2.06,-0.43 0.21,-0.04 0.25,-0.08 0.38,0.02 0.19,0.15 0.33,0.34 0.47,0.54zm-7.16 -0.91c-0.08,0.16 -0.5,0.58 -0.64,0.76 -0.26,0.3 -0.11,0.36 -0.75,0.21l-0.16 -0.07c0.36,-0.18 1.35,-0.82 1.55,-0.9zm1.83 1.06l-0.91 -1.06c0.15,0.03 1.28,0.77 1.56,0.9l-0.65 0.16zm-8.76 0.46c-0.09,-0.12 -0.21,-0.23 -0.31,-0.36l-0.66 -0.77c-0.12,-0.14 -0.24,-0.24 -0.32,-0.4l1.73 1c-0.11,0.2 -0.27,0.41 -0.44,0.53zm16.09 -1.53l-1.3 1.53c-0.11,-0.07 -0.36,-0.37 -0.43,-0.52l1.73 -1.01zm-8.78 -0.02l0 1.33 -0.7 -0.11c0.08,-0.2 0.23,-0.43 0.34,-0.62 0.11,-0.2 0.23,-0.42 0.36,-0.6zm0.87 1.22l-0.71 0.13 0.01 -1.35c0.12,0.13 0.26,0.4 0.35,0.58 0.13,0.23 0.22,0.4 0.35,0.64zm-2.29 0.02c-0.06,0.1 -0.17,0.25 -0.28,0.31 -0.05,-0.04 -0.3,-0.34 -0.32,-0.43l0.6 0.12zm3.62 -0.12c-0.03,0.09 -0.28,0.39 -0.33,0.44l-0.28 -0.32 0.61 -0.12zm-3.01 0.26l0.35 0.05c0,0.01 0.01,0.02 0.02,0.02 0.01,0 0.02,0.01 0.03,0.01l-0.48 0.1 0.08 -0.18zm1.88 0.18l-0.49 -0.09c0.03,-0.02 0.03,-0.03 0.08,-0.05 0.01,0 0.08,-0.01 0.09,-0.02 0.06,-0.01 0.14,-0.02 0.19,-0.03 0.07,0.05 0.09,0.08 0.13,0.19zm-2.28 -0.27l0.22 0.03c-0.1,0.32 -0.18,0.32 -0.55,0.36 0.1,-0.11 0.24,-0.31 0.33,-0.39zm2.91 0.39c-0.38,-0.05 -0.43,-0.03 -0.54,-0.36l0.22 -0.03c0.1,0.09 0.27,0.28 0.32,0.39zm0.85 0.18l-0.37 -0.08c0.04,-0.2 0.1,-0.38 0.19,-0.49 0.04,0.07 0.17,0.48 0.18,0.57zm-4.76 -0.58c0.13,0.1 0.18,0.35 0.2,0.52l-0.37 0.05 0.17 -0.57zm-5.63 0.7c-0.39,0.13 -0.61,0.27 -1.14,0.29l0.01 -2.17c0.03,-0.09 0,-0.03 0.05,-0.09 0.06,0.2 0.41,0.78 0.53,0.97l0.55 1zm16.99 -1.98l0 2.28c-0.71,-0.06 -0.68,-0.16 -1.14,-0.3 0.06,-0.19 0.8,-1.4 0.97,-1.71 0.06,-0.11 0.08,-0.2 0.17,-0.27zm-9.14 1.57l-0.01 0.69c-0.37,0.01 -0.88,-0.15 -1.13,-0.3 0.11,-0.27 0.18,-0.22 0.49,-0.28 0.2,-0.03 0.46,-0.11 0.65,-0.11zm1.29 0.38c-0.21,0.15 -0.79,0.34 -1.13,0.31l0 -0.69c0.19,0.01 0.44,0.07 0.64,0.11 0.33,0.07 0.36,0 0.49,0.27zm-8.62 -0.13c0.19,0.15 0.11,0.54 0.12,0.87l-0.39 -0.66c0.04,-0.04 0.01,-0.01 0.06,-0.05l0.21 -0.16zm3.8 -0.98l1.04 0.19c-0.06,0.08 -1.57,0.99 -1.74,1.05 0.12,-0.3 0.58,-0.94 0.7,-1.24zm2.02 1.43l-0.26 0.01 -0.02 -0.28c0.05,-0.28 0.38,-0.01 0.4,0 -0.04,0.12 -0.08,0.15 -0.12,0.27zm3.44 0.01l-0.26 -0.01 -0.12 -0.23c0.05,-0.06 0.18,-0.2 0.31,-0.15 0.14,0.05 0.07,0.21 0.07,0.39zm2.45 -0.2c-0.13,-0.04 -0.34,-0.19 -0.45,-0.25 -0.3,-0.19 -1.14,-0.64 -1.29,-0.78l1.04 -0.22 0.7 1.25zm3.37 -0.05l-0.39 0.67c0.01,-0.17 0.01,-0.33 0.01,-0.5 -0.01,-0.25 -0.01,-0.25 0.11,-0.39l0.27 0.22zm-10.12 -0.82l-0.23 0.69c-0.24,0.06 -1.24,0.29 -1.39,0.22l0.81 -0.45c0.23,-0.13 0.58,-0.37 0.81,-0.46zm6.48 0.95c-0.33,-0.05 -0.69,-0.13 -1.03,-0.2 -0.27,-0.06 -0.31,0.01 -0.39,-0.25 -0.06,-0.17 -0.14,-0.34 -0.17,-0.5 0.22,0.07 0.59,0.34 0.81,0.46l0.71 0.42c0.07,0.05 0.06,0.04 0.07,0.07zm-6.16 -0.2c-0.08,0.14 -0.17,0.2 -0.26,0.31l-0.23 0c0.04,-0.14 0.02,-0.2 0.12,-0.24 0.04,-0.02 0.3,-0.06 0.37,-0.07zm-0.63 0.13l-0.04 0.18 -0.66 -0.05 0.7 -0.13zm1.77 0.17l-0.4 0.01 0.07 -0.15 0.33 0.14zm2.38 0.01l-0.4 0 0.35 -0.16 0.05 0.16zm1.23 0l-0.24 0c-0.07,-0.08 -0.2,-0.25 -0.26,-0.3l0.42 0.07 0.08 0.23zm0.97 0l-0.8 0 -0.04 -0.18c0.16,0.02 0.3,0.05 0.45,0.08 0.1,0.02 0.32,0.04 0.39,0.1zm-9.08 1.49l-0.52 -0.59c-0.17,-0.22 -0.33,-0.39 -0.52,-0.61 -0.09,-0.1 -0.14,-0.16 -0.25,-0.29 -0.06,-0.06 -0.24,-0.25 -0.27,-0.31 -0.12,-0.21 0.16,-0.66 0.23,-0.85l2.14 1.24 -0.81 1.41zm12.3 -2.66c0.06,0.18 0.33,0.64 0.24,0.84l-1.56 1.82 -0.81 -1.41 1.58 -0.93c0.16,-0.09 0.39,-0.24 0.55,-0.32zm-9.91 1.96l-1.02 -0.61 1.25 -0.01c-0.05,0.16 -0.15,0.51 -0.23,0.62zm7.2 -0.57c-0.21,0.07 -0.86,0.52 -1,0.57l-0.24 -0.62c0.25,0 1.03,-0.03 1.21,0.04 0.01,0 0.02,0 0.03,0.01zm-5.83 -0.06c-0.04,0.15 -0.06,0.19 -0.14,0.26 0,-0.02 0.01,-0.17 0.01,-0.17 0.04,-0.13 0,-0.06 0.13,-0.09zm-0.82 0c-0.04,0.11 -0.02,0.05 -0.08,0.14 -0.09,0.12 -0.02,0.06 -0.14,0.13 0.04,-0.2 0.03,-0.25 0.22,-0.27zm5.33 0.28c-0.11,-0.05 -0.17,-0.14 -0.23,-0.28 0.23,0.02 0.14,0.13 0.23,0.28zm-4.3 -0.27l0.51 0c-0.28,0.18 -0.27,0.13 -0.63,0.38 -0.09,0.07 -0.02,0.03 -0.11,0.07 0.06,-0.18 0.16,-0.26 0.23,-0.45zm3.26 0.45c-0.11,-0.05 -0.24,-0.18 -0.54,-0.33 -0.03,-0.01 -0.06,-0.02 -0.09,-0.04l-0.11 -0.08 0.51 0c0.07,0.17 0.16,0.27 0.23,0.45zm-3.77 -0.45c-0.02,0.33 -0.1,0.85 -0.29,1.06 -0.11,-0.03 -0.52,-0.28 -0.58,-0.34l0.35 -0.43c0.24,-0.26 0.08,-0.28 0.52,-0.29zm4.92 0.72l-0.58 0.35c-0.18,-0.22 -0.27,-0.72 -0.29,-1.07 0.41,0.01 0.31,0.07 0.52,0.29 0.08,0.09 0.1,0.12 0.17,0.21 0.08,0.1 0.11,0.1 0.18,0.22zm-6.55 0.6l-0.35 -0.58c-0.11,-0.22 -0.24,-0.43 -0.36,-0.64l0.58 0.32c0.17,0.1 0.43,0.28 0.59,0.32 -0.08,0.2 -0.34,0.4 -0.46,0.58zm8.02 -1.22l-0.71 1.22c-0.09,-0.1 -0.42,-0.47 -0.46,-0.57 0.15,-0.05 0.41,-0.23 0.57,-0.32 0.1,-0.06 0.18,-0.1 0.29,-0.16 0.2,-0.11 0.15,-0.14 0.31,-0.17zm-4.44 -0.09l-0.01 2.34c-0.15,-0.04 -1.95,-1.09 -2.04,-1.19 0.27,-0.58 1.26,-1.16 2.05,-1.15zm2.21 1.15c-0.11,0.1 -0.35,0.22 -0.5,0.31 -0.24,0.14 -1.45,0.87 -1.56,0.88l0.01 -2.34c1.02,0 1.68,0.62 2.05,1.15zm-6.78 -0.87l-0.02 1.97c-0.08,-0.05 -0.47,-0.52 -0.59,-0.65 -0.18,-0.19 -0.07,-0.22 0.11,-0.52l0.37 -0.65c0.02,-0.04 0.01,-0.03 0.04,-0.07l0.09 -0.08zm10 1.18c-0.07,0.12 -0.23,0.27 -0.33,0.39 -0.11,0.13 -0.23,0.32 -0.37,0.4l0.01 -1.98c0.09,0.07 0.62,1.02 0.69,1.19zm-9.15 0.03c-0.06,0.06 -0.03,0.04 -0.13,0.08l-0.24 -0.74c0.12,0.14 0.33,0.5 0.37,0.66zm0.52 -0.34l-0.16 0.51c-0.08,-0.07 -0.09,-0.07 -0.11,-0.2 0.05,-0.08 0.22,-0.27 0.27,-0.31zm6.83 0.31c-0.02,0.14 -0.02,0.13 -0.12,0.2l-0.17 -0.51 0.29 0.31zm0.6 -0.64l-0.24 0.75c-0.09,-0.04 -0.06,-0.03 -0.12,-0.08 0.02,-0.11 0.24,-0.49 0.32,-0.62l0.04 -0.05zm2.97 -1.11c0.01,0.67 -0.06,0.98 -0.35,1.44 -0.12,0.2 -0.2,0.37 -0.35,0.53 -0.07,0.07 -0.4,0.35 -0.5,0.39 -0.09,-0.16 -0.23,-0.42 -0.34,-0.58 0.32,-0.46 1.08,-1.23 1.41,-1.66 0.09,-0.12 -0.01,-0.06 0.13,-0.12zm-12.7 1.76c-0.1,0.19 -0.24,0.41 -0.34,0.6 -0.43,-0.21 -0.65,-0.57 -0.86,-0.92 -0.3,-0.5 -0.34,-0.74 -0.35,-1.45 0.18,0.1 1.45,1.74 1.55,1.77zm1.09 0.8l-0.01 -1.82c0.14,0.22 0.27,0.76 0.36,0.99 0.1,0.27 0.14,0.28 -0.03,0.48 -0.11,0.12 -0.24,0.24 -0.32,0.35zm8.97 -1.81l0.01 1.8c-0.1,-0.12 -0.22,-0.22 -0.32,-0.34 -0.21,-0.24 -0.12,-0.25 0.12,-0.94 0.03,-0.07 0.06,-0.17 0.08,-0.25l0.11 -0.27zm-7.45 0.43c0.08,0.03 0.47,0.27 0.55,0.33 -0.11,0.29 -0.56,0.72 -0.82,0.85 -0.12,-0.32 -0.1,-0.2 0.03,-0.58 0.06,-0.14 0.15,-0.49 0.24,-0.6zm-0.66 1.37c-0.08,-0.07 0,0.05 -0.08,-0.09l-0.12 -0.4c0.05,-0.06 0.07,-0.08 0.1,-0.15 0.05,0.04 0.03,0.01 0.07,0.05l0.11 0.23c0.01,0.05 -0.07,0.28 -0.08,0.36zm6.87 -0.19c-0.25,-0.11 -0.73,-0.58 -0.83,-0.85 0.09,-0.07 0.43,-0.27 0.55,-0.33 0.11,0.11 0.17,0.43 0.23,0.58 0.13,0.36 0.17,0.29 0.05,0.6zm0.47 -0.45c0.04,0.07 0.06,0.09 0.11,0.15l-0.16 0.49c-0.03,-0.04 -0.12,-0.27 -0.12,-0.33 -0.01,-0.09 0.02,-0.12 0.06,-0.18l0.11 -0.13zm-9.81 0.71l-0.14 -0.24 0.22 0.12c-0.03,0.1 0.02,0.05 -0.08,0.12zm3.18 -0.24c-0.03,0.1 -0.01,0.07 -0.06,0.15l-0.1 0.11 -0.06 -0.07c0.05,-0.09 0.1,-0.14 0.22,-0.19zm6.05 0.19l-0.07 0.05c-0.08,-0.07 -0.12,-0.13 -0.16,-0.25 0.05,0.02 0.08,0.04 0.12,0.06 0.09,0.07 0.1,0.14 0.11,0.14zm3.09 -0.19l-0.14 0.25c-0.07,-0.08 -0.03,-0.04 -0.06,-0.1 0.06,-0.09 0.1,-0.09 0.2,-0.15zm-0.77 -0.46c0.02,0.02 0.01,0.01 0.04,0.05 0.02,0.03 0.03,0.05 0.04,0.07 0.09,0.13 0.2,0.29 0.23,0.43 -0.36,0.11 -0.53,0.23 -1,0.27l0.69 -0.82zm-10.22 0.83c-0.32,-0.04 -0.75,-0.15 -0.99,-0.29 0.02,-0.14 0.21,-0.38 0.27,-0.54 0.12,0.06 0.29,0.29 0.37,0.38 0.09,0.11 0.31,0.31 0.35,0.45zm0.81 -0.52l0.14 0.4 -0.57 0.13c0.05,-0.14 0.33,-0.42 0.43,-0.53zm8.35 0.5c-0.2,0.01 -0.4,-0.04 -0.58,-0.1l0.15 -0.4c0.06,0.07 0.14,0.16 0.22,0.24 0.06,0.08 0.17,0.18 0.21,0.26zm3.44 -2.78c0.27,0.08 0.53,0.33 1.23,0.32l0 5.14c-0.64,0 -0.84,0.19 -1.2,0.3 -0.08,-0.1 -1.65,-2.85 -1.66,-2.88 -0.01,-0.14 0.7,-1.2 0.81,-1.42l0.61 -1.1c0.07,-0.11 0.13,-0.26 0.21,-0.36zm-15.7 5.75c-0.06,-0.01 -0.31,-0.13 -0.55,-0.2 -0.2,-0.06 -0.43,-0.09 -0.65,-0.1l0 -5.13c0.77,-0.02 0.91,-0.22 1.23,-0.32l0.81 1.43c0.11,0.24 0.83,1.31 0.82,1.45 0,0.04 -1.57,2.78 -1.66,2.87zm4.7 -2.86l-0.14 0.22c-0.2,-0.06 -0.26,-0.1 -0.24,-0.34l0.24 -0.11c0.1,0.08 0.09,0.12 0.14,0.23zm2.97 -0.04c-0.08,0.08 -0.41,0.26 -0.51,0.32 -0.22,0.12 -1.46,0.86 -1.58,0.89 -0.18,-0.61 -0.41,-1.01 -0.17,-1.86 0.06,-0.22 0.15,-0.36 0.21,-0.54l1.92 1.11c0.02,0.01 0.05,0.02 0.07,0.04 0.05,0.03 0.03,0.02 0.06,0.04zm2.45 -1.2c0.11,0.37 0.28,0.53 0.3,1.17 0.02,0.6 -0.14,0.78 -0.26,1.24 -0.1,-0.02 -2.02,-1.13 -2.1,-1.21l2.06 -1.2zm1.05 1.02l0.24 0.11 0.01 0.23 -0.24 0.11c-0.17,-0.16 -0.18,-0.29 -0.01,-0.45zm-8.61 0.22l-0.52 0.21c-0.14,-0.16 -0.21,-0.23 -0.03,-0.43 0.05,0.01 0.51,0.19 0.55,0.22zm11.17 -0.23c0.16,0.2 0.13,0.26 -0.04,0.44l-0.52 -0.21 0.56 -0.23zm-9.81 0.77c-0.09,-0.07 -0.13,-0.13 -0.2,-0.21 -0.1,-0.12 -0.12,-0.08 -0.17,-0.23l0.5 0.1 -0.13 0.34zm8.26 -0.45c-0.02,0.1 -0.28,0.38 -0.38,0.46l-0.11 -0.35 0.49 -0.11zm-1.63 -0.54c0.1,0.09 0.27,0.42 0.26,0.45 -0.05,0.1 -0.18,0.32 -0.25,0.4 0.02,-0.34 0.04,-0.5 -0.01,-0.85zm-5.38 0.85c-0.08,-0.09 -0.18,-0.27 -0.25,-0.4l0.24 -0.46c-0.01,0.36 0,0.52 0.01,0.86zm-2.14 -0.3l-0.53 0.66c-0.09,0.11 0.01,0.04 -0.13,0.1 -0.08,-0.21 -0.19,-0.31 -0.25,-0.49 0.21,-0.13 0.59,-0.23 0.91,-0.27zm10.27 0.76c-0.15,-0.28 -0.44,-0.48 -0.61,-0.76 0.29,0.03 0.73,0.15 0.92,0.27 -0.05,0.14 -0.2,0.43 -0.31,0.49zm-8.31 -0.36l-0.27 -0.19 0.09 -0.13c0.11,0.13 0.11,0.2 0.18,0.32zm5.93 -0.33l0.09 0.13c-0.1,0.1 -0.16,0.14 -0.27,0.2l0.18 -0.33zm-9.17 -0.01c0.12,0.09 0.08,0.05 0.12,0.15 -0.1,0.09 -0.19,0.14 -0.29,0.2 0.06,-0.14 0.13,-0.2 0.17,-0.35zm12.41 0.36c-0.06,-0.06 -0.22,-0.16 -0.3,-0.2 0.04,-0.12 0,-0.08 0.11,-0.16l0.19 0.36zm-9.92 -0.22c0.12,0.46 0.11,0.23 -0.01,0.56 -0.14,-0.05 -0.08,-0.03 -0.17,-0.15 0.01,-0.09 0.03,-0.11 0.06,-0.2 0.01,-0.01 0.03,-0.1 0.03,-0.1l0.09 -0.11zm7.43 0.41l-0.11 0.16c-0.07,-0.05 -0.04,0 -0.1,-0.1 -0.1,-0.16 -0.02,-0.22 0.03,-0.48 0.08,0.07 0.07,0.06 0.11,0.19 0.03,0.07 0.06,0.19 0.07,0.23zm-7.81 0.03l-0.47 1.34 -0.02 -1.87 0.49 0.53zm8.49 -0.53c0.01,0.3 0.03,1.66 0,1.76 -0.03,0.08 -0.01,0.03 -0.04,0.06 -0.05,-0.15 -0.14,-0.43 -0.2,-0.62 -0.07,-0.21 -0.18,-0.46 -0.23,-0.66 0.14,-0.18 0.32,-0.37 0.47,-0.54zm0.89 0.84c-0.09,0.1 -0.26,0.45 -0.34,0.58 -0.09,0.17 -0.26,0.51 -0.38,0.6l0.01 -2.01c0.11,0.06 0.28,0.31 0.37,0.4l0.34 0.43zm-10.03 -0.82l0 2c0,-0.01 -0.01,-0.01 -0.02,-0.02l-0.36 -0.58c-0.11,-0.19 -0.25,-0.42 -0.34,-0.62l0.6 -0.68c0.08,-0.11 -0.02,-0.05 0.12,-0.1zm7.9 0.25c0.14,0.25 0.07,0.26 -0.03,0.55 -0.06,0.15 -0.13,0.45 -0.22,0.56 -0.13,-0.05 -0.46,-0.24 -0.56,-0.33 0.09,-0.21 0.59,-0.69 0.81,-0.78zm-6.55 0.8c-0.11,-0.08 -0.19,-0.15 -0.23,-0.29l0.09 -0.11 0.14 0.4zm0.88 -0.02l-0.56 0.35 -0.32 -0.86c-0.05,-0.16 0,-0.14 0.06,-0.28 0.2,0.08 0.31,0.22 0.45,0.35 0.16,0.16 0.24,0.24 0.37,0.44zm5.87 -0.38c0.03,0.02 0.02,0.01 0.05,0.05 0.03,0.04 0.03,0.04 0.05,0.09 -0.08,0.11 -0.13,0.17 -0.23,0.26l0.13 -0.4zm-3.52 -0.74l0 2.4c-0.9,0.06 -1.86,-0.72 -2.09,-1.21 0.13,-0.1 0.33,-0.2 0.5,-0.3 0.18,-0.11 0.35,-0.2 0.52,-0.3 0.18,-0.1 0.95,-0.58 1.07,-0.59zm0.15 2.4l0.01 -2.4c0.12,0.01 1.84,1.04 2.09,1.18 -0.27,0.55 -1.14,1.24 -2.1,1.22zm4.08 -0.85c-0.01,-0.01 -0.02,-0.01 -0.02,-0.01 0,-0.01 -0.37,-0.57 -0.35,-0.66l0.06 -0.1c0.07,0.04 0.05,0 0.1,0.17l0.21 0.6zm-8.04 -0.77c0.11,0.06 0.04,0.03 0.12,0.12 -0.05,0.13 -0.32,0.59 -0.39,0.65l0.27 -0.77zm2.88 1.64l-0.46 -0.01c-0.1,-0.15 -0.18,-0.28 -0.24,-0.4 0.11,0.05 0.28,0.18 0.52,0.3 0,0 0.09,0.04 0.09,0.04 0.11,0.07 0.05,0.03 0.09,0.07zm3.32 -1.13c0.17,0.04 0.38,0.22 0.59,0.29 -0.06,0.17 -0.4,0.51 -0.56,0.69 -0.11,0.13 -0.08,0.14 -0.31,0.15 0,-0.54 0.14,-0.73 0.28,-1.13zm-4.35 1.13c-0.28,-0.01 -0.35,-0.18 -0.48,-0.35 -0.14,-0.16 -0.33,-0.3 -0.39,-0.48 0.22,-0.08 0.39,-0.23 0.59,-0.31 0.14,0.39 0.29,0.62 0.28,1.14zm-1.62 -1.37c0.11,0.08 0.38,0.39 0.46,0.51 -0.12,0.11 -1.03,0.62 -1.1,0.65 0.02,-0.14 0.01,-0.07 0.06,-0.15 0.04,-0.06 0.06,-0.07 0.1,-0.14l0.48 -0.87zm7.95 1.15l-0.96 -0.54c-0.02,-0.01 -0.04,-0.02 -0.06,-0.04l-0.08 -0.06c0.12,-0.18 0.29,-0.35 0.45,-0.5l0.65 1.14zm2.84 0.42c-0.13,-0.07 -1.38,-1.57 -1.55,-1.73 0.1,-0.18 0.24,-0.38 0.3,-0.56 0.3,0.08 0.71,0.57 0.88,0.87 0.24,0.4 0.36,0.84 0.37,1.42zm-8.83 -0.2c-0.17,-0.01 -0.14,0.08 -0.18,-0.32 0.09,0.09 0.15,0.19 0.18,0.32zm3.53 -0.3c0,0.01 0.06,0.07 0.02,0.21 -0.03,0.13 -0.02,0.09 -0.16,0.09l0.14 -0.3zm-4.31 0.3l-0.21 -0.01 -0.14 -0.4c0.06,0.05 0.12,0.11 0.18,0.18l0.17 0.23zm5.29 -0.42l-0.12 0.41 -0.21 0.01c0.06,-0.12 0.24,-0.33 0.33,-0.42zm-5.91 -0.26l0.23 0.67 -1.38 0.01c0.07,-0.1 0.17,-0.13 0.28,-0.19 0.21,-0.12 0.68,-0.44 0.87,-0.49zm4.79 0.27c-0.06,0.15 -0.16,0.27 -0.21,0.41l-0.38 -0.07 0.59 -0.34zm2.54 0.41l-1.37 -0.01c0.07,-0.2 0.16,-0.49 0.23,-0.67 0.17,0.04 0.65,0.37 0.85,0.47 0.2,0.11 0.22,0.09 0.29,0.21zm-10.12 -2.09l0.3 0.55c-0.3,0.28 -1.31,1.56 -1.55,1.76 0.02,-0.56 0.1,-0.99 0.35,-1.4 0.17,-0.28 0.58,-0.82 0.9,-0.91zm4.58 2.37l-0.07 -0.12 0.37 0c-0.03,0.03 -0.01,0.03 -0.06,0.06 -0.17,0.09 -0.17,0.08 -0.24,0.06zm2.61 0.03c-0.07,-0.02 -0.11,-0.03 -0.17,-0.06 -0.11,-0.05 -0.06,-0.01 -0.12,-0.08l0.35 -0.01 -0.06 0.15zm-4.06 0.03l-0.83 -0.16 0.79 -0.02 0.04 0.18zm5.55 -0.17l0.79 0 -0.83 0.17 0.04 -0.17zm-0.34 1.02c0.04,-0.14 0.15,-0.54 0.26,-0.64 0.07,-0.08 0.49,-0.12 0.63,-0.15l0.66 -0.13c-0.05,0.1 -0.25,0.19 -0.35,0.24 -0.24,0.13 -1.04,0.62 -1.2,0.68zm-9.73 -1.56c0.01,0.15 -0.02,0.36 -0.02,0.53 0.01,0.27 0.01,0.31 -0.15,0.43 -0.07,-0.05 -0.19,-0.13 -0.26,-0.19l0.43 -0.77zm8.86 0.52l0.27 0.02c0.01,0.3 0.03,0.26 -0.15,0.38 -0.12,-0.03 -0.17,-0.07 -0.25,-0.15l0.13 -0.25zm6.12 0.25c-0.07,0.07 -0.19,0.15 -0.25,0.19 -0.27,-0.21 -0.12,-0.3 -0.19,-0.94 0.12,0.13 0.34,0.62 0.44,0.75zm-9.14 0c-0.07,0.05 -0.2,0.18 -0.3,0.14 -0.17,-0.07 -0.12,-0.18 -0.11,-0.38l0.28 0 0.13 0.24zm-0.63 0.07l-0.5 -0.09 -0.04 -0.21c0.43,-0.06 0.35,0.08 0.54,0.3zm-5.89 0l-1.11 1.89 0 -2.2c0.4,0.02 0.84,0.13 1.11,0.31zm2.42 -1.86c0.13,0.07 0.35,0.55 0.44,0.69 0.1,0.17 0.37,0.59 0.4,0.74 -0.16,0.06 -1.29,0.74 -1.59,0.92 -0.14,0.08 -0.42,0.26 -0.56,0.3 -0.32,-0.93 -0.46,-0.55 0.55,-1.73 0.1,-0.11 0.18,-0.18 0.26,-0.29 0.16,-0.22 0.39,-0.4 0.5,-0.63zm6.72 1.86c-0.07,0.27 -0.17,0.2 -0.48,0.26 -0.18,0.04 -0.46,0.12 -0.63,0.11l0.01 -0.66c0.32,-0.05 0.89,0.14 1.1,0.29zm1.12 -0.31l0.31 0 -0.05 0.22 -0.5 0.09 0.24 -0.31zm4.55 1.1c-0.14,-0.04 -0.41,-0.21 -0.54,-0.29l-1.62 -0.94c0.04,-0.15 0.31,-0.54 0.4,-0.7 0.11,-0.2 0.3,-0.5 0.38,-0.71 0.17,0.07 0.05,0.04 0.28,0.29l1.3 1.49c0.12,0.2 -0.15,0.67 -0.2,0.86zm2.21 -1.1l0 2.2 -1.1 -1.89c0.25,-0.17 0.71,-0.28 1.1,-0.31zm-9.15 0.02l0.01 0.66c-0.17,0 -0.46,-0.07 -0.63,-0.11 -0.31,-0.06 -0.41,0.01 -0.48,-0.27 0.21,-0.12 0.77,-0.31 1.1,-0.28zm-2.21 0.98l-0.19 -0.59 0.39 0.07c-0.01,0.12 -0.04,0.17 -0.07,0.28 -0.04,0.12 -0.05,0.16 -0.13,0.24zm4.78 -0.59l-0.19 0.59c-0.12,-0.11 -0.18,-0.37 -0.2,-0.52l0.39 -0.07zm-3.34 0.47l-0.11 -0.17 0.47 0.07 -0.36 0.1zm1.81 -0.18l-0.08 0.18 -0.37 -0.07 0.45 -0.11zm0.61 -0.11l-0.29 0.37 -0.2 -0.03c0.06,-0.31 0.2,-0.3 0.49,-0.34zm-2.63 0.32l-0.21 0.05c-0.08,-0.1 -0.21,-0.26 -0.29,-0.37 0.43,0.07 0.33,0.01 0.5,0.32zm-1.38 0.12c-0.19,-0.06 -1.35,-0.78 -1.6,-0.91 0.23,0.01 0.78,0.14 1.05,0.19 0.55,0.11 0.21,0.03 0.55,0.72zm2.36 -0.12l0.01 1.28c-0.1,-0.06 -0.62,-1 -0.69,-1.13 0.01,-0.01 0.03,0 0.03,-0.01 0.02,-0.05 0.61,-0.14 0.65,-0.14zm0.86 0.13c-0.1,0.22 -0.23,0.38 -0.34,0.59 -0.11,0.21 -0.23,0.4 -0.35,0.58l0 -1.3 0.69 0.13zm-2.52 -0.35c0.11,0.08 0.21,0.18 0.26,0.32l-0.59 0.1c0.07,-0.17 0.22,-0.32 0.33,-0.42zm3.82 0.41l-0.58 -0.1 0.24 -0.31c0.11,0.14 0.25,0.22 0.34,0.41zm2.22 -0.89l-0.68 1.19 -1.04 -0.19c0.01,-0.02 0.02,-0.02 0.02,-0.03 0,-0.02 0.02,-0.02 0.02,-0.02l1.23 -0.72c0.19,-0.1 0.29,-0.21 0.45,-0.23zm-6.85 1.01l-1.06 0.18c-0.08,-0.19 -0.22,-0.41 -0.32,-0.59 -0.06,-0.11 -0.12,-0.19 -0.18,-0.3l-0.17 -0.31c0.1,0.02 1.67,0.94 1.73,1.02zm-1.24 0.21c-0.21,0.1 -1.68,0.33 -2.12,0.42 -0.2,0.04 -0.23,0.08 -0.36,-0.03 -0.12,-0.1 -0.38,-0.4 -0.46,-0.56 0.19,-0.12 1.95,-1.16 2.14,-1.23l0.8 1.4zm8.41 -1.41l1.59 0.93c0.15,0.09 0.39,0.24 0.54,0.3 -0.07,0.17 -0.34,0.47 -0.47,0.57 -0.15,0.13 -0.4,0.02 -0.79,-0.05 -0.41,-0.08 -1.37,-0.21 -1.69,-0.34l0.82 -1.41zm-7.1 1.35c-0.14,0.25 -0.47,0.56 -0.72,0.7 -0.06,-0.05 -0.26,-0.42 -0.29,-0.5l1.01 -0.2zm5.98 0.19l-0.28 0.51c-0.21,-0.1 -0.63,-0.49 -0.72,-0.69l1 0.18zm-11.29 -1.15c0.11,0.04 0.18,0.1 0.24,0.17l-1.01 1.16 0.77 -1.33zm16.37 1.33l-1.02 -1.16c0.07,-0.07 0.13,-0.13 0.25,-0.17 0.12,0.15 0.29,0.49 0.39,0.67 0.06,0.1 0.12,0.21 0.19,0.32 0.05,0.09 0.13,0.25 0.19,0.34zm-9.16 -0.01l-0.53 -0.6 0.13 -0.06c0.17,0.18 0.28,0.45 0.4,0.66zm1.53 -0.65l0.18 0.02c-0.12,0.2 -0.38,0.47 -0.53,0.64 0.07,-0.23 0.26,-0.45 0.35,-0.66zm-8.38 -0.39c0.15,0.09 0.34,0.34 0.44,0.5 -0.11,0.09 -0.26,0.17 -0.39,0.25 -0.31,0.17 -1.1,0.66 -1.31,0.75l1.26 -1.5zm4.06 1.46c-0.4,0.42 -2.04,0.43 -2.59,-0.1l2.29 -0.45c0.09,0.19 0.22,0.37 0.3,0.55zm7.05 -0.55l2.29 0.44c-0.03,0.03 -0.01,0.02 -0.06,0.06l-0.19 0.1c-0.1,0.05 -0.19,0.09 -0.29,0.13 -0.21,0.07 -0.44,0.12 -0.69,0.13 -0.39,0.02 -1.16,-0.08 -1.36,-0.31 0.06,-0.16 0.22,-0.35 0.3,-0.55zm5.02 0.58l-1.69 -1c0.08,-0.16 0.29,-0.4 0.43,-0.5l1.26 1.5zm-9.14 0.02c-0.2,-0.08 -0.56,-0.32 -0.77,-0.44l-0.8 -0.46c0.11,-0.08 0.47,-0.11 0.67,-0.16 0.09,0.08 0.15,0.16 0.23,0.26 0.07,0.1 0.16,0.18 0.24,0.27l0.43 0.53zm1.77 -1.05l0.69 0.15c-0.26,0.15 -0.51,0.29 -0.78,0.45 -0.16,0.09 -0.64,0.4 -0.78,0.44l0.87 -1.04zm-3.95 0.69c-0.04,0.21 -0.09,0.39 -0.09,0.63l-0.25 0 -0.15 -0.23 0.49 -0.4zm5.75 0.4l-0.15 0.24 -0.25 -0.01c-0.01,-0.25 -0.05,-0.4 -0.09,-0.62l0.49 0.39zm-10 -0.88c0.06,0.21 0.18,0.38 0.21,0.62l-1.93 0.39c0.07,-0.1 1.14,-0.7 1.27,-0.77 0.12,-0.07 0.33,-0.21 0.45,-0.24zm15.46 1l-1.92 -0.36c0.03,-0.22 0.14,-0.53 0.25,-0.64 0.28,0.14 0.57,0.34 0.84,0.49 0.26,0.15 0.73,0.39 0.83,0.51zm-10.54 0.11l-0.6 0c0.02,-0.19 0.04,-0.37 0.08,-0.55 0.03,-0.09 0.04,-0.14 0.07,-0.23 0.05,-0.14 0.04,-0.13 0.13,-0.2l0.32 0.98zm4.28 -0.98c0.13,0.36 0.19,0.54 0.23,0.97l-0.59 0.01c0.05,-0.24 0.17,-0.49 0.24,-0.73l0.07 -0.18c0.04,-0.07 -0.01,-0.02 0.05,-0.07zm-8.93 0.68l0.01 0.3 -1.46 0c0.03,-0.02 0.02,-0.02 0.08,-0.05 0.05,-0.02 0.02,-0.01 0.08,-0.02l1.29 -0.23zm0.99 0.3l-0.81 -0.01 -0.02 -0.34c0.29,-0.03 0.35,0.06 0.72,0.27 0.01,0 0.02,0 0.03,0.01l0.08 0.07zm5.23 0l-1.39 0c-0.06,-0.25 -0.32,-0.83 -0.33,-1.03 0.28,0.14 0.56,0.34 0.85,0.5 0.14,0.07 0.8,0.42 0.87,0.53zm2.49 -1.03c0.01,0.15 -0.27,0.81 -0.33,1.03l-1.2 0.01c-0.05,-0.01 -0.05,0 -0.1,-0.02 -0.1,-0.04 -0.01,0.02 -0.09,-0.06 0.21,-0.06 1.48,-0.8 1.72,-0.96zm4.35 0.71l-0.03 0.32 -0.82 0c0.06,-0.06 0,-0.01 0.09,-0.07 0.01,0 0.1,-0.04 0.13,-0.05 0.31,-0.15 0.36,-0.35 0.63,-0.2zm1.63 0.32l-1.49 0 0.02 -0.3c0.22,0.01 0.5,0.09 0.73,0.13l0.55 0.1c0.03,0 0.05,0.01 0.08,0.02 0.16,0.05 -0.13,-0.06 0.06,0.02l0.05 0.03zm-15 1.28l-1.87 -1.09 2.19 -0.01c-0.03,0.37 -0.07,0.54 -0.18,0.86l-0.14 0.24zm6.83 -0.85l0.01 2.21c-0.19,0 -0.72,-0.07 -0.83,-0.18 -0.06,-0.06 -0.23,-0.63 -0.27,-0.75l-0.53 -1.54 1.63 0.01 -0.01 0.25zm0.16 2.21l0.01 -2.45 1.62 -0.01 -0.8 2.28c-0.09,0.1 -0.65,0.19 -0.83,0.18zm6.84 -1.36l-0.03 -0.03c-0.03,-0.04 -0.02,-0.02 -0.04,-0.07 -0.14,-0.25 -0.23,-0.7 -0.24,-1l2.18 0 -1.87 1.1zm-9.61 -0.82c-0.07,-0.05 -0.14,-0.17 -0.18,-0.28 0.2,0 0.12,-0.04 0.16,0.07 0,0.01 0.01,0.19 0.02,0.21zm5.57 -0.28l-0.16 0.3c-0.01,-0.03 0,-0.18 0,-0.19 0.03,-0.16 -0.04,-0.11 0.16,-0.11zm6.36 -0.4l0 -2.25c1.35,0.05 2.44,1.15 2.47,2.52 0.01,0.8 -0.34,1.42 -0.71,1.81 -0.79,0.85 -2.13,1.04 -3.17,0.42 -0.25,-0.15 -0.72,-0.57 -0.82,-0.83 0.16,-0.15 1.52,-0.89 1.83,-1.08 0.34,-0.2 0.4,-0.1 0.4,-0.59zm-18.29 2.86c-1.54,0 -2.66,-1.15 -2.65,-2.55 0.01,-1.42 1.12,-2.49 2.48,-2.56l-0.01 2.59c0.12,0.11 2.03,1.19 2.25,1.32 -0.11,0.26 -0.55,0.66 -0.82,0.82 -0.29,0.19 -0.79,0.38 -1.25,0.38zm8.07 0.17c-0.09,0.06 -0.2,0.12 -0.31,0.15 -0.11,-0.26 -0.29,-0.5 -0.4,-0.73 0.11,0.06 0.24,0.17 0.39,0.25 0.22,0.12 0.26,0.06 0.32,0.33zm-0.15 -0.44c-0.77,-0.31 -1.34,-1.26 -1.42,-2.19l0.65 0c0.06,0.09 0.72,1.99 0.77,2.19zm2.84 -0.1c0.01,0.01 -0.19,0.28 -0.21,0.33 -0.06,0.1 -0.14,0.24 -0.19,0.36 -0.11,-0.02 -0.24,-0.09 -0.32,-0.15 0.06,-0.27 0.08,-0.2 0.3,-0.32l0.42 -0.22zm0.24 -2.09l0.61 0c-0.05,0.58 -0.21,0.98 -0.45,1.36 -0.14,0.21 -0.71,0.77 -0.97,0.82 0.12,-0.45 0.5,-1.38 0.67,-1.93 0.09,-0.3 0.06,-0.21 0.14,-0.25zm-2.03 2.65l0 1.97c-0.09,-0.11 -0.58,-1.6 -0.66,-1.85 0.15,-0.1 0.45,-0.13 0.66,-0.12zm0.83 0.12l-0.48 1.39c-0.03,0.08 -0.11,0.38 -0.19,0.44l0.01 -1.95c0.11,0 0.24,0.01 0.35,0.03l0.25 0.06c0.09,0.03 0.03,0 0.06,0.03zm-2.18 0.1c-0.09,0.08 -0.16,0.11 -0.25,0.18 -0.23,0.18 -0.47,0.44 -0.62,0.71l-3.88 -2.23c-0.21,-0.12 -0.36,-0.22 -0.56,-0.32 0.16,-0.44 0.3,-0.59 0.31,-1.21l3.37 0c0.08,0.23 1.02,1.79 1.22,2.16 0.13,0.22 0.32,0.5 0.41,0.71zm4.54 -2.87l3.33 0c0.01,0.55 0.15,0.81 0.31,1.21 -0.16,0.07 -0.37,0.2 -0.54,0.3l-3.9 2.25c-0.1,-0.19 -0.23,-0.35 -0.38,-0.49 -0.08,-0.08 -0.15,-0.15 -0.23,-0.22 -0.1,-0.08 -0.16,-0.09 -0.26,-0.18l0.82 -1.42c0.2,-0.33 0.68,-1.24 0.85,-1.45zm-3.56 4.29c0,-0.19 -0.64,-1.08 -0.72,-1.35l0.25 -0.12 0.47 1.29c0.04,0.13 0.03,0.14 0,0.18zm1.38 -1.47l0.26 0.1c-0.05,0.16 -0.7,1.28 -0.77,1.33 0.05,-0.16 0.46,-1.35 0.51,-1.43zm-1.19 2.11c-0.21,-0.07 -1.54,-0.94 -1.89,-1.06 0.09,-0.27 0.57,-0.74 0.84,-0.84 0.05,0.16 0.16,0.33 0.24,0.47l0.78 1.34c0,0.01 0.02,0.09 0.03,0.09zm1.58 -1.9c0.26,0.08 0.76,0.58 0.84,0.84 -0.34,0.11 -1.54,0.92 -1.89,1.06 0.02,-0.1 0.01,-0.05 0.06,-0.14l0.74 -1.27c0.1,-0.18 0.19,-0.31 0.25,-0.49zm0.94 0.97c0.47,0.81 0.35,1.85 -0.11,2.58 -1.28,2.03 -4.58,1.24 -4.7,-1.26 -0.02,-0.42 0.1,-1.06 0.31,-1.31 0.35,0.13 2.1,1.26 2.25,1.26 0.08,0 0.97,-0.54 1.12,-0.63 0.19,-0.11 0.38,-0.21 0.57,-0.32 0.2,-0.11 0.36,-0.24 0.56,-0.32zm0.16 -0.11l4.41 -2.53c1.43,1.99 3.81,1.4 4.63,0.02 1.07,-1.8 0.01,-4.05 -2.22,-4.19l0 -5.12c2.24,-0.11 3.26,-2.46 2.25,-4.13 -0.39,-0.65 -1.15,-1.29 -2.25,-1.32 -0.8,-0.02 -1.44,0.27 -1.96,0.74 -0.17,0.16 -0.26,0.34 -0.43,0.5l-4.42 -2.53c0.05,-0.19 0.16,-0.37 0.23,-0.62 0.19,-0.76 0.01,-1.54 -0.37,-2.14 -1.37,-2.16 -4.87,-1.27 -5,1.29 -0.05,0.9 0.19,1.05 0.29,1.47 -0.24,0.2 -4.33,2.44 -4.41,2.54 -0.22,-0.18 -0.77,-1.25 -2.33,-1.25 -1.14,0.01 -1.91,0.65 -2.31,1.3 -1.13,1.9 0.25,4.11 2.25,4.15l-0.01 5.12c-0.6,0.05 -0.96,0.15 -1.37,0.42 -2.29,1.47 -1.27,5 1.44,5.02 1.09,0.01 1.78,-0.5 2.33,-1.28 0.13,0.05 0.39,0.22 0.53,0.3 0.17,0.1 0.36,0.22 0.56,0.33 0.36,0.2 3.15,1.84 3.34,1.9 -0.05,0.2 -0.18,0.4 -0.24,0.64 -0.58,2.29 1.86,4.24 4.02,3.03 1.02,-0.57 1.56,-1.82 1.28,-3 -0.07,-0.27 -0.19,-0.45 -0.24,-0.66z"/>
    </clipPath>
 </defs>
 <g id="Capa_x0020_1">
  <metadata id="CorelCorpID_0Corel-Layer"/>
  <g>
   <g style="clip-path:url(#id0)">
    <polygon id="verdadero2" class="fil0" points="14.7,14.9 23.07,33.04 22.76,33.19 "/>
    <polygon id="_1" class="fil1" points="14.7,14.9 22.81,33.16 22.55,33.28 "/>
    <polygon id="_2" class="fil2" points="14.7,14.9 22.6,33.26 22.34,33.37 "/>
    <polygon id="_3" class="fil3" points="14.7,14.9 22.39,33.35 22.13,33.46 "/>
    <polygon id="_4" class="fil4" points="14.7,14.9 22.18,33.44 21.92,33.55 "/>
    <polygon id="_5" class="fil5" points="14.7,14.9 21.97,33.53 21.7,33.63 "/>
    <polygon id="_6" class="fil6" points="14.7,14.9 21.75,33.61 21.49,33.71 "/>
    <polygon id="_7" class="fil7" points="14.7,14.9 21.54,33.69 21.27,33.79 "/>
    <polygon id="_8" class="fil8" points="14.7,14.9 21.32,33.77 21.05,33.86 "/>
    <polygon id="_9" class="fil9" points="14.7,14.9 21.11,33.84 20.84,33.93 "/>
    <polygon id="_10" class="fil10" points="14.7,14.9 20.89,33.92 20.62,34 "/>
    <polygon id="_11" class="fil11" points="14.7,14.9 20.67,33.99 20.4,34.07 "/>
    <polygon id="_12" class="fil12" points="14.7,14.9 20.45,34.05 20.18,34.13 "/>
    <polygon id="_13" class="fil13" points="14.7,14.9 20.23,34.11 19.96,34.19 "/>
    <polygon id="_14" class="fil14" points="14.7,14.9 20.01,34.18 19.74,34.25 "/>
    <polygon id="_15" class="fil15" points="14.7,14.9 19.79,34.23 19.51,34.3 "/>
    <polygon id="_16" class="fil16" points="14.7,14.9 19.57,34.29 19.29,34.35 "/>
    <polygon id="_17" class="fil17" points="14.7,14.9 19.34,34.34 19.06,34.4 "/>
    <polygon id="_18" class="fil18" points="14.7,14.9 19.12,34.39 18.84,34.44 "/>
    <polygon id="_19" class="fil19" points="14.7,14.9 18.9,34.43 18.61,34.49 "/>
    <polygon id="_20" class="fil20" points="14.7,14.9 18.67,34.48 18.39,34.53 "/>
    <polygon id="_21" class="fil21" points="14.7,14.9 18.44,34.52 18.16,34.56 "/>
    <polygon id="_22" class="fil22" points="14.7,14.9 18.22,34.55 17.93,34.59 "/>
    <polygon id="_23" class="fil23" points="14.7,14.9 17.99,34.59 17.71,34.63 "/>
    <polygon id="_24" class="fil24" points="14.7,14.9 17.76,34.62 17.48,34.65 "/>
    <polygon id="_25" class="fil25" points="14.7,14.9 17.53,34.65 17.25,34.68 "/>
    <polygon id="_26" class="fil26" points="14.7,14.9 17.31,34.67 17.02,34.7 "/>
    <polygon id="_27" class="fil27" points="14.7,14.9 17.08,34.69 16.79,34.72 "/>
    <polygon id="_28" class="fil28" points="14.7,14.9 16.85,34.71 16.56,34.73 "/>
    <polygon id="_29" class="fil29" points="14.7,14.9 16.62,34.73 16.33,34.74 "/>
    <polygon id="_30" class="fil30" points="14.7,14.9 16.39,34.74 16.1,34.75 "/>
    <polygon id="_31" class="fil31" points="14.7,14.9 16.16,34.75 15.87,34.76 "/>
    <polygon id="_32" class="fil32" points="14.7,14.9 15.93,34.76 15.64,34.76 "/>
    <polygon id="_33" class="fil33" points="14.7,14.9 15.7,34.76 15.41,34.76 "/>
    <polygon id="_34" class="fil34" points="14.7,14.9 15.47,34.76 15.18,34.76 "/>
    <polygon id="_35" class="fil35" points="14.7,14.9 15.24,34.76 14.95,34.75 "/>
    <polygon id="_36" class="fil36" points="14.7,14.9 15,34.75 14.72,34.74 "/>
    <polygon id="_37" class="fil37" points="14.7,14.9 14.77,34.75 14.49,34.73 "/>
    <polygon id="_38" class="fil38" points="14.7,14.9 14.54,34.73 14.25,34.72 "/>
    <polygon id="_39" class="fil39" points="14.7,14.9 14.31,34.72 14.02,34.7 "/>
    <polygon id="_40" class="fil40" points="14.7,14.9 14.08,34.7 13.79,34.68 "/>
    <polygon id="_41" class="fil41" points="14.7,14.9 13.85,34.68 13.56,34.65 "/>
    <polygon id="_42" class="fil42" points="14.7,14.9 13.62,34.66 13.33,34.63 "/>
    <polygon id="_43" class="fil43" points="14.7,14.9 13.39,34.63 13.1,34.6 "/>
    <polygon id="_44" class="fil44" points="14.7,14.9 13.16,34.6 12.87,34.56 "/>
    <polygon id="_45" class="fil45" points="14.7,14.9 12.93,34.57 12.64,34.53 "/>
    <polygon id="_46" class="fil46" points="14.7,14.9 12.7,34.54 12.41,34.49 "/>
    <polygon id="_47" class="fil47" points="14.7,14.9 12.47,34.5 12.18,34.45 "/>
    <polygon id="_48" class="fil48" points="14.7,14.9 12.24,34.46 11.96,34.4 "/>
    <polygon id="_49" class="fil49" points="14.7,14.9 12.01,34.41 11.73,34.35 "/>
    <polygon id="_50" class="fil50" points="14.7,14.9 11.78,34.37 11.5,34.3 "/>
    <polygon id="_51" class="fil51" points="14.7,14.9 11.56,34.31 11.27,34.25 "/>
    <polygon id="_52" class="fil52" points="14.7,14.9 11.33,34.26 11.04,34.19 "/>
    <polygon id="_53" class="fil53" points="14.7,14.9 11.1,34.21 10.82,34.13 "/>
    <polygon id="_54" class="fil54" points="14.7,14.9 10.87,34.15 10.59,34.07 "/>
    <polygon id="_55" class="fil55" points="14.7,14.9 10.65,34.09 10.37,34 "/>
    <polygon id="_56" class="fil56" points="14.7,14.9 10.42,34.02 10.14,33.94 "/>
    <polygon id="_57" class="fil57" points="14.7,14.9 10.2,33.95 9.92,33.86 "/>
    <polygon id="_58" class="fil57" points="14.7,14.9 9.98,33.88 9.7,33.79 "/>
    <polygon id="_59" class="fil58" points="14.7,14.9 9.75,33.81 9.47,33.71 "/>
    <polygon id="_60" class="fil59" points="14.7,14.9 9.53,33.73 9.25,33.63 "/>
    <polygon id="_61" class="fil59" points="14.7,14.9 9.31,33.65 9.03,33.55 "/>
    <polygon id="_62" class="fil60" points="14.7,14.9 9.09,33.57 8.81,33.47 "/>
    <polygon id="_63" class="fil61" points="14.7,14.9 8.87,33.49 8.59,33.38 "/>
    <polygon id="_64" class="fil62" points="14.7,14.9 8.65,33.4 8.38,33.29 "/>
    <polygon id="_65" class="fil63" points="14.7,14.9 8.43,33.31 8.16,33.19 "/>
    <polygon id="_66" class="fil64" points="14.7,14.9 8.21,33.22 7.94,33.1 "/>
    <polygon id="_67" class="fil65" points="14.7,14.9 8,33.12 7.73,33 "/>
    <polygon id="_68" class="fil66" points="14.7,14.9 7.78,33.02 7.51,32.89 "/>
    <polygon id="_69" class="fil67" points="14.7,14.9 7.57,32.92 7.3,32.79 "/>
    <polygon id="_70" class="fil68" points="14.7,14.9 7.35,32.81 7.09,32.68 "/>
    <polygon id="_71" class="fil69" points="14.7,14.9 7.14,32.71 6.88,32.57 "/>
    <polygon id="_72" class="fil70" points="14.7,14.9 6.93,32.6 6.67,32.46 "/>
    <polygon id="_73" class="fil71" points="14.7,14.9 6.72,32.49 6.46,32.34 "/>
    <polygon id="_74" class="fil72" points="14.7,14.9 6.51,32.37 6.26,32.22 "/>
    <polygon id="_75" class="fil73" points="14.7,14.9 6.31,32.25 6.05,32.1 "/>
    <polygon id="_76" class="fil74" points="14.7,14.9 6.1,32.13 5.85,31.98 "/>
    <polygon id="_77" class="fil75" points="14.7,14.9 5.9,32.01 5.64,31.85 "/>
    <polygon id="_78" class="fil76" points="14.7,14.9 5.69,31.88 5.44,31.72 "/>
    <polygon id="_79" class="fil77" points="14.7,14.9 5.49,31.76 5.24,31.59 "/>
    <polygon id="_80" class="fil78" points="14.7,14.9 5.29,31.63 5.04,31.46 "/>
    <polygon id="_81" class="fil79" points="14.7,14.9 5.09,31.49 4.84,31.32 "/>
    <polygon id="_82" class="fil80" points="14.7,14.9 4.89,31.36 4.65,31.18 "/>
    <polygon id="_83" class="fil81" points="14.7,14.9 4.7,31.22 4.46,31.04 "/>
    <polygon id="_84" class="fil82" points="14.7,14.9 4.5,31.08 4.26,30.9 "/>
    <polygon id="_85" class="fil83" points="14.7,14.9 4.31,30.93 4.07,30.75 "/>
    <polygon id="_86" class="fil84" points="14.7,14.9 4.12,30.79 3.88,30.6 "/>
    <polygon id="_87" class="fil85" points="14.7,14.9 3.93,30.64 3.69,30.45 "/>
    <polygon id="_88" class="fil86" points="14.7,14.9 3.74,30.49 3.51,30.3 "/>
    <polygon id="_89" class="fil87" points="14.7,14.9 3.55,30.34 3.32,30.14 "/>
    <polygon id="_90" class="fil88" points="14.7,14.9 3.37,30.18 3.14,29.99 "/>
    <polygon id="_91" class="fil89" points="14.7,14.9 3.19,30.02 2.96,29.83 "/>
    <polygon id="_92" class="fil90" points="14.7,14.9 3,29.87 2.78,29.66 "/>
    <polygon id="_93" class="fil91" points="14.7,14.9 2.83,29.7 2.6,29.5 "/>
    <polygon id="_94" class="fil92" points="14.7,14.9 2.65,29.54 2.43,29.33 "/>
    <polygon id="_95" class="fil93" points="14.7,14.9 2.47,29.37 2.25,29.16 "/>
    <polygon id="_96" class="fil94" points="14.7,14.9 2.3,29.2 2.08,28.99 "/>
    <polygon id="_97" class="fil95" points="14.7,14.9 2.12,29.03 1.91,28.82 "/>
    <polygon id="_98" class="fil96" points="14.7,14.9 1.95,28.86 1.74,28.64 "/>
    <polygon id="_99" class="fil97" points="14.7,14.9 1.79,28.69 1.58,28.46 "/>
    <polygon id="_100" class="fil98" points="14.7,14.9 1.62,28.51 1.41,28.28 "/>
    <polygon id="_101" class="fil99" points="14.7,14.9 1.46,28.33 1.25,28.1 "/>
    <polygon id="_102" class="fil100" points="14.7,14.9 1.29,28.15 1.09,27.92 "/>
    <polygon id="_103" class="fil101" points="14.7,14.9 1.13,27.96 0.93,27.73 "/>
    <polygon id="_104" class="fil102" points="14.7,14.9 0.97,27.78 0.78,27.54 "/>
    <polygon id="_105" class="fil103" points="14.7,14.9 0.82,27.59 0.62,27.35 "/>
    <polygon id="_106" class="fil104" points="14.7,14.9 0.66,27.4 0.47,27.16 "/>
    <polygon id="_107" class="fil105" points="14.7,14.9 0.51,27.21 0.32,26.97 "/>
    <polygon id="_108" class="fil106" points="14.7,14.9 0.36,27.02 0.18,26.77 "/>
    <polygon id="_109" class="fil107" points="14.7,14.9 0.21,26.82 0.03,26.58 "/>
    <polygon id="_110" class="fil108" points="14.7,14.9 0.07,26.63 -0.11,26.38 "/>
    <polygon id="_111" class="fil109" points="14.7,14.9 -0.07,26.43 -0.25,26.18 "/>
    <polygon id="_112" class="fil110" points="14.7,14.9 -0.22,26.23 -0.39,25.98 "/>
    <polygon id="_113" class="fil111" points="14.7,14.9 -0.35,26.03 -0.53,25.77 "/>
    <polygon id="_114" class="fil112" points="14.7,14.9 -0.49,25.82 -0.66,25.57 "/>
    <polygon id="_115" class="fil113" points="14.7,14.9 -0.63,25.62 -0.79,25.36 "/>
    <polygon id="_116" class="fil114" points="14.7,14.9 -0.76,25.41 -0.92,25.15 "/>
    <polygon id="_117" class="fil115" points="14.7,14.9 -0.89,25.2 -1.05,24.94 "/>
    <polygon id="_118" class="fil116" points="14.7,14.9 -1.01,24.99 -1.17,24.73 "/>
    <polygon id="_119" class="fil117" points="14.7,14.9 -1.14,24.78 -1.29,24.51 "/>
    <polygon id="_120" class="fil118" points="14.7,14.9 -1.26,24.57 -1.41,24.3 "/>
    <polygon id="_121" class="fil119" points="14.7,14.9 -1.38,24.35 -1.53,24.08 "/>
    <polygon id="_122" class="fil120" points="14.7,14.9 -1.5,24.14 -1.64,23.87 "/>
    <polygon id="_123" class="fil121" points="14.7,14.9 -1.61,23.92 -1.75,23.65 "/>
    <polygon id="_124" class="fil122" points="14.7,14.9 -1.73,23.7 -1.86,23.43 "/>
    <polygon id="_125" class="fil123" points="14.7,14.9 -1.84,23.48 -1.97,23.21 "/>
    <polygon id="_126" class="fil124" points="14.7,14.9 -1.94,23.26 -2.08,22.98 "/>
    <polygon id="_127" class="fil125" points="14.7,14.9 -2.05,23.04 -2.18,22.76 "/>
    <polygon id="_128" class="fil126" points="14.7,14.9 -2.15,22.81 -2.28,22.53 "/>
    <polygon id="_129" class="fil127" points="14.7,14.9 -2.25,22.59 -2.37,22.31 "/>
    <polygon id="_130" class="fil128" points="14.7,14.9 -2.35,22.36 -2.47,22.08 "/>
    <polygon id="_131" class="fil129" points="14.7,14.9 -2.44,22.14 -2.56,21.85 "/>
    <polygon id="_132" class="fil130" points="14.7,14.9 -2.54,21.91 -2.65,21.62 "/>
    <polygon id="_133" class="fil131" points="14.7,14.9 -2.63,21.68 -2.73,21.39 "/>
    <polygon id="_134" class="fil132" points="14.7,14.9 -2.71,21.45 -2.82,21.16 "/>
    <polygon id="_135" class="fil133" points="14.7,14.9 -2.8,21.21 -2.9,20.92 "/>
    <polygon id="_136" class="fil134" points="14.7,14.9 -2.88,20.98 -2.98,20.69 "/>
    <polygon id="_137" class="fil135" points="14.7,14.9 -2.96,20.75 -3.05,20.46 "/>
    <polygon id="_138" class="fil136" points="14.7,14.9 -3.03,20.52 -3.13,20.22 "/>
    <polygon id="_139" class="fil137" points="14.7,14.9 -3.11,20.28 -3.2,19.99 "/>
    <polygon id="_140" class="fil138" points="14.7,14.9 -3.18,20.04 -3.26,19.75 "/>
    <polygon id="_141" class="fil139" points="14.7,14.9 -3.25,19.81 -3.33,19.51 "/>
    <polygon id="_142" class="fil140" points="14.7,14.9 -3.31,19.57 -3.39,19.27 "/>
    <polygon id="_143" class="fil141" points="14.7,14.9 -3.37,19.33 -3.45,19.03 "/>
    <polygon id="_144" class="fil142" points="14.7,14.9 -3.43,19.09 -3.51,18.79 "/>
    <polygon id="_145" class="fil143" points="14.7,14.9 -3.49,18.85 -3.56,18.55 "/>
    <polygon id="_146" class="fil144" points="14.7,14.9 -3.55,18.61 -3.61,18.31 "/>
    <polygon id="_147" class="fil145" points="14.7,14.9 -3.6,18.37 -3.66,18.07 "/>
    <polygon id="_148" class="fil146" points="14.7,14.9 -3.65,18.13 -3.7,17.83 "/>
    <polygon id="_149" class="fil147" points="14.7,14.9 -3.69,17.89 -3.75,17.59 "/>
    <polygon id="_150" class="fil148" points="14.7,14.9 -3.74,17.65 -3.79,17.34 "/>
    <polygon id="_151" class="fil149" points="14.7,14.9 -3.78,17.4 -3.82,17.1 "/>
    <polygon id="_152" class="fil150" points="14.7,14.9 -3.81,17.16 -3.86,16.86 "/>
    <polygon id="_153" class="fil151" points="14.7,14.9 -3.85,16.92 -3.89,16.61 "/>
    <polygon id="_154" class="fil152" points="14.7,14.9 -3.88,16.68 -3.92,16.37 "/>
    <polygon id="_155" class="fil153" points="14.7,14.9 -3.91,16.43 -3.94,16.13 "/>
    <polygon id="_156" class="fil154" points="14.7,14.9 -3.94,16.19 -3.97,15.88 "/>
    <polygon id="_157" class="fil155" points="14.7,14.9 -3.96,15.94 -3.99,15.64 "/>
    <polygon id="_158" class="fil156" points="14.7,14.9 -3.98,15.7 -4.01,15.39 "/>
    <polygon id="_159" class="fil157" points="14.7,14.9 -4,15.45 -4.02,15.15 "/>
    <polygon id="_160" class="fil158" points="14.7,14.9 -4.02,15.21 -4.03,14.9 "/>
    <polygon id="_161" class="fil159" points="14.7,14.9 -4.03,14.96 -4.04,14.66 "/>
    <polygon id="_162" class="fil160" points="14.7,14.9 -4.04,14.72 -4.05,14.41 "/>
    <polygon id="_163" class="fil161" points="14.7,14.9 -4.04,14.48 -4.05,14.17 "/>
    <polygon id="_164" class="fil162" points="14.7,14.9 -4.05,14.23 -4.05,13.93 "/>
    <polygon id="_165" class="fil163" points="14.7,14.9 -4.05,13.99 -4.05,13.68 "/>
    <polygon id="_166" class="fil164" points="14.7,14.9 -4.05,13.74 -4.04,13.44 "/>
    <polygon id="_167" class="fil165" points="14.7,14.9 -4.04,13.5 -4.03,13.19 "/>
    <polygon id="_168" class="fil166" points="14.7,14.9 -4.03,13.25 -4.02,12.95 "/>
    <polygon id="_169" class="fil167" points="14.7,14.9 -4.02,13.01 -4.01,12.71 "/>
    <polygon id="_170" class="fil168" points="14.7,14.9 -4.01,12.77 -3.99,12.46 "/>
    <polygon id="_171" class="fil169" points="14.7,14.9 -3.99,12.52 -3.97,12.22 "/>
    <polygon id="_172" class="fil170" points="14.7,14.9 -3.98,12.28 -3.95,11.98 "/>
    <polygon id="_173" class="fil171" points="14.7,14.9 -3.95,12.04 -3.92,11.74 "/>
    <polygon id="_174" class="fil172" points="14.7,14.9 -3.93,11.8 -3.89,11.49 "/>
    <polygon id="_175" class="fil173" points="14.7,14.9 -3.9,11.56 -3.86,11.25 "/>
    <polygon id="_176" class="fil174" points="14.7,14.9 -3.87,11.31 -3.83,11.01 "/>
    <polygon id="_177" class="fil175" points="14.7,14.9 -3.84,11.07 -3.79,10.77 "/>
    <polygon id="_178" class="fil176" points="14.7,14.9 -3.8,10.83 -3.75,10.54 "/>
    <polygon id="_179" class="fil177" points="14.7,14.9 -3.76,10.59 -3.71,10.3 "/>
    <polygon id="_180" class="fil178" points="14.7,14.9 -3.72,10.36 -3.67,10.06 "/>
    <polygon id="_181" class="fil179" points="14.7,14.9 -3.68,10.12 -3.62,9.82 "/>
    <polygon id="_182" class="fil180" points="14.7,14.9 -3.63,9.88 -3.57,9.59 "/>
    <polygon id="_183" class="fil181" points="14.7,14.9 -3.58,9.64 -3.51,9.35 "/>
    <polygon id="_184" class="fil182" points="14.7,14.9 -3.53,9.41 -3.46,9.12 "/>
    <polygon id="_185" class="fil183" points="14.7,14.9 -3.47,9.17 -3.4,8.88 "/>
    <polygon id="_186" class="fil184" points="14.7,14.9 -3.41,8.94 -3.34,8.65 "/>
    <polygon id="_187" class="fil185" points="14.7,14.9 -3.35,8.71 -3.27,8.42 "/>
    <polygon id="_188" class="fil186" points="14.7,14.9 -3.29,8.48 -3.21,8.19 "/>
    <polygon id="_189" class="fil187" points="14.7,14.9 -3.22,8.25 -3.14,7.96 "/>
    <polygon id="_190" class="fil188" points="14.7,14.9 -3.15,8.01 -3.06,7.73 "/>
    <polygon id="_191" class="fil189" points="14.7,14.9 -3.08,7.79 -2.99,7.5 "/>
    <polygon id="_192" class="fil190" points="14.7,14.9 -3.01,7.56 -2.91,7.27 "/>
    <polygon id="_193" class="fil191" points="14.7,14.9 -2.93,7.33 -2.83,7.05 "/>
    <polygon id="_194" class="fil192" points="14.7,14.9 -2.85,7.11 -2.75,6.82 "/>
    <polygon id="_195" class="fil193" points="14.7,14.9 -2.77,6.88 -2.66,6.6 "/>
    <polygon id="_196" class="fil194" points="14.7,14.9 -2.68,6.66 -2.57,6.38 "/>
    <polygon id="_197" class="fil195" points="14.7,14.9 -2.59,6.44 -2.48,6.16 "/>
    <polygon id="_198" class="fil196" points="14.7,14.9 -2.51,6.21 -2.39,5.94 "/>
    <polygon id="_199" class="fil197" points="14.7,14.9 -2.41,6 -2.29,5.72 "/>
    <polygon id="_200" class="fil198" points="14.7,14.9 -2.32,5.78 -2.19,5.51 "/>
    <polygon id="_201" class="fil199" points="14.7,14.9 -2.22,5.56 -2.09,5.29 "/>
    <polygon id="_202" class="fil200" points="14.7,14.9 -2.12,5.35 -1.99,5.08 "/>
    <polygon id="_203" class="fil201" points="14.7,14.9 -2.01,5.13 -1.88,4.87 "/>
    <polygon id="_204" class="fil202" points="14.7,14.9 -1.91,4.92 -1.77,4.66 "/>
    <polygon id="_205" class="fil203" points="14.7,14.9 -1.8,4.71 -1.66,4.45 "/>
    <polygon id="_206" class="fil204" points="14.7,14.9 -1.69,4.5 -1.55,4.24 "/>
    <polygon id="_207" class="fil205" points="14.7,14.9 -1.57,4.29 -1.43,4.03 "/>
    <polygon id="_208" class="fil206" points="14.7,14.9 -1.46,4.09 -1.31,3.83 "/>
    <polygon id="_209" class="fil207" points="14.7,14.9 -1.34,3.88 -1.19,3.63 "/>
    <polygon id="_210" class="fil208" points="14.7,14.9 -1.22,3.68 -1.07,3.43 "/>
    <polygon id="_211" class="fil209" points="14.7,14.9 -1.1,3.48 -0.94,3.23 "/>
    <polygon id="_212" class="fil210" points="14.7,14.9 -0.97,3.28 -0.81,3.03 "/>
    <polygon id="_213" class="fil211" points="14.7,14.9 -0.84,3.08 -0.68,2.84 "/>
    <polygon id="_214" class="fil212" points="14.7,14.9 -0.71,2.89 -0.55,2.64 "/>
    <polygon id="_215" class="fil213" points="14.7,14.9 -0.58,2.69 -0.41,2.45 "/>
    <polygon id="_216" class="fil214" points="14.7,14.9 -0.45,2.5 -0.27,2.26 "/>
    <polygon id="_217" class="fil215" points="14.7,14.9 -0.31,2.31 -0.13,2.07 "/>
    <polygon id="_218" class="fil216" points="14.7,14.9 -0.17,2.12 0.01,1.89 "/>
    <polygon id="_219" class="fil217" points="14.7,14.9 -0.03,1.93 0.15,1.7 "/>
    <polygon id="_220" class="fil218" points="14.7,14.9 0.12,1.75 0.3,1.52 "/>
    <polygon id="_221" class="fil219" points="14.7,14.9 0.26,1.57 0.45,1.34 "/>
    <polygon id="_222" class="fil220" points="14.7,14.9 0.41,1.39 0.6,1.16 "/>
    <polygon id="_223" class="fil221" points="14.7,14.9 0.56,1.21 0.75,0.99 "/>
    <polygon id="_224" class="fil222" points="14.7,14.9 0.72,1.03 0.91,0.81 "/>
    <polygon id="_225" class="fil223" points="14.7,14.9 0.87,0.86 1.07,0.64 "/>
    <polygon id="_226" class="fil224" points="14.7,14.9 1.03,0.69 1.23,0.47 "/>
    <polygon id="_227" class="fil225" points="14.7,14.9 1.19,0.52 1.39,0.31 "/>
    <polygon id="_228" class="fil226" points="14.7,14.9 1.35,0.35 1.55,0.14 "/>
    <polygon id="_229" class="fil227" points="14.7,14.9 1.51,0.18 1.72,-0.02 "/>
    <polygon id="_230" class="fil228" points="14.7,14.9 1.68,0.02 1.89,-0.18 "/>
    <polygon id="_231" class="fil229" points="14.7,14.9 1.84,-0.14 2.06,-0.34 "/>
    <polygon id="_232" class="fil230" points="14.7,14.9 2.01,-0.3 2.23,-0.49 "/>
    <polygon id="_233" class="fil231" points="14.7,14.9 2.18,-0.46 2.4,-0.65 "/>
    <polygon id="_234" class="fil232" points="14.7,14.9 2.36,-0.61 2.57,-0.8 "/>
    <polygon id="_235" class="fil233" points="14.7,14.9 2.53,-0.76 2.75,-0.95 "/>
    <polygon id="_236" class="fil234" points="14.7,14.9 2.71,-0.91 2.93,-1.09 "/>
    <polygon id="_237" class="fil235" points="14.7,14.9 2.89,-1.06 3.11,-1.24 "/>
    <polygon id="_238" class="fil236" points="14.7,14.9 3.07,-1.2 3.29,-1.38 "/>
    <polygon id="_239" class="fil237" points="14.7,14.9 3.25,-1.34 3.48,-1.52 "/>
    <polygon id="_240" class="fil238" points="14.7,14.9 3.43,-1.48 3.66,-1.65 "/>
    <polygon id="_241" class="fil239" points="14.7,14.9 3.62,-1.62 3.85,-1.79 "/>
    <polygon id="_242" class="fil240" points="14.7,14.9 3.8,-1.76 4.04,-1.92 "/>
    <polygon id="_243" class="fil241" points="14.7,14.9 3.99,-1.89 4.23,-2.05 "/>
    <polygon id="_244" class="fil242" points="14.7,14.9 4.18,-2.02 4.42,-2.18 "/>
    <polygon id="_245" class="fil243" points="14.7,14.9 4.38,-2.14 4.62,-2.3 "/>
    <polygon id="_246" class="fil244" points="14.7,14.9 4.57,-2.27 4.81,-2.42 "/>
    <polygon id="_247" class="fil245" points="14.7,14.9 4.76,-2.39 5.01,-2.54 "/>
    <polygon id="_248" class="fil246" points="14.7,14.9 4.96,-2.51 5.21,-2.66 "/>
    <polygon id="_249" class="fil247" points="14.7,14.9 5.16,-2.63 5.41,-2.77 "/>
    <polygon id="_250" class="fil248" points="14.7,14.9 5.36,-2.74 5.61,-2.88 "/>
    <polygon id="_251" class="fil249" points="14.7,14.9 5.56,-2.85 5.81,-2.99 "/>
    <polygon id="_252" class="fil250" points="14.7,14.9 5.76,-2.96 6.02,-3.09 "/>
    <polygon id="_253" class="fil251" points="14.7,14.9 5.97,-3.06 6.22,-3.19 "/>
    <polygon id="_254" class="fil252" points="14.7,14.9 6.17,-3.17 6.43,-3.29 "/>
    <polygon id="_255" class="fil251" points="14.7,14.9 6.38,-3.27 6.64,-3.39 "/>
    <polygon id="_256" class="fil250" points="14.7,14.9 6.58,-3.37 6.85,-3.48 "/>
    <polygon id="_257" class="fil249" points="14.7,14.9 6.79,-3.46 7.06,-3.58 "/>
    <polygon id="_258" class="fil248" points="14.7,14.9 7,-3.55 7.27,-3.66 "/>
    <polygon id="_259" class="fil247" points="14.7,14.9 7.21,-3.64 7.48,-3.75 "/>
    <polygon id="_260" class="fil246" points="14.7,14.9 7.43,-3.73 7.69,-3.83 "/>
    <polygon id="_261" class="fil245" points="14.7,14.9 7.64,-3.81 7.91,-3.91 "/>
    <polygon id="_262" class="fil244" points="14.7,14.9 7.85,-3.89 8.12,-3.99 "/>
    <polygon id="_263" class="fil243" points="14.7,14.9 8.07,-3.97 8.34,-4.06 "/>
    <polygon id="_264" class="fil242" points="14.7,14.9 8.29,-4.05 8.56,-4.14 "/>
    <polygon id="_265" class="fil241" points="14.7,14.9 8.5,-4.12 8.78,-4.2 "/>
    <polygon id="_266" class="fil240" points="14.7,14.9 8.72,-4.19 9,-4.27 "/>
    <polygon id="_267" class="fil239" points="14.7,14.9 8.94,-4.25 9.22,-4.33 "/>
    <polygon id="_268" class="fil238" points="14.7,14.9 9.16,-4.32 9.44,-4.39 "/>
    <polygon id="_269" class="fil237" points="14.7,14.9 9.38,-4.38 9.66,-4.45 "/>
    <polygon id="_270" class="fil236" points="14.7,14.9 9.6,-4.43 9.88,-4.5 "/>
    <polygon id="_271" class="fil235" points="14.7,14.9 9.83,-4.49 10.11,-4.55 "/>
    <polygon id="_272" class="fil234" points="14.7,14.9 10.05,-4.54 10.33,-4.6 "/>
    <polygon id="_273" class="fil233" points="14.7,14.9 10.28,-4.59 10.56,-4.65 "/>
    <polygon id="_274" class="fil232" points="14.7,14.9 10.5,-4.63 10.78,-4.69 "/>
    <polygon id="_275" class="fil231" points="14.7,14.9 10.73,-4.68 11.01,-4.73 "/>
    <polygon id="_276" class="fil230" points="14.7,14.9 10.95,-4.72 11.23,-4.76 "/>
    <polygon id="_277" class="fil229" points="14.7,14.9 11.18,-4.75 11.46,-4.8 "/>
    <polygon id="_278" class="fil228" points="14.7,14.9 11.4,-4.79 11.69,-4.83 "/>
    <polygon id="_279" class="fil227" points="14.7,14.9 11.63,-4.82 11.92,-4.85 "/>
    <polygon id="_280" class="fil226" points="14.7,14.9 11.86,-4.85 12.15,-4.88 "/>
    <polygon id="_281" class="fil225" points="14.7,14.9 12.09,-4.87 12.38,-4.9 "/>
    <polygon id="_282" class="fil224" points="14.7,14.9 12.32,-4.89 12.6,-4.92 "/>
    <polygon id="_283" class="fil223" points="14.7,14.9 12.55,-4.91 12.84,-4.93 "/>
    <polygon id="_284" class="fil222" points="14.7,14.9 12.78,-4.93 13.06,-4.94 "/>
    <polygon id="_285" class="fil221" points="14.7,14.9 13.01,-4.94 13.29,-4.95 "/>
    <polygon id="_286" class="fil220" points="14.7,14.9 13.24,-4.95 13.52,-4.96 "/>
    <polygon id="_287" class="fil219" points="14.7,14.9 13.47,-4.96 13.76,-4.96 "/>
    <polygon id="_288" class="fil218" points="14.7,14.9 13.7,-4.96 13.99,-4.96 "/>
    <polygon id="_289" class="fil217" points="14.7,14.9 13.93,-4.96 14.22,-4.96 "/>
    <polygon id="_290" class="fil216" points="14.7,14.9 14.16,-4.96 14.45,-4.95 "/>
    <polygon id="_291" class="fil215" points="14.7,14.9 14.39,-4.95 14.68,-4.94 "/>
    <polygon id="_292" class="fil214" points="14.7,14.9 14.62,-4.95 14.91,-4.93 "/>
    <polygon id="_293" class="fil213" points="14.7,14.9 14.85,-4.94 15.14,-4.92 "/>
    <polygon id="_294" class="fil212" points="14.7,14.9 15.08,-4.92 15.37,-4.9 "/>
    <polygon id="_295" class="fil211" points="14.7,14.9 15.31,-4.9 15.6,-4.88 "/>
    <polygon id="_296" class="fil210" points="14.7,14.9 15.54,-4.88 15.83,-4.85 "/>
    <polygon id="_297" class="fil209" points="14.7,14.9 15.78,-4.86 16.06,-4.83 "/>
    <polygon id="_298" class="fil208" points="14.7,14.9 16.01,-4.83 16.29,-4.8 "/>
    <polygon id="_299" class="fil207" points="14.7,14.9 16.24,-4.8 16.52,-4.76 "/>
    <polygon id="_300" class="fil206" points="14.7,14.9 16.47,-4.77 16.75,-4.73 "/>
    <polygon id="_301" class="fil205" points="14.7,14.9 16.7,-4.74 16.98,-4.69 "/>
    <polygon id="_302" class="fil204" points="14.7,14.9 16.93,-4.7 17.21,-4.65 "/>
    <polygon id="_303" class="fil203" points="14.7,14.9 17.15,-4.66 17.44,-4.6 "/>
    <polygon id="_304" class="fil202" points="14.7,14.9 17.38,-4.61 17.67,-4.55 "/>
    <polygon id="_305" class="fil201" points="14.7,14.9 17.61,-4.57 17.9,-4.5 "/>
    <polygon id="_306" class="fil200" points="14.7,14.9 17.84,-4.52 18.12,-4.45 "/>
    <polygon id="_307" class="fil199" points="14.7,14.9 18.07,-4.46 18.35,-4.39 "/>
    <polygon id="_308" class="fil198" points="14.7,14.9 18.29,-4.41 18.58,-4.33 "/>
    <polygon id="_309" class="fil197" points="14.7,14.9 18.52,-4.35 18.8,-4.27 "/>
    <polygon id="_310" class="fil196" points="14.7,14.9 18.75,-4.29 19.03,-4.21 "/>
    <polygon id="_311" class="fil195" points="14.7,14.9 18.97,-4.22 19.25,-4.14 "/>
    <polygon id="_312" class="fil194" points="14.7,14.9 19.2,-4.15 19.48,-4.07 "/>
    <polygon id="_313" class="fil193" points="14.7,14.9 19.42,-4.08 19.7,-3.99 "/>
    <polygon id="_314" class="fil192" points="14.7,14.9 19.64,-4.01 19.92,-3.92 "/>
    <polygon id="_315" class="fil191" points="14.7,14.9 19.86,-3.93 20.14,-3.84 "/>
    <polygon id="_316" class="fil190" points="14.7,14.9 20.09,-3.86 20.36,-3.75 "/>
    <polygon id="_317" class="fil189" points="14.7,14.9 20.31,-3.77 20.58,-3.67 "/>
    <polygon id="_318" class="fil188" points="14.7,14.9 20.53,-3.69 20.8,-3.58 "/>
    <polygon id="_319" class="fil187" points="14.7,14.9 20.75,-3.6 21.02,-3.49 "/>
    <polygon id="_320" class="fil186" points="14.7,14.9 20.96,-3.51 21.24,-3.39 "/>
    <polygon id="_321" class="fil185" points="14.7,14.9 21.18,-3.42 21.45,-3.3 "/>
    <polygon id="_322" class="fil184" points="14.7,14.9 21.4,-3.32 21.67,-3.2 "/>
    <polygon id="_323" class="fil183" points="14.7,14.9 21.61,-3.22 21.88,-3.1 "/>
    <polygon id="_324" class="fil182" points="14.7,14.9 21.83,-3.12 22.09,-2.99 "/>
    <polygon id="_325" class="fil181" points="14.7,14.9 22.04,-3.02 22.31,-2.88 "/>
    <polygon id="_326" class="fil180" points="14.7,14.9 22.25,-2.91 22.52,-2.77 "/>
    <polygon id="_327" class="fil179" points="14.7,14.9 22.46,-2.8 22.73,-2.66 "/>
    <polygon id="_328" class="fil178" points="14.7,14.9 22.67,-2.69 22.93,-2.54 "/>
    <polygon id="_329" class="fil177" points="14.7,14.9 22.88,-2.57 23.14,-2.42 "/>
    <polygon id="_330" class="fil176" points="14.7,14.9 23.09,-2.45 23.35,-2.3 "/>
    <polygon id="_331" class="fil175" points="14.7,14.9 23.29,-2.33 23.55,-2.18 "/>
    <polygon id="_332" class="fil174" points="14.7,14.9 23.5,-2.21 23.75,-2.05 "/>
    <polygon id="_333" class="fil173" points="14.7,14.9 23.7,-2.09 23.96,-1.93 "/>
    <polygon id="_334" class="fil172" points="14.7,14.9 23.9,-1.96 24.15,-1.79 "/>
    <polygon id="_335" class="fil171" points="14.7,14.9 24.11,-1.83 24.35,-1.66 "/>
    <polygon id="_336" class="fil170" points="14.7,14.9 24.3,-1.69 24.55,-1.52 "/>
    <polygon id="_337" class="fil169" points="14.7,14.9 24.5,-1.56 24.75,-1.39 "/>
    <polygon id="_338" class="fil168" points="14.7,14.9 24.7,-1.42 24.94,-1.24 "/>
    <polygon id="_339" class="fil167" points="14.7,14.9 24.89,-1.28 25.13,-1.1 "/>
    <polygon id="_340" class="fil166" points="14.7,14.9 25.09,-1.14 25.32,-0.95 "/>
    <polygon id="_341" class="fil165" points="14.7,14.9 25.28,-0.99 25.51,-0.81 "/>
    <polygon id="_342" class="fil164" points="14.7,14.9 25.47,-0.84 25.7,-0.65 "/>
    <polygon id="_343" class="fil163" points="14.7,14.9 25.65,-0.69 25.89,-0.5 "/>
    <polygon id="_344" class="fil162" points="14.7,14.9 25.84,-0.54 26.07,-0.34 "/>
    <polygon id="_345" class="fil161" points="14.7,14.9 26.03,-0.38 26.25,-0.19 "/>
    <polygon id="_346" class="fil160" points="14.7,14.9 26.21,-0.23 26.44,-0.03 "/>
    <polygon id="_347" class="fil159" points="14.7,14.9 26.39,-0.07 26.61,0.14 "/>
    <polygon id="_348" class="fil158" points="14.7,14.9 26.57,0.1 26.79,0.3 "/>
    <polygon id="_349" class="fil157" points="14.7,14.9 26.75,0.26 26.97,0.47 "/>
    <polygon id="_350" class="fil156" points="14.7,14.9 26.92,0.43 27.14,0.64 "/>
    <polygon id="_351" class="fil155" points="14.7,14.9 27.1,0.6 27.31,0.81 "/>
    <polygon id="_352" class="fil154" points="14.7,14.9 27.27,0.77 27.48,0.98 "/>
    <polygon id="_353" class="fil153" points="14.7,14.9 27.44,0.94 27.65,1.16 "/>
    <polygon id="_354" class="fil152" points="14.7,14.9 27.61,1.11 27.82,1.33 "/>
    <polygon id="_355" class="fil151" points="14.7,14.9 27.78,1.29 27.98,1.52 "/>
    <polygon id="_356" class="fil150" points="14.7,14.9 27.94,1.47 28.14,1.7 "/>
    <polygon id="_357" class="fil149" points="14.7,14.9 28.1,1.65 28.3,1.88 "/>
    <polygon id="_358" class="fil148" points="14.7,14.9 28.26,1.83 28.46,2.07 "/>
    <polygon id="_359" class="fil147" points="14.7,14.9 28.42,2.02 28.62,2.25 "/>
    <polygon id="_360" class="fil146" points="14.7,14.9 28.58,2.21 28.77,2.44 "/>
    <polygon id="_361" class="fil145" points="14.7,14.9 28.73,2.4 28.92,2.64 "/>
    <polygon id="_362" class="fil144" points="14.7,14.9 28.88,2.59 29.07,2.83 "/>
    <polygon id="_363" class="fil143" points="14.7,14.9 29.03,2.78 29.22,3.02 "/>
    <polygon id="_364" class="fil142" points="14.7,14.9 29.18,2.98 29.36,3.22 "/>
    <polygon id="_365" class="fil141" points="14.7,14.9 29.33,3.17 29.51,3.42 "/>
    <polygon id="_366" class="fil140" points="14.7,14.9 29.47,3.37 29.65,3.62 "/>
    <polygon id="_367" class="fil139" points="14.7,14.9 29.61,3.57 29.79,3.82 "/>
    <polygon id="_368" class="fil138" points="14.7,14.9 29.75,3.77 29.92,4.03 "/>
    <polygon id="_369" class="fil137" points="14.7,14.9 29.89,3.98 30.05,4.23 "/>
    <polygon id="_370" class="fil136" points="14.7,14.9 30.02,4.18 30.19,4.44 "/>
    <polygon id="_371" class="fil135" points="14.7,14.9 30.15,4.39 30.31,4.65 "/>
    <polygon id="_372" class="fil134" points="14.7,14.9 30.28,4.6 30.44,4.86 "/>
    <polygon id="_373" class="fil133" points="14.7,14.9 30.41,4.81 30.57,5.07 "/>
    <polygon id="_374" class="fil132" points="14.7,14.9 30.53,5.02 30.69,5.28 "/>
    <polygon id="_375" class="fil131" points="14.7,14.9 30.66,5.23 30.81,5.5 "/>
    <polygon id="_376" class="fil130" points="14.7,14.9 30.78,5.44 30.92,5.72 "/>
    <polygon id="_377" class="fil129" points="14.7,14.9 30.89,5.66 31.04,5.93 "/>
    <polygon id="_378" class="fil128" points="14.7,14.9 31.01,5.88 31.15,6.15 "/>
    <polygon id="_379" class="fil127" points="14.7,14.9 31.12,6.1 31.26,6.37 "/>
    <polygon id="_380" class="fil126" points="14.7,14.9 31.23,6.32 31.37,6.59 "/>
    <polygon id="_381" class="fil125" points="14.7,14.9 31.34,6.54 31.47,6.82 "/>
    <polygon id="_382" class="fil124" points="14.7,14.9 31.44,6.76 31.57,7.04 "/>
    <polygon id="_383" class="fil123" points="14.7,14.9 31.55,6.99 31.67,7.27 "/>
    <polygon id="_384" class="fil122" points="14.7,14.9 31.65,7.21 31.77,7.49 "/>
    <polygon id="_385" class="fil121" points="14.7,14.9 31.74,7.44 31.86,7.72 "/>
    <polygon id="_386" class="fil120" points="14.7,14.9 31.84,7.66 31.95,7.95 "/>
    <polygon id="_387" class="fil119" points="14.7,14.9 31.93,7.89 32.04,8.18 "/>
    <polygon id="_388" class="fil118" points="14.7,14.9 32.02,8.12 32.13,8.41 "/>
    <polygon id="_389" class="fil117" points="14.7,14.9 32.11,8.35 32.21,8.64 "/>
    <polygon id="_390" class="fil116" points="14.7,14.9 32.19,8.58 32.29,8.87 "/>
    <polygon id="_391" class="fil115" points="14.7,14.9 32.27,8.82 32.37,9.11 "/>
    <polygon id="_392" class="fil114" points="14.7,14.9 32.35,9.05 32.45,9.34 "/>
    <polygon id="_393" class="fil113" points="14.7,14.9 32.43,9.28 32.52,9.58 "/>
    <polygon id="_394" class="fil112" points="14.7,14.9 32.5,9.52 32.59,9.81 "/>
    <polygon id="_395" class="fil111" points="14.7,14.9 32.57,9.75 32.66,10.05 "/>
    <polygon id="_396" class="fil110" points="14.7,14.9 32.64,9.99 32.72,10.29 "/>
    <polygon id="_397" class="fil109" points="14.7,14.9 32.71,10.23 32.79,10.53 "/>
    <polygon id="_398" class="fil108" points="14.7,14.9 32.77,10.47 32.85,10.77 "/>
    <polygon id="_399" class="fil107" points="14.7,14.9 32.83,10.71 32.9,11.01 "/>
    <polygon id="_400" class="fil106" points="14.7,14.9 32.89,10.95 32.96,11.25 "/>
    <polygon id="_401" class="fil105" points="14.7,14.9 32.94,11.19 33.01,11.49 "/>
    <polygon id="_402" class="fil104" points="14.7,14.9 32.99,11.43 33.05,11.73 "/>
    <polygon id="_403" class="fil103" points="14.7,14.9 33.04,11.67 33.1,11.97 "/>
    <polygon id="_404" class="fil102" points="14.7,14.9 33.09,11.91 33.14,12.21 "/>
    <polygon id="_405" class="fil101" points="14.7,14.9 33.13,12.15 33.18,12.45 "/>
    <polygon id="_406" class="fil100" points="14.7,14.9 33.17,12.39 33.22,12.7 "/>
    <polygon id="_407" class="fil99" points="14.7,14.9 33.21,12.64 33.25,12.94 "/>
    <polygon id="_408" class="fil98" points="14.7,14.9 33.24,12.88 33.28,13.18 "/>
    <polygon id="_409" class="fil97" points="14.7,14.9 33.28,13.12 33.31,13.43 "/>
    <polygon id="_410" class="fil96" points="14.7,14.9 33.31,13.37 33.34,13.67 "/>
    <polygon id="_411" class="fil95" points="14.7,14.9 33.33,13.61 33.36,13.92 "/>
    <polygon id="_412" class="fil94" points="14.7,14.9 33.36,13.86 33.38,14.16 "/>
    <polygon id="_413" class="fil93" points="14.7,14.9 33.38,14.1 33.4,14.41 "/>
    <polygon id="_414" class="fil92" points="14.7,14.9 33.4,14.34 33.41,14.65 "/>
    <polygon id="_415" class="fil91" points="14.7,14.9 33.41,14.59 33.43,14.89 "/>
    <polygon id="_416" class="fil90" points="14.7,14.9 33.42,14.83 33.43,15.14 "/>
    <polygon id="_417" class="fil89" points="14.7,14.9 33.43,15.08 33.44,15.38 "/>
    <polygon id="_418" class="fil88" points="14.7,14.9 33.44,15.32 33.44,15.63 "/>
    <polygon id="_419" class="fil87" points="14.7,14.9 33.44,15.57 33.44,15.87 "/>
    <polygon id="_420" class="fil86" points="14.7,14.9 33.44,15.81 33.44,16.12 "/>
    <polygon id="_421" class="fil85" points="14.7,14.9 33.44,16.06 33.44,16.36 "/>
    <polygon id="_422" class="fil84" points="14.7,14.9 33.44,16.3 33.43,16.61 "/>
    <polygon id="_423" class="fil83" points="14.7,14.9 33.43,16.54 33.42,16.85 "/>
    <polygon id="_424" class="fil82" points="14.7,14.9 33.42,16.79 33.4,17.09 "/>
    <polygon id="_425" class="fil81" points="14.7,14.9 33.41,17.03 33.39,17.34 "/>
    <polygon id="_426" class="fil80" points="14.7,14.9 33.39,17.27 33.37,17.58 "/>
    <polygon id="_427" class="fil79" points="14.7,14.9 33.37,17.52 33.34,17.82 "/>
    <polygon id="_428" class="fil78" points="14.7,14.9 33.35,17.76 33.32,18.06 "/>
    <polygon id="_429" class="fil77" points="14.7,14.9 33.32,18 33.29,18.3 "/>
    <polygon id="_430" class="fil76" points="14.7,14.9 33.3,18.24 33.26,18.54 "/>
    <polygon id="_431" class="fil75" points="14.7,14.9 33.27,18.48 33.23,18.78 "/>
    <polygon id="_432" class="fil74" points="14.7,14.9 33.23,18.73 33.19,19.02 "/>
    <polygon id="_433" class="fil73" points="14.7,14.9 33.2,18.96 33.15,19.26 "/>
    <polygon id="_434" class="fil72" points="14.7,14.9 33.16,19.2 33.11,19.5 "/>
    <polygon id="_435" class="fil71" points="14.7,14.9 33.12,19.44 33.06,19.74 "/>
    <polygon id="_436" class="fil70" points="14.7,14.9 33.07,19.68 33.01,19.98 "/>
    <polygon id="_437" class="fil69" points="14.7,14.9 33.03,19.92 32.96,20.21 "/>
    <polygon id="_438" class="fil68" points="14.7,14.9 32.98,20.15 32.91,20.45 "/>
    <polygon id="_439" class="fil67" points="14.7,14.9 32.92,20.39 32.85,20.68 "/>
    <polygon id="_440" class="fil66" points="14.7,14.9 32.87,20.62 32.8,20.92 "/>
    <polygon id="_441" class="fil65" points="14.7,14.9 32.81,20.86 32.73,21.15 "/>
    <polygon id="_442" class="fil64" points="14.7,14.9 32.75,21.09 32.67,21.38 "/>
    <polygon id="_443" class="fil63" points="14.7,14.9 32.68,21.32 32.6,21.61 "/>
    <polygon id="_444" class="fil62" points="14.7,14.9 32.62,21.55 32.53,21.84 "/>
    <polygon id="_445" class="fil61" points="14.7,14.9 32.55,21.78 32.46,22.07 "/>
    <polygon id="_446" class="fil60" points="14.7,14.9 32.48,22.01 32.38,22.3 "/>
    <polygon id="_447" class="fil59" points="14.7,14.9 32.4,22.24 32.31,22.52 "/>
    <polygon id="_448" class="fil59" points="14.7,14.9 32.33,22.47 32.23,22.75 "/>
    <polygon id="_449" class="fil58" points="14.7,14.9 32.25,22.69 32.14,22.97 "/>
    <polygon id="_450" class="fil57" points="14.7,14.9 32.16,22.92 32.06,23.2 "/>
    <polygon id="_451" class="fil57" points="14.7,14.9 32.08,23.14 31.97,23.42 "/>
    <polygon id="_452" class="fil56" points="14.7,14.9 31.99,23.36 31.88,23.64 "/>
    <polygon id="_453" class="fil55" points="14.7,14.9 31.9,23.58 31.78,23.86 "/>
    <polygon id="_454" class="fil54" points="14.7,14.9 31.81,23.8 31.69,24.08 "/>
    <polygon id="_455" class="fil53" points="14.7,14.9 31.71,24.02 31.59,24.29 "/>
    <polygon id="_456" class="fil52" points="14.7,14.9 31.61,24.24 31.49,24.51 "/>
    <polygon id="_457" class="fil51" points="14.7,14.9 31.51,24.45 31.38,24.72 "/>
    <polygon id="_458" class="fil50" points="14.7,14.9 31.41,24.67 31.28,24.93 "/>
    <polygon id="_459" class="fil49" points="14.7,14.9 31.3,24.88 31.17,25.14 "/>
    <polygon id="_460" class="fil48" points="14.7,14.9 31.19,25.09 31.06,25.35 "/>
    <polygon id="_461" class="fil47" points="14.7,14.9 31.08,25.3 30.94,25.56 "/>
    <polygon id="_462" class="fil46" points="14.7,14.9 30.97,25.51 30.83,25.76 "/>
    <polygon id="_463" class="fil45" points="14.7,14.9 30.85,25.71 30.71,25.97 "/>
    <polygon id="_464" class="fil44" points="14.7,14.9 30.74,25.92 30.58,26.17 "/>
    <polygon id="_465" class="fil43" points="14.7,14.9 30.62,26.12 30.46,26.37 "/>
    <polygon id="_466" class="fil42" points="14.7,14.9 30.49,26.32 30.34,26.57 "/>
    <polygon id="_467" class="fil41" points="14.7,14.9 30.37,26.52 30.21,26.77 "/>
    <polygon id="_468" class="fil40" points="14.7,14.9 30.24,26.72 30.08,26.96 "/>
    <polygon id="_469" class="fil39" points="14.7,14.9 30.11,26.91 29.94,27.16 "/>
    <polygon id="_470" class="fil38" points="14.7,14.9 29.98,27.11 29.81,27.35 "/>
    <polygon id="_471" class="fil37" points="14.7,14.9 29.84,27.3 29.67,27.54 "/>
    <polygon id="_472" class="fil36" points="14.7,14.9 29.7,27.49 29.53,27.73 "/>
    <polygon id="_473" class="fil35" points="14.7,14.9 29.56,27.68 29.39,27.91 "/>
    <polygon id="_474" class="fil34" points="14.7,14.9 29.42,27.86 29.24,28.09 "/>
    <polygon id="_475" class="fil33" points="14.7,14.9 29.28,28.05 29.1,28.28 "/>
    <polygon id="_476" class="fil32" points="14.7,14.9 29.13,28.23 28.95,28.46 "/>
    <polygon id="_477" class="fil31" points="14.7,14.9 28.98,28.41 28.79,28.63 "/>
    <polygon id="_478" class="fil30" points="14.7,14.9 28.83,28.59 28.64,28.81 "/>
    <polygon id="_479" class="fil29" points="14.7,14.9 28.68,28.77 28.49,28.98 "/>
    <polygon id="_480" class="fil28" points="14.7,14.9 28.52,28.94 28.33,29.16 "/>
    <polygon id="_481" class="fil27" points="14.7,14.9 28.37,29.11 28.17,29.32 "/>
    <polygon id="_482" class="fil26" points="14.7,14.9 28.21,29.28 28.01,29.49 "/>
    <polygon id="_483" class="fil25" points="14.7,14.9 28.05,29.45 27.84,29.66 "/>
    <polygon id="_484" class="fil24" points="14.7,14.9 27.88,29.61 27.68,29.82 "/>
    <polygon id="_485" class="fil23" points="14.7,14.9 27.72,29.78 27.51,29.98 "/>
    <polygon id="_486" class="fil22" points="14.7,14.9 27.55,29.94 27.34,30.14 "/>
    <polygon id="_487" class="fil21" points="14.7,14.9 27.38,30.1 27.17,30.29 "/>
    <polygon id="_488" class="fil20" points="14.7,14.9 27.21,30.26 27,30.45 "/>
    <polygon id="_489" class="fil19" points="14.7,14.9 27.04,30.41 26.82,30.6 "/>
    <polygon id="_490" class="fil18" points="14.7,14.9 26.86,30.56 26.64,30.75 "/>
    <polygon id="_491" class="fil17" points="14.7,14.9 26.69,30.71 26.46,30.89 "/>
    <polygon id="_492" class="fil16" points="14.7,14.9 26.51,30.86 26.28,31.04 "/>
    <polygon id="_493" class="fil15" points="14.7,14.9 26.33,31 26.1,31.18 "/>
    <polygon id="_494" class="fil14" points="14.7,14.9 26.15,31.14 25.92,31.32 "/>
    <polygon id="_495" class="fil13" points="14.7,14.9 25.96,31.28 25.73,31.45 "/>
    <polygon id="_496" class="fil12" points="14.7,14.9 25.78,31.42 25.54,31.59 "/>
    <polygon id="_497" class="fil11" points="14.7,14.9 25.59,31.55 25.35,31.72 "/>
    <polygon id="_498" class="fil10" points="14.7,14.9 25.4,31.69 25.16,31.85 "/>
    <polygon id="_499" class="fil9" points="14.7,14.9 25.21,31.82 24.97,31.97 "/>
    <polygon id="_500" class="fil8" points="14.7,14.9 25.02,31.94 24.78,32.1 "/>
    <polygon id="_501" class="fil7" points="14.7,14.9 24.83,32.07 24.58,32.22 "/>
    <polygon id="_502" class="fil6" points="14.7,14.9 24.63,32.19 24.39,32.34 "/>
    <polygon id="_503" class="fil5" points="14.7,14.9 24.43,32.31 24.19,32.45 "/>
    <polygon id="_504" class="fil4" points="14.7,14.9 24.24,32.42 23.99,32.57 "/>
    <polygon id="_505" class="fil3" points="14.7,14.9 24.04,32.54 23.79,32.68 "/>
    <polygon id="_506" class="fil2" points="14.7,14.9 23.84,32.65 23.58,32.79 "/>
    <polygon id="_507" class="fil1" points="14.7,14.9 23.63,32.76 23.38,32.89 "/>
    <polygon id="_508" class="fil0" points="14.7,14.9 23.43,32.86 23.17,32.99 "/>
    <polygon id="_509" class="fil253" points="14.7,14.9 23.23,32.97 23.02,33.07 "/>
   </g>
  </g>
 </g>
</svg>
