<?xml version="1.0" encoding="UTF-8"?>
<!DOCTYPE svg PUBLIC "-//W3C//DTD SVG 1.1//EN" "http://www.w3.org/Graphics/SVG/1.1/DTD/svg11.dtd">
<!-- Creator: CorelDRAW (Versión de evaluación) -->
<svg xmlns="http://www.w3.org/2000/svg" xml:space="preserve" width="30px" height="30px" version="1.1" style="shape-rendering:geometricPrecision; text-rendering:geometricPrecision; image-rendering:optimizeQuality; fill-rule:evenodd; clip-rule:evenodd"
viewBox="0 0 30 30"
 xmlns:xlink="http://www.w3.org/1999/xlink"
 xmlns:xodm="http://www.corel.com/coreldraw/odm/2003">
 <defs>
  <style type="text/css">
   <![CDATA[
    .fil0 {fill:#191827;fill-rule:nonzero}
    .fil1 {fill:white;fill-rule:nonzero}
   ]]>
  </style>
 </defs>
 <g id="Capa_x0020_1">
  <metadata id="CorelCorpID_0Corel-Layer"/>
  <path class="fil0" d="M3.85 0.1l22.32 0c2.05,0 3.72,1.67 3.72,3.72l0 22.32c0,2.05 -1.67,3.72 -3.72,3.72l-22.32 0c-2.05,0 -3.72,-1.67 -3.72,-3.72l0 -22.32c0,-2.05 1.67,-3.72 3.72,-3.72z"/>
  <path class="fil1" d="M19.56 24.28l-9.9 0 1.98 -8.28c0.06,-0.24 0,-0.34 -0.19,-0.47 -1.57,-1.1 -2.41,-2.63 -2.38,-4.52 0.06,-2.79 2.06,-4.74 4.44,-5.24 2.05,-0.42 4.85,0.66 5.94,3.17 0.98,2.29 0.28,4.95 -1.75,6.46 -0.19,0.14 -0.22,0.25 -0.17,0.47l2.03 8.41z"/>
 </g>
</svg>
