<?xml version="1.0" encoding="UTF-8"?>
<!DOCTYPE svg PUBLIC "-//W3C//DTD SVG 1.1//EN" "http://www.w3.org/Graphics/SVG/1.1/DTD/svg11.dtd">
<!-- Creator: CorelDRAW -->
<svg xmlns="http://www.w3.org/2000/svg" xml:space="preserve" width="254mm" height="254mm" version="1.1" style="shape-rendering:geometricPrecision; text-rendering:geometricPrecision; image-rendering:optimizeQuality; fill-rule:evenodd; clip-rule:evenodd"
viewBox="0 0 25400 25400"
 xmlns:xlink="http://www.w3.org/1999/xlink"
 xmlns:xodm="http://www.corel.com/coreldraw/odm/2003">
 <defs>
  <style type="text/css">
   <![CDATA[
    .fil38 {fill:#F79533}
    .fil40 {fill:#F69933}
    .fil39 {fill:#F69733}
    .fil27 {fill:#EB268F}
    .fil44 {fill:#F69F33}
    .fil43 {fill:#F69E33}
    .fil42 {fill:#F69C33}
    .fil41 {fill:#F59A33}
    .fil50 {fill:#F6A532}
    .fil49 {fill:#F6A432}
    .fil48 {fill:#F5A332}
    .fil47 {fill:#F5A232}
    .fil46 {fill:#F5A133}
    .fil45 {fill:#F5A033}
    .fil26 {fill:#E9278B}
    .fil57 {fill:#F5A932}
    .fil56 {fill:#F5A932}
    .fil55 {fill:#F5A832}
    .fil54 {fill:#F5A732}
    .fil53 {fill:#F5A732}
    .fil52 {fill:#F5A632}
    .fil51 {fill:#F5A532}
    .fil83 {fill:#FBD926}
    .fil65 {fill:#F5AF31}
    .fil64 {fill:#F5AE31}
    .fil63 {fill:#F5AD31}
    .fil62 {fill:#F5AD32}
    .fil61 {fill:#F5AC32}
    .fil60 {fill:#F5AB32}
    .fil59 {fill:#F5AB32}
    .fil58 {fill:#F5AA32}
    .fil25 {fill:#E62888}
    .fil82 {fill:#F9D428}
    .fil71 {fill:#F5B531}
    .fil70 {fill:#F5B331}
    .fil69 {fill:#F5B231}
    .fil68 {fill:#F5B131}
    .fil67 {fill:#F5B031}
    .fil66 {fill:#F5AF31}
    .fil24 {fill:#E52987}
    .fil81 {fill:#F8D02A}
    .fil80 {fill:#F8CD2B}
    .fil74 {fill:#F5B930}
    .fil73 {fill:#F5B730}
    .fil72 {fill:#F5B531}
    .fil37 {fill:#ED8F35}
    .fil23 {fill:#E52986}
    .fil79 {fill:#F6C72D}
    .fil77 {fill:#F5BE2F}
    .fil76 {fill:#F5BC30}
    .fil75 {fill:#F5BA30}
    .fil22 {fill:#E32984}
    .fil78 {fill:#F5C12F}
    .fil21 {fill:#E22A83}
    .fil20 {fill:#E22A82}
    .fil19 {fill:#E12A81}
    .fil18 {fill:#E12A81}
    .fil17 {fill:#E12A80}
    .fil16 {fill:#E12A80}
    .fil15 {fill:#DF2B7F}
    .fil14 {fill:#DF2B7E}
    .fil13 {fill:#DE2B7E}
    .fil12 {fill:#DE2B7D}
    .fil11 {fill:#DE2B7C}
    .fil10 {fill:#DE2C7C}
    .fil9 {fill:#DD2C7B}
    .fil8 {fill:#DC2C79}
    .fil7 {fill:#DB2C78}
    .fil28 {fill:#DA507A}
    .fil6 {fill:#DA2D76}
    .fil5 {fill:#D82D74}
    .fil84 {fill:#E4CC2D}
    .fil36 {fill:#DD8A37}
    .fil4 {fill:#D62E71}
    .fil29 {fill:#D25D70}
    .fil3 {fill:#D2306B}
    .fil35 {fill:#D78838}
    .fil2 {fill:#D03168}
    .fil1 {fill:#CF3166}
    .fil30 {fill:#CE6468}
    .fil0 {fill:#CD3263}
    .fil34 {fill:#D18638}
    .fil31 {fill:#C86D5E}
    .fil33 {fill:#C88339}
    .fil32 {fill:#BC7A41}
    .fil85 {fill:#B6AA38}
    .fil251 {fill:#B357A0}
    .fil86 {fill:#9D993A}
    .fil250 {fill:#AF539E}
    .fil249 {fill:#AB509D}
    .fil248 {fill:#A94F9C}
    .fil247 {fill:#A84D9C}
    .fil87 {fill:#8E8E3B}
    .fil246 {fill:#A64C9B}
    .fil245 {fill:#A44A9A}
    .fil244 {fill:#A24899}
    .fil88 {fill:#82863B}
    .fil243 {fill:#9E4598}
    .fil200 {fill:#82D2E8}
    .fil242 {fill:#984096}
    .fil89 {fill:#757D3B}
    .fil241 {fill:#933D8F}
    .fil202 {fill:#749AAB}
    .fil199 {fill:#78CFE4}
    .fil240 {fill:#8F3C8A}
    .fil239 {fill:#8D3B86}
    .fil238 {fill:#8A3A83}
    .fil237 {fill:#883981}
    .fil198 {fill:#73CDE2}
    .fil236 {fill:#87397E}
    .fil235 {fill:#85387D}
    .fil234 {fill:#84377B}
    .fil233 {fill:#833779}
    .fil232 {fill:#823778}
    .fil231 {fill:#813777}
    .fil230 {fill:#803776}
    .fil229 {fill:#7F3675}
    .fil228 {fill:#7F3674}
    .fil227 {fill:#7E3573}
    .fil226 {fill:#7D3572}
    .fil225 {fill:#7C3571}
    .fil224 {fill:#7B3570}
    .fil197 {fill:#69CBE0}
    .fil203 {fill:#647F8D}
    .fil223 {fill:#79346E}
    .fil222 {fill:#78346D}
    .fil221 {fill:#76336B}
    .fil220 {fill:#743368}
    .fil219 {fill:#713266}
    .fil218 {fill:#6F3163}
    .fil90 {fill:#62703A}
    .fil217 {fill:#6B315F}
    .fil204 {fill:#5A6F7B}
    .fil216 {fill:#623158}
    .fil196 {fill:#53C6DA}
    .fil205 {fill:#546470}
    .fil195 {fill:#4EC0D6}
    .fil140 {fill:#6AB850}
    .fil139 {fill:#6AB456}
    .fil206 {fill:#4D5A65}
    .fil194 {fill:#4CBBD3}
    .fil138 {fill:#67B05B}
    .fil215 {fill:#55324F}
    .fil137 {fill:#66AD5D}
    .fil193 {fill:#4AB8D1}
    .fil136 {fill:#64AA5F}
    .fil192 {fill:#47B5D0}
    .fil135 {fill:#60A367}
    .fil214 {fill:#4D324B}
    .fil191 {fill:#46B2CF}
    .fil134 {fill:#5DA169}
    .fil207 {fill:#434C56}
    .fil190 {fill:#45B0CD}
    .fil133 {fill:#5AA268}
    .fil189 {fill:#45AECC}
    .fil132 {fill:#59A266}
    .fil213 {fill:#483248}
    .fil141 {fill:#59A653}
    .fil188 {fill:#43ACCB}
    .fil131 {fill:#57A365}
    .fil187 {fill:#42AACA}
    .fil130 {fill:#56A464}
    .fil129 {fill:#55A564}
    .fil186 {fill:#40A9C9}
    .fil212 {fill:#443145}
    .fil127 {fill:#54A662}
    .fil128 {fill:#53A562}
    .fil185 {fill:#40A7C8}
    .fil91 {fill:#475D38}
    .fil126 {fill:#52A661}
    .fil184 {fill:#3FA6C8}
    .fil124 {fill:#51A760}
    .fil125 {fill:#52A761}
    .fil183 {fill:#3EA5C7}
    .fil123 {fill:#50A760}
    .fil122 {fill:#50A75F}
    .fil182 {fill:#3DA4C6}
    .fil211 {fill:#403142}
    .fil120 {fill:#4FA85F}
    .fil121 {fill:#4FA85F}
    .fil181 {fill:#3DA3C5}
    .fil118 {fill:#4DA95E}
    .fil117 {fill:#4DA95E}
    .fil119 {fill:#4DA85F}
    .fil180 {fill:#3CA2C5}
    .fil179 {fill:#3DA1C4}
    .fil115 {fill:#4CA95E}
    .fil116 {fill:#4CA95E}
    .fil142 {fill:#4D9C55}
    .fil178 {fill:#3CA0C4}
    .fil113 {fill:#4AA95D}
    .fil112 {fill:#4AA95C}
    .fil114 {fill:#4AA95D}
    .fil177 {fill:#3BA0C4}
    .fil110 {fill:#48AB5C}
    .fil111 {fill:#49AA5C}
    .fil176 {fill:#3A9FC4}
    .fil175 {fill:#3B9EC3}
    .fil109 {fill:#47AA5B}
    .fil174 {fill:#3A9DC3}
    .fil208 {fill:#373B43}
    .fil107 {fill:#45AB5A}
    .fil108 {fill:#46AB5B}
    .fil173 {fill:#3A9CC2}
    .fil210 {fill:#3A303D}
    .fil106 {fill:#44AC59}
    .fil172 {fill:#399BC2}
    .fil105 {fill:#42AC59}
    .fil171 {fill:#389AC1}
    .fil170 {fill:#3999C0}
    .fil104 {fill:#40AD58}
    .fil143 {fill:#459556}
    .fil103 {fill:#3DAE57}
    .fil169 {fill:#3798BF}
    .fil102 {fill:#3BAF57}
    .fil168 {fill:#3697BF}
    .fil167 {fill:#3695BE}
    .fil101 {fill:#36AF56}
    .fil166 {fill:#3594BD}
    .fil100 {fill:#31B155}
    .fil144 {fill:#3F9057}
    .fil165 {fill:#3392BC}
    .fil98 {fill:#3A984D}
    .fil97 {fill:#3D8B49}
    .fil96 {fill:#3D8346}
    .fil95 {fill:#3E7E45}
    .fil94 {fill:#3D7743}
    .fil93 {fill:#3D6F40}
    .fil92 {fill:#3C613B}
    .fil164 {fill:#3190BB}
    .fil145 {fill:#3A8C57}
    .fil163 {fill:#328EB9}
    .fil209 {fill:#312E36}
    .fil162 {fill:#328CB8}
    .fil146 {fill:#358958}
    .fil161 {fill:#308AB6}
    .fil160 {fill:#3087B5}
    .fil147 {fill:#2F8458}
    .fil159 {fill:#2E84B3}
    .fil158 {fill:#2881B1}
    .fil148 {fill:#267E58}
    .fil157 {fill:#257B9F}
    .fil156 {fill:#1D7890}
    .fil149 {fill:#1A7559}
    .fil155 {fill:#1A7687}
    .fil154 {fill:#177481}
    .fil153 {fill:#15737C}
    .fil152 {fill:#157175}
    .fil151 {fill:#106E6A}
    .fil150 {fill:#086958}
    .fil99 {fill:#1DBC08}
    .fil254 {fill:#373435}
    .fil201 {fill:#87EAFD}
    .fil253 {fill:#C90857}
    .fil252 {fill:#EA46E3}
   ]]>
  </style>
    <clipPath id="id0">
     <path d="M14489.38 2524.16c0,408.44 97.69,402.88 -424.34,94.22l-1133.84 -655.29c-81.43,-45.48 -159.69,-85.69 -231.2,-133.57l-1586.29 915.02c-237.06,131.87 -203.09,208.8 -203.09,-220.38 0,-449.02 255.43,-904.52 542.73,-1194.06 217.45,-219.13 536.86,-381.79 846.66,-456.11 51.82,-12.43 136.34,-29.07 192.71,-33.11 228.55,-16.39 342.2,-27.84 593.34,29.66 122.78,28.13 229.16,65.36 328.94,105.32 589.81,236.31 1074.38,920.56 1074.38,1548.3zm-1906.68 -2222.83l277.6 0c289.82,18 581.06,92.5 858.95,231.49 857.76,429.01 1396.45,1301.01 1288.48,2370.56 -7.28,72.07 -31.92,163.93 -31.92,245.95 109.79,58.07 204.86,113.01 311.82,174.55l2751.74 1590.8c572.12,311.57 1267.51,756.67 1818.16,1047.91 53.07,-79.22 210.43,-187.54 295.09,-243.36 635.8,-419.23 1554.23,-519.28 2253.13,-167.85 509.32,256.12 862.42,600.48 1117.47,1105.78 177.59,351.82 225.78,693.41 225.78,1111.49 0,513.75 -279.9,1093.1 -525.64,1367.43 -254.07,283.63 -457.53,450.99 -800.44,623.88 -138.74,69.96 -306.96,94.66 -306.96,162.05l0 5557.06c0,64.66 98.94,75.7 149.9,93.28 275.51,95.1 512.08,266.97 730.98,450.18 397,332.25 752.16,991.62 752.16,1609.9 0,267.36 -14.98,460.46 -79.7,719.17 -38.52,153.98 -87.63,276.22 -151.91,403.86 -65.83,130.76 -123.8,236.51 -207.48,348.29l-260.16 295.66c-642.22,642.03 -1718.72,860.04 -2561.12,467.54 -126.25,-58.84 -234.64,-117.61 -346.41,-192.08 -87,-57.95 -232.85,-159 -284.69,-236.38l-618.08 354.65c-813.06,477.75 -1620.56,952.8 -2444.89,1411.29l-603.57 351.78c-404.17,232.61 -802.76,477.39 -1215.18,695.54 0,172.52 52.13,348.1 52.13,538.33 0,681.57 -319.06,1266.47 -664.5,1610.7 -202.21,201.47 -390.8,340.09 -655.74,473.28 -605.25,304.27 -1422.97,296.31 -2026.95,-5.8 -752.48,-376.36 -1308.69,-1127.77 -1308.69,-2095.53 0,-179.21 52.13,-342.16 52.13,-520.98 -109.79,-58.08 -204.86,-113.01 -311.82,-174.56l-2751.74 -1590.8c-572.12,-311.57 -1267.51,-756.66 -1818.16,-1047.9 -53.07,79.22 -210.43,187.54 -295.09,243.36 -635.8,419.23 -1554.23,519.27 -2253.13,167.84 -509.32,-256.12 -862.42,-600.47 -1117.47,-1105.78 -177.59,-351.82 -225.78,-693.4 -225.78,-1111.48 0,-764.81 465.69,-1429.9 1024.85,-1823.55 253.8,-178.68 420.26,-197.72 559.94,-273.85 36.06,-19.65 48.25,-3.28 48.25,-55.96l0 -5557.06c0,-64.5 -191.24,-103.89 -318.53,-167.85 -108.48,-54.53 -205,-100.52 -299.71,-169.29 -96.11,-69.76 -172.85,-131.16 -262.64,-206.33 -90.02,-75.33 -149.33,-156.3 -226.52,-242.46 -567.04,-632.98 -688.05,-1707.87 -294.03,-2490.47 126.26,-250.8 273.14,-449.48 467.64,-643.94 105.09,-105.05 175.42,-167.25 301.25,-254.58 117.28,-81.38 226.6,-138.21 354.28,-201.57 542.28,-269.15 1356.75,-267.1 1905.59,-11.39 192.43,89.67 513.35,252.67 631.1,428.46 105.49,-55.8 200.12,-119.37 307.35,-179.03 110.28,-61.33 201.34,-111.33 310.73,-175.62l2444.89 -1411.3c107.39,-59.74 201.98,-122.06 307.32,-179.03l1511.43 -868.28c0,-172.53 -52.13,-348.11 -52.13,-538.34 0,-1298.28 1055.83,-2239.66 2210.64,-2309.66zm-192.51 2341.5c0.02,5.81 -9.31,15.43 -10.38,12.78l-397.56 679.27c-69.63,115.82 -132.07,222.44 -197.04,341.38 -37.32,68.35 -64.07,108.97 -102.86,175.02 -37.32,63.54 -58.53,127.5 -111.58,166.33 -142.49,-95.37 -451.11,-473.59 -486.43,-625.17 40.47,-55.2 233.92,-148.4 309.56,-194.16l996.29 -555.45zm1925.47 749.61c-21.97,94.29 -154.08,268.49 -210.82,344.97 -57.11,76.97 -200.39,229.84 -275.61,280.2 -50.84,-37.21 -72.66,-98.55 -105.12,-155.41l-682.34 -1176.06c-21.77,-32.7 -6.36,-14.32 -29.07,-40.42l47.53 4.58c208.86,130.98 1205.13,673.54 1255.43,742.14zm-955.49 903.04c-378.45,88.13 -566.01,181 -1020.89,82.71 -101.88,-22.01 -202.11,-60.04 -299.45,-82.71l565.72 -980.07c32.83,-53.91 63.33,-89.77 77.07,-148.71l34.76 0c19.24,82.57 561.86,975.89 642.79,1128.78zm-2744.89 -642.55c129.53,244.72 205.98,363.35 386.63,551.28l66.82 72.15c0.53,0.49 22.42,19.71 27.65,24.45 57.01,51.62 139.7,148.55 213.8,168.32 -5.4,64.91 -156.48,303.68 -198.48,374.65l-1278.18 2212.86c-34.07,62.87 -175.03,347.32 -243.21,347.32l-3266.06 0c-75.82,0 -39.72,-71.92 -90.2,-274.54l-135.62 -402.75c-66.61,-136.18 -24.37,-79.56 -122.63,-242.09 -25.77,-42.63 -43.78,-75.87 -68.5,-122.58 200.53,-106.05 383.66,-222.66 585.31,-335.3l1168.43 -672.81c96.75,-55.67 197.7,-119.49 296.23,-172.75l584.72 -335.92c656.31,-357.4 1404.32,-838.44 2073.29,-1192.29zm8460.47 3751.03l-3266.06 0c-67.36,0 -203.07,-273.37 -237.24,-335.92 -72.68,-132.99 -141.86,-247.6 -215.34,-375.18 -69.05,-119.89 -137.69,-239.88 -211.01,-362.14l-851.16 -1476.21c-41.7,-69.35 -199.79,-321.13 -205.12,-385.38 72.83,-19.44 150.53,-110.51 204.61,-160.13 15.73,-14.44 31.08,-26.65 45.64,-41.21 198.6,-198.52 306.82,-354.47 444.65,-614.86l4707.98 2709.07c-22.65,42.82 -34.46,66.63 -61.89,111.79 -104.38,171.74 -54.24,98.07 -123.41,241.33 -64.99,134.59 -151.07,409.87 -171.91,557.51 -10.14,71.66 10.93,131.33 -59.74,131.33zm-13620.13 -764.09c94.34,178.25 262.68,474.21 284.79,708.71 7.98,84.62 -21.25,55.45 -267.42,55.38 -445.9,-0.14 -891.79,0 -1337.69,0 38.13,-52.06 243.56,-155.76 320.08,-200.99 113.08,-66.86 909.46,-541.97 1000.24,-563.1zm9693.93 764.09l-4899.1 0 944.09 -1643.78c62.94,-115.23 123.17,-218.21 190.62,-330.45l376.72 -665.38 428.07 127.81c734.46,187.74 1335.3,-118.41 1448.17,-127.81l179.21 324.48c384.66,639.96 762.21,1346.25 1144.45,1981.84 68.25,113.48 126.57,217.7 187.77,333.29zm6115.15 0l-1495.79 1.3c-108.24,0.53 -161.62,53.76 -44.07,-307.59 60.42,-185.8 137.92,-303.6 219.54,-457.8 83.66,19.47 586.18,322.42 670.14,372.07 99.25,58.69 610.94,338.46 650.18,392.02zm-16208.66 -1163.5l-1772 1024.58 0 2049.17c-168.9,-39.35 -473.2,-272.72 -586.65,-386.1 -941.15,-940.76 -553.88,-2650.38 839.96,-3007.51 386.96,-99.15 858.29,-54.22 1211.98,122.84 78.71,39.41 265.62,140.95 306.71,197.02zm17059.92 3073.75l0 -2049.17 -1772 -1024.58c89.34,-121.88 473.59,-273.91 652.89,-319.86 262.13,-67.17 587.55,-70.55 851.89,-3.47 520.53,132.07 880.5,429.75 1126.09,836.7 402.6,667.04 303.24,1595.41 -263.52,2165.62 -116.2,116.91 -422.21,354.43 -595.35,394.76zm-17042.55 -260.49c-13.7,-51.33 -119.16,-224.9 -153.01,-281.19l-489.78 -847.59 1320.32 0c-18.12,37.75 -27.22,127.46 -41.4,184.37 -19.49,78.26 -29.17,102.38 -55.41,170.37 -94.45,244.85 -369.15,724.76 -580.72,774.04zm15253.18 0c-146.33,-34.07 -359.33,-340.66 -435.36,-467.85 -65.38,-109.38 -93.48,-171.66 -145.36,-306.19 -54.65,-141.63 -85.01,-330.16 -96.81,-354.74l1320.32 0c-100.6,190.05 -217.86,367.09 -324.13,561.66l-318.66 567.12zm-15704.86 277.84c-241.49,115.83 -517.64,121.57 -799.15,121.57l0 -1510.83c15.67,18.01 0.88,-3.45 21.97,30.13 205.04,326.76 473.2,828.16 680.33,1178.1l96.85 181.03zm16955.69 -1389.26l0 1510.83c-281.51,0 -557.66,-5.74 -799.15,-121.57l799.15 -1389.26zm-12247.71 -17.36c-48.72,92.01 -95.41,173.66 -150.88,265.95 -56.19,93.5 -95.66,170.04 -151.85,265l-1830.65 3171.42c-50.5,84.17 -283.67,470.01 -298.79,534.89 -59,-39.49 -338.01,-547.38 -394.22,-647.9 -127.29,-227.71 -256.49,-431.45 -381.59,-660.5l-667.02 -1156.65c-32.12,-55.76 -67.45,-120.99 -103.33,-174.56 349.36,-184.79 749.49,-799.77 858.63,-1225.6 113.28,-441.96 -29.17,-372.31 322.71,-372.07 932.31,0.7 1864.66,0.02 2796.99,0.02zm9172.75 4237.26c-15.04,-64.55 -106.88,-202.27 -144.94,-271.89 -224.4,-410.6 -529.88,-902.1 -763.78,-1320.42l-915.41 -1585.63c-96.09,-177.61 -199.52,-349.63 -305.31,-528.37 -56.19,-94.96 -95.66,-171.5 -151.85,-265 -55.47,-92.29 -102.16,-173.94 -150.88,-265.95l2955.34 -1.99c145.94,1.23 67.76,-14.25 161.02,360.03 107.51,431.5 508.49,1052.65 861.97,1239.61l-573.29 989.86c-60.69,112.03 -131.13,219.09 -191.09,329.95 -119.91,221.61 -255.98,443.17 -381.3,660.8 -61.11,106.1 -338.75,617.69 -400.48,659zm-11934.99 538.34l-1667.79 2900.1c-316.25,-73.67 -201.37,-130.66 -780.63,-174.8 -142.92,-10.9 -153.69,-10.73 -296.47,1.12l0 -5452.85c266.66,22.18 576.37,-7.53 831.87,-88.84 80.62,-25.65 162.17,-65.49 245.23,-84.83l724.28 1255.72c193.34,347.34 447.37,749.63 630.79,1088.67l312.72 555.71zm13932.85 -2900.1c82.1,19.12 145.3,52.27 232.12,80.54 86.61,28.2 167.33,48.8 264.08,65.99 109.3,19.43 167.4,19.35 284.43,28.27 142.92,10.89 153.69,10.73 296.47,-1.13l0 5452.85c-266.66,-22.17 -576.37,7.53 -831.87,88.85 -80.62,25.64 -162.17,65.48 -245.23,84.83l-203.11 -352.68c-351.53,-631.53 -819.03,-1376.28 -1151.96,-1991.71 -33.37,-61.71 -69.64,-124.63 -107.58,-187.69 -26.91,-44.76 -205.14,-344.55 -205.14,-368.02 0,-23.37 170.6,-310.12 198.5,-357.3 351.65,-594.26 698.08,-1233.25 1048.99,-1816.76l420.3 -726.04zm-5038.08 7675.69l-5524.48 0 -337.42 -600.47c-340.46,-578.91 -693.8,-1223.59 -1031.87,-1781.81l-343.22 -594.66c-284.89,-481.43 -572.97,-1015.11 -857.66,-1487.06 -30.45,-50.49 -166.87,-273.62 -166.87,-311.59l1361.14 -2382.57c61.59,-102.67 111.95,-190.06 171.83,-297.13 58.77,-105.11 115.99,-190.98 173.12,-295.81l515.13 -891.69c59.64,-107.15 110.25,-194.54 171.81,-297.15 59.33,-98.9 117.24,-200.65 170.27,-298.67 40.68,-75.21 154.23,-239.61 173.74,-312.58l5524.48 0c19.62,73.36 125.02,222.71 167.77,301.17 57.93,106.29 107.93,194.33 169.65,299.31 61.71,104.93 113.55,188.67 172.36,296.59l1030.44 1783.22c57.83,105.9 110.51,192.24 172.29,296.66l342.82 595.06c73.91,132.19 681.71,1161.02 681.71,1203.59 0,47.28 -596.27,1046.94 -675.64,1192.29l-515.24 891.61c-53,98.01 -110.92,199.77 -170.26,298.66l-686.94 1188.85c-90.74,166.02 -669.86,1132.71 -688.96,1204.18zm-11639.66 -17.35l0 -1510.84c281.51,0 557.66,5.75 799.15,121.57 -12.49,46.75 -63.57,126.08 -90.2,170.33l-304 529.68c-33.81,60.7 -63.82,102.2 -97.61,162.9 -36.68,65.92 -64.17,116.34 -99.76,178.15l-207.58 348.21zm17546.38 -1510.84l208.46 0 0 1510.84 -799.15 -1389.27c130.59,-62.63 395.33,-121.57 590.69,-121.57zm-15618.02 1528.19l-1320.32 0c100.6,-190.04 217.86,-367.08 324.13,-561.66l318.66 -567.11c234.07,54.52 557.89,630.15 636.13,944.41 14.18,56.91 23.28,146.62 41.4,184.36zm3578.77 0l-2955.34 1.99c-135.97,-1.15 -81.28,9.64 -126.97,-220.38 -99.47,-500.86 -498.53,-1169.01 -896.02,-1379.26 34.55,-51.57 61.89,-104.64 96.83,-163.68 210.27,-355.33 1360.83,-2416.68 1449.33,-2475.93 15.24,65.44 386.96,688.89 450.78,799.73 323.04,560.92 765.8,1299.33 1066.6,1851.29 270.11,495.64 651.59,1089.04 914.79,1586.24zm9172.75 -4237.26c63.3,42.39 156.81,235.14 203.11,317.95l1343.05 2321.66c-349.36,184.8 -749.49,799.77 -858.63,1225.61 -113.28,441.96 29.17,372.31 -322.71,372.06 -932.31,-0.69 -1864.66,-0.02 -2796.99,-0.02l302.73 -530.95c352.88,-596.33 718.69,-1268.91 1068.71,-1849.15 53.72,-89.05 98.81,-169.72 152.01,-264.84 75.2,-134.51 891.61,-1518.9 908.72,-1592.32zm2466.92 4237.26l-1320.32 0c29.85,-62.2 28.78,-303.94 242.17,-660.92 76.03,-127.19 289.03,-433.78 435.36,-467.85 13.7,51.32 119.16,224.89 153.01,281.19l489.78 847.58zm-7331.26 3160.59c-80.09,-6.66 -141.72,-45.6 -210.29,-67.63 -219.49,-70.49 -367.46,-99.95 -589.22,-105.71 -77.97,-2.03 -80.92,-15.86 -138.61,-15.86 -60.37,0 -47.31,11.61 -121.59,15.47 -263.18,13.66 -317.15,17.17 -593.09,101.87 -78.85,24.21 -140.42,64.95 -223.44,71.86l-179.21 -324.47c-68.89,-114.61 -122.2,-215.34 -191.09,-329.95 -319.69,-531.85 -634.03,-1120.92 -953.36,-1651.89 -68.25,-113.49 -126.57,-217.7 -187.77,-333.3l4899.1 0c-274.22,518.03 -660.21,1123.98 -944.09,1643.79l-477.14 825.49c-26.63,44.25 -77.71,123.58 -90.2,170.33zm-8182.5 -1875.51c-90.78,-21.13 -887.16,-496.24 -1000.24,-563.1 -76.52,-45.23 -281.95,-148.93 -320.08,-201l1495.79 -1.29c108.24,-0.53 161.62,-53.77 44.07,307.59 -60.42,185.8 -137.92,303.59 -219.54,457.8zm15809.08 -764.1c-26.89,36.72 -1237.25,744.77 -1320.32,764.1 -78.32,-147.99 -156.87,-267.36 -215.27,-444.69 -131.68,-399.76 -103,-319.49 197.9,-319.41 445.9,0.15 891.79,0 1337.69,0zm-17980.66 -1910.24l0 2049.17c80.62,42.64 139.47,81.89 220.46,126.94 290.3,161.47 1344.73,759.21 1551.54,897.64 -89.34,121.88 -473.59,273.91 -652.89,319.86 -780.16,199.89 -1569.15,-155.85 -1977.98,-833.23 -402.6,-667.04 -303.24,-1595.41 263.52,-2165.63 116.2,-116.91 422.21,-354.42 595.35,-394.75zm18831.92 2049.17l0 -2049.17c168.9,39.34 473.2,272.71 586.65,386.1 75.8,75.78 155.09,179.37 216.22,270.11 73.3,108.78 114.96,194.82 169.94,316.35 316.66,700.15 53.58,1639.27 -560.76,2096.29 -207.81,154.59 -374.79,250.31 -665.36,324.76 -386.96,99.14 -858.29,54.22 -1211.98,-122.84 -78.71,-39.41 -265.62,-140.95 -306.71,-197.02l1540.21 -891.61c85.26,-46.42 147.73,-88.5 231.79,-132.97zm-10805.78 2795.9c-64.35,17.17 -194.46,145.55 -250.25,201.35l-144.26 151.01c-117.32,138.59 -213.96,300.55 -300.39,463.84 -725.82,-383.92 -1598.35,-930.73 -2350.67,-1349.18l-581.97 -338.65c-199.13,-119.66 -400.31,-225.63 -594.99,-342.97 -96.71,-58.31 -185.21,-104.52 -286.96,-164.69l-893.39 -513.58c22.65,-42.81 34.46,-66.63 61.89,-111.78 27.28,-44.88 49.5,-75.53 71.47,-119.6 74.08,-148.56 154.17,-378.59 193.39,-536.03 49.79,-199.77 14.09,-274.55 90.2,-274.55l3266.06 0c67.36,0 203.07,273.38 237.24,335.92l641.18 1113.03c61.58,101.68 829.92,1396.03 841.45,1485.88zm4499.51 -2934.83l3266.06 0c68.31,0 49.87,53.32 57.77,115.93 15.94,126.59 75.18,319.12 117.95,437.81 93.04,258.2 129.08,276.35 241.23,488.22 -200.53,106.06 -383.66,222.66 -585.31,335.31 -101.77,56.84 -188.28,105.85 -286.65,164.95l-3237.97 1868.87c-203.15,120.13 -392.23,231.08 -598.05,339.94 -129.38,-244.42 -277.76,-463.84 -481.1,-647.88 -57.01,-51.61 -139.7,-148.54 -213.8,-168.32 6.34,-76.29 252.51,-462.39 306.73,-561.66 38.77,-70.98 73.42,-123.18 109.34,-185.94 70.3,-122.82 136.87,-246.31 208.34,-364.8 318.18,-527.44 645.03,-1141.25 959.64,-1662.97 28.68,-47.53 76.81,-159.46 135.82,-159.46zm-3092.31 4237.26l-511.2 -843.52c-57.89,-97.81 -116.58,-191.24 -166.35,-285.25 378.45,-88.13 566.01,-181 1020.89,-82.72 101.88,22.02 202.11,60.05 299.45,82.72l-642.79 1128.77zm-330.08 520.98c-24.29,30.08 10.81,28.39 -91.98,-29.62l-571.53 -331.72c-100.05,-60.12 -599.49,-330.87 -639.45,-385.38 35.32,-151.58 343.94,-529.8 486.43,-625.17 50.84,37.22 72.66,98.55 105.12,155.42l711.41 1216.47zm1441.93 -1371.89c142.49,95.37 451.11,473.59 486.43,625.17 -47.47,64.75 -1039.33,610.86 -1244.64,735.54 -35.65,21.67 -15.28,6.26 -40.95,28.56l4.74 -47.37c7.68,-11.28 21.52,-33.25 27.1,-42.38l355.84 -616.78c49.26,-81.94 350.76,-638.28 411.48,-682.74zm660.15 1215.59c0,386.58 3.75,603.06 -179.48,966.74 -105.82,210.02 -206.87,347.59 -363.25,505.18 -300.29,302.63 -813.8,507.96 -1246.65,507.96 -59.61,0 -109.12,-13.79 -190.64,-17.99 -276.45,-14.2 -581.39,-151.11 -805.35,-289.03 -73.97,-45.54 -182.51,-132.42 -242.07,-192.16 -154.16,-154.65 -262.37,-295.69 -366.03,-502.39 -189.1,-377.09 -185.29,-577.56 -185.29,-978.31 0,-77.37 48.68,-37.84 82.92,-16.43l1475.26 855.37c81.43,45.48 159.69,85.68 231.2,133.56l450.7 -261.49c373.52,-225.15 897.23,-498.15 1244.78,-720.05 38.28,-24.45 93.9,-73.42 93.9,9.04z"/>
    </clipPath>
 </defs>
 <g id="Capa_x0020_1">
  <metadata id="CorelCorpID_0Corel-Layer"/>
  <g>
   <g style="clip-path:url(#id0)">
    <polygon class="fil0" points="12258.04,12451.99 19794.43,28838.19 19514.15,28970.29 "/>
    <polygon id="_1" class="fil1" points="12258.04,12451.99 19560.86,28948.28 19325.92,29055.23 "/>
    <polygon id="_2" class="fil2" points="12258.04,12451.99 19372.91,29033.84 19136.61,29137.64 "/>
    <polygon id="_3" class="fil3" points="12258.04,12451.99 19183.87,29116.88 18946.26,29217.53 "/>
    <polygon id="_4" class="fil4" points="12258.04,12451.99 18993.79,29197.4 18754.9,29294.87 "/>
    <polygon id="_5" class="fil5" points="12258.04,12451.99 18802.68,29275.37 18562.55,29369.65 "/>
    <polygon id="_6" class="fil6" points="12258.04,12451.99 18610.57,29350.79 18369.24,29441.86 "/>
    <polygon id="_7" class="fil7" points="12258.04,12451.99 18417.51,29423.65 18175,29511.5 "/>
    <polygon id="_8" class="fil8" points="12258.04,12451.99 18223.5,29493.93 17979.87,29578.54 "/>
    <polygon id="_9" class="fil9" points="12258.04,12451.99 18028.6,29561.62 17783.87,29642.99 "/>
    <polygon id="_10" class="fil10" points="12258.04,12451.99 17832.81,29626.72 17587.02,29704.83 "/>
    <polygon id="_11" class="fil11" points="12258.04,12451.99 17636.18,29689.21 17389.37,29764.05 "/>
    <polygon id="_12" class="fil12" points="12258.04,12451.99 17438.74,29749.08 17190.95,29820.64 "/>
    <polygon id="_13" class="fil13" points="12258.04,12451.99 17240.51,29806.33 16991.77,29874.59 "/>
    <polygon id="_14" class="fil14" points="12258.04,12451.99 17041.52,29860.94 16791.87,29925.9 "/>
    <polygon id="_15" class="fil15" points="12258.04,12451.99 16841.8,29912.91 16591.29,29974.56 "/>
    <polygon id="_16" class="fil16" points="12258.04,12451.99 16641.39,29962.23 16390.05,30020.56 "/>
    <polygon id="_17" class="fil17" points="12258.04,12451.99 16440.32,30008.89 16188.18,30063.89 "/>
    <polygon id="_18" class="fil18" points="12258.04,12451.99 16238.61,30052.89 15985.71,30104.55 "/>
    <polygon id="_19" class="fil19" points="12258.04,12451.99 16036.29,30094.22 15782.68,30142.53 "/>
    <polygon id="_20" class="fil20" points="12258.04,12451.99 15833.41,30132.87 15579.12,30177.83 "/>
    <polygon id="_21" class="fil21" points="12258.04,12451.99 15629.98,30168.84 15375.05,30210.43 "/>
    <polygon id="_22" class="fil22" points="12258.04,12451.99 15426.03,30202.11 15170.5,30240.34 "/>
    <polygon id="_23" class="fil23" points="12258.04,12451.99 15221.61,30232.69 14965.52,30267.55 "/>
    <polygon id="_24" class="fil24" points="12258.04,12451.99 15016.74,30260.58 14760.12,30292.05 "/>
    <polygon id="_25" class="fil25" points="12258.04,12451.99 14811.45,30285.76 14554.35,30313.85 "/>
    <polygon id="_26" class="fil26" points="12258.04,12451.99 14605.77,30308.23 14348.22,30332.94 "/>
    <polygon id="_27" class="fil27" points="12258.04,12451.99 14399.73,30328 14141.78,30349.31 "/>
    <polygon id="_28" class="fil28" points="12258.04,12451.99 14193.37,30345.05 13935.05,30362.97 "/>
    <polygon id="_29" class="fil29" points="12258.04,12451.99 13986.72,30359.38 13728.07,30373.9 "/>
    <polygon id="_30" class="fil30" points="12258.04,12451.99 13779.8,30371 13520.86,30382.12 "/>
    <polygon id="_31" class="fil31" points="12258.04,12451.99 13572.65,30379.9 13313.47,30387.62 "/>
    <polygon id="_32" class="fil32" points="12258.04,12451.99 13365.31,30386.07 13105.91,30390.39 "/>
    <polygon id="_33" class="fil33" points="12258.04,12451.99 13157.79,30389.53 12898.22,30390.44 "/>
    <polygon id="_34" class="fil34" points="12258.04,12451.99 12950.14,30390.26 12690.44,30387.77 "/>
    <polygon id="_35" class="fil35" points="12258.04,12451.99 12742.38,30388.27 12482.59,30382.37 "/>
    <polygon id="_36" class="fil36" points="12258.04,12451.99 12534.55,30383.55 12274.71,30374.26 "/>
    <polygon id="_37" class="fil37" points="12258.04,12451.99 12326.68,30376.12 12066.82,30363.42 "/>
    <polygon id="_38" class="fil38" points="12258.04,12451.99 12118.8,30365.96 11858.97,30349.87 "/>
    <polygon id="_39" class="fil39" points="12258.04,12451.99 11910.94,30353.09 11651.17,30333.6 "/>
    <polygon id="_40" class="fil40" points="12258.04,12451.99 11703.13,30337.5 11443.47,30314.61 "/>
    <polygon id="_41" class="fil41" points="12258.04,12451.99 11495.4,30319.19 11235.89,30292.92 "/>
    <polygon id="_42" class="fil42" points="12258.04,12451.99 11287.79,30298.17 11028.46,30268.51 "/>
    <polygon id="_43" class="fil43" points="12258.04,12451.99 11080.33,30274.44 10821.23,30241.4 "/>
    <polygon id="_44" class="fil44" points="12258.04,12451.99 10873.05,30248.01 10614.21,30211.59 "/>
    <polygon id="_45" class="fil45" points="12258.04,12451.99 10665.98,30218.88 10407.43,30179.09 "/>
    <polygon id="_46" class="fil46" points="12258.04,12451.99 10459.15,30187.05 10200.95,30143.9 "/>
    <polygon id="_47" class="fil47" points="12258.04,12451.99 10252.59,30152.53 9994.77,30106.02 "/>
    <polygon id="_48" class="fil48" points="12258.04,12451.99 10046.33,30115.32 9788.93,30065.46 "/>
    <polygon id="_49" class="fil49" points="12258.04,12451.99 9840.42,30075.43 9583.47,30022.22 "/>
    <polygon id="_50" class="fil50" points="12258.04,12451.99 9634.86,30032.86 9378.42,29976.32 "/>
    <polygon id="_51" class="fil51" points="12258.04,12451.99 9429.71,29987.63 9173.81,29927.76 "/>
    <polygon id="_52" class="fil52" points="12258.04,12451.99 9224.99,29939.74 8969.66,29876.55 "/>
    <polygon id="_53" class="fil53" points="12258.04,12451.99 9020.73,29889.19 8766.01,29822.7 "/>
    <polygon id="_54" class="fil54" points="12258.04,12451.99 8816.95,29836 8562.89,29766.2 "/>
    <polygon id="_55" class="fil55" points="12258.04,12451.99 8613.7,29780.16 8360.33,29707.08 "/>
    <polygon id="_56" class="fil56" points="12258.04,12451.99 8411.01,29721.7 8158.36,29645.34 "/>
    <polygon id="_57" class="fil57" points="12258.04,12451.99 8208.9,29660.61 7957.02,29580.99 "/>
    <polygon id="_58" class="fil57" points="12258.04,12451.99 8007.4,29596.92 7756.33,29514.04 "/>
    <polygon id="_59" class="fil58" points="12258.04,12451.99 7806.54,29530.62 7556.32,29444.5 "/>
    <polygon id="_60" class="fil59" points="12258.04,12451.99 7606.37,29461.73 7357.03,29372.38 "/>
    <polygon id="_61" class="fil59" points="12258.04,12451.99 7406.9,29390.25 7158.48,29297.7 "/>
    <polygon id="_62" class="fil60" points="12258.04,12451.99 7208.16,29316.21 6960.7,29220.45 "/>
    <polygon id="_63" class="fil61" points="12258.04,12451.99 7010.19,29239.61 6763.73,29140.67 "/>
    <polygon id="_64" class="fil62" points="12258.04,12451.99 6813.02,29160.46 6567.59,29058.35 "/>
    <polygon id="_65" class="fil63" points="12258.04,12451.99 6616.68,29078.77 6372.31,28973.5 "/>
    <polygon id="_66" class="fil64" points="12258.04,12451.99 6421.19,28994.56 6177.93,28886.15 "/>
    <polygon id="_67" class="fil65" points="12258.04,12451.99 6226.58,28907.84 5984.47,28796.31 "/>
    <polygon id="_68" class="fil66" points="12258.04,12451.99 6032.9,28818.62 5791.97,28703.98 "/>
    <polygon id="_69" class="fil67" points="12258.04,12451.99 5840.15,28726.91 5600.44,28609.19 "/>
    <polygon id="_70" class="fil68" points="12258.04,12451.99 5648.38,28632.74 5409.93,28511.95 "/>
    <polygon id="_71" class="fil69" points="12258.04,12451.99 5457.62,28536.11 5220.45,28412.27 "/>
    <polygon id="_72" class="fil70" points="12258.04,12451.99 5267.89,28437.04 5032.04,28310.16 "/>
    <polygon id="_73" class="fil71" points="12258.04,12451.99 5079.21,28335.54 4844.73,28205.65 "/>
    <polygon id="_74" class="fil72" points="12258.04,12451.99 4891.63,28231.63 4658.55,28098.75 "/>
    <polygon id="_75" class="fil73" points="12258.04,12451.99 4705.17,28125.33 4473.52,27989.48 "/>
    <polygon id="_76" class="fil74" points="12258.04,12451.99 4519.85,28016.65 4289.66,27877.84 "/>
    <polygon id="_77" class="fil75" points="12258.04,12451.99 4335.7,27905.6 4107.02,27763.86 "/>
    <polygon id="_78" class="fil76" points="12258.04,12451.99 4152.76,27792.21 3925.62,27647.56 "/>
    <polygon id="_79" class="fil77" points="12258.04,12451.99 3971.05,27676.49 3745.48,27528.96 "/>
    <polygon id="_80" class="fil78" points="12258.04,12451.99 3790.6,27558.47 3566.63,27408.06 "/>
    <polygon id="_81" class="fil79" points="12258.04,12451.99 3611.43,27438.14 3389.11,27284.9 "/>
    <polygon id="_82" class="fil80" points="12258.04,12451.99 3433.57,27315.55 3212.93,27159.48 "/>
    <polygon id="_83" class="fil81" points="12258.04,12451.99 3257.06,27190.7 3038.12,27031.83 "/>
    <polygon id="_84" class="fil82" points="12258.04,12451.99 3081.91,27063.61 2864.71,26901.97 "/>
    <polygon id="_85" class="fil83" points="12258.04,12451.99 2908.15,26934.3 2692.72,26769.92 "/>
    <polygon id="_86" class="fil84" points="12258.04,12451.99 2735.81,26802.79 2522.19,26635.69 "/>
    <polygon id="_87" class="fil85" points="12258.04,12451.99 2564.92,26669.11 2353.14,26499.31 "/>
    <polygon id="_88" class="fil86" points="12258.04,12451.99 2395.5,26533.27 2185.59,26360.79 "/>
    <polygon id="_89" class="fil87" points="12258.04,12451.99 2227.57,26395.29 2019.57,26220.17 "/>
    <polygon id="_90" class="fil88" points="12258.04,12451.99 2061.17,26255.19 1855.1,26077.46 "/>
    <polygon id="_91" class="fil89" points="12258.04,12451.99 1896.31,26113 1692.21,25932.67 "/>
    <polygon id="_92" class="fil90" points="12258.04,12451.99 1733.03,25968.74 1530.92,25785.85 "/>
    <polygon id="_93" class="fil91" points="12258.04,12451.99 1571.35,25822.43 1371.27,25636.99 "/>
    <polygon id="_94" class="fil92" points="12258.04,12451.99 1411.28,25674.08 1213.26,25486.14 "/>
    <polygon id="_95" class="fil93" points="12258.04,12451.99 1252.87,25523.73 1056.93,25333.31 "/>
    <polygon id="_96" class="fil94" points="12258.04,12451.99 1096.12,25371.4 902.3,25178.52 "/>
    <polygon id="_97" class="fil95" points="12258.04,12451.99 941.07,25217.1 749.4,25021.81 "/>
    <polygon id="_98" class="fil96" points="12258.04,12451.99 787.73,25060.87 598.24,24863.18 "/>
    <polygon id="_99" class="fil97" points="12258.04,12451.99 636.14,24902.72 448.85,24702.67 "/>
    <polygon id="_100" class="fil98" points="12258.04,12451.99 486.31,24742.68 301.26,24540.3 "/>
    <polygon id="_101" class="fil99" points="12258.04,12451.99 338.27,24580.78 155.48,24376.1 "/>
    <polygon id="_102" class="fil100" points="12258.04,12451.99 192.04,24417.04 11.53,24210.08 "/>
    <polygon id="_103" class="fil101" points="12258.04,12451.99 47.63,24251.48 -130.55,24042.29 "/>
    <polygon id="_104" class="fil102" points="12258.04,12451.99 -94.91,24084.13 -270.76,23872.73 "/>
    <polygon id="_105" class="fil103" points="12258.04,12451.99 -235.59,23915.01 -409.06,23701.44 "/>
    <polygon id="_106" class="fil104" points="12258.04,12451.99 -374.37,23744.15 -545.44,23528.44 "/>
    <polygon id="_107" class="fil105" points="12258.04,12451.99 -511.23,23571.58 -679.88,23353.76 "/>
    <polygon id="_108" class="fil106" points="12258.04,12451.99 -646.15,23397.33 -812.35,23177.43 "/>
    <polygon id="_109" class="fil107" points="12258.04,12451.99 -779.11,23221.41 -942.84,22999.46 "/>
    <polygon id="_110" class="fil108" points="12258.04,12451.99 -910.1,23043.85 -1071.33,22819.9 "/>
    <polygon id="_111" class="fil109" points="12258.04,12451.99 -1039.08,22864.69 -1197.79,22638.76 "/>
    <polygon id="_112" class="fil110" points="12258.04,12451.99 -1166.05,22683.95 -1322.21,22456.08 "/>
    <polygon id="_113" class="fil111" points="12258.04,12451.99 -1290.98,22501.66 -1444.57,22271.88 "/>
    <polygon id="_114" class="fil112" points="12258.04,12451.99 -1413.85,22317.84 -1564.85,22086.19 "/>
    <polygon id="_115" class="fil113" points="12258.04,12451.99 -1534.65,22132.52 -1683.03,21899.03 "/>
    <polygon id="_116" class="fil114" points="12258.04,12451.99 -1653.36,21945.73 -1799.1,21710.45 "/>
    <polygon id="_117" class="fil115" points="12258.04,12451.99 -1769.95,21757.51 -1913.03,21520.45 "/>
    <polygon id="_118" class="fil116" points="12258.04,12451.99 -1884.42,21567.87 -2024.81,21329.08 "/>
    <polygon id="_119" class="fil117" points="12258.04,12451.99 -1996.73,21376.84 -2134.43,21136.37 "/>
    <polygon id="_120" class="fil118" points="12258.04,12451.99 -2106.89,21184.46 -2241.86,20942.33 "/>
    <polygon id="_121" class="fil119" points="12258.04,12451.99 -2214.86,20990.76 -2347.09,20747.01 "/>
    <polygon id="_122" class="fil120" points="12258.04,12451.99 -2320.64,20795.76 -2450.1,20550.43 "/>
    <polygon id="_123" class="fil121" points="12258.04,12451.99 -2424.2,20599.5 -2550.88,20352.61 "/>
    <polygon id="_124" class="fil122" points="12258.04,12451.99 -2525.54,20401.99 -2649.41,20153.6 "/>
    <polygon id="_125" class="fil123" points="12258.04,12451.99 -2624.63,20203.28 -2745.68,19953.42 "/>
    <polygon id="_126" class="fil124" points="12258.04,12451.99 -2721.47,20003.4 -2839.67,19752.11 "/>
    <polygon id="_127" class="fil125" points="12258.04,12451.99 -2816.03,19802.37 -2931.37,19549.68 "/>
    <polygon id="_128" class="fil126" points="12258.04,12451.99 -2908.3,19600.22 -3020.76,19346.18 "/>
    <polygon id="_129" class="fil127" points="12258.04,12451.99 -2998.27,19396.99 -3107.84,19141.63 "/>
    <polygon id="_130" class="fil128" points="12258.04,12451.99 -3085.92,19192.7 -3192.58,18936.06 "/>
    <polygon id="_131" class="fil129" points="12258.04,12451.99 -3171.25,18987.39 -3274.98,18729.51 "/>
    <polygon id="_132" class="fil130" points="12258.04,12451.99 -3254.23,18781.09 -3355.02,18522.01 "/>
    <polygon id="_133" class="fil131" points="12258.04,12451.99 -3334.86,18573.83 -3432.69,18313.58 "/>
    <polygon id="_134" class="fil132" points="12258.04,12451.99 -3413.12,18365.63 -3507.98,18104.27 "/>
    <polygon id="_135" class="fil133" points="12258.04,12451.99 -3489.01,18156.55 -3580.88,17894.1 "/>
    <polygon id="_136" class="fil134" points="12258.04,12451.99 -3562.5,17946.59 -3651.37,17683.1 "/>
    <polygon id="_137" class="fil135" points="12258.04,12451.99 -3633.59,17735.8 -3719.45,17471.31 "/>
    <polygon id="_138" class="fil136" points="12258.04,12451.99 -3702.27,17524.21 -3785.1,17258.76 "/>
    <polygon id="_139" class="fil137" points="12258.04,12451.99 -3768.53,17311.85 -3848.32,17045.47 "/>
    <polygon id="_140" class="fil138" points="12258.04,12451.99 -3832.36,17098.75 -3909.09,16831.49 "/>
    <polygon id="_141" class="fil139" points="12258.04,12451.99 -3893.74,16884.95 -3967.41,16616.85 "/>
    <polygon id="_142" class="fil140" points="12258.04,12451.99 -3952.67,16670.47 -4023.26,16401.57 "/>
    <polygon id="_143" class="fil141" points="12258.04,12451.99 -4009.15,16455.36 -4076.65,16185.7 "/>
    <polygon id="_144" class="fil142" points="12258.04,12451.99 -4063.15,16239.63 -4127.55,15969.25 "/>
    <polygon id="_145" class="fil143" points="12258.04,12451.99 -4114.67,16023.33 -4175.97,15752.28 "/>
    <polygon id="_146" class="fil144" points="12258.04,12451.99 -4163.71,15806.49 -4221.9,15534.8 "/>
    <polygon id="_147" class="fil145" points="12258.04,12451.99 -4210.26,15589.14 -4265.32,15316.85 "/>
    <polygon id="_148" class="fil146" points="12258.04,12451.99 -4254.31,15371.31 -4306.24,15098.47 "/>
    <polygon id="_149" class="fil147" points="12258.04,12451.99 -4295.85,15153.04 -4344.64,14879.69 "/>
    <polygon id="_150" class="fil148" points="12258.04,12451.99 -4334.88,14934.36 -4380.52,14660.54 "/>
    <polygon id="_151" class="fil149" points="12258.04,12451.99 -4371.39,14715.31 -4413.88,14441.06 "/>
    <polygon id="_152" class="fil150" points="12258.04,12451.99 -4405.38,14495.91 -4444.7,14221.27 "/>
    <polygon id="_153" class="fil151" points="12258.04,12451.99 -4436.84,14276.2 -4472.99,14001.21 "/>
    <polygon id="_154" class="fil152" points="12258.04,12451.99 -4465.76,14056.21 -4498.74,13780.92 "/>
    <polygon id="_155" class="fil153" points="12258.04,12451.99 -4492.14,13835.98 -4521.95,13560.43 "/>
    <polygon id="_156" class="fil154" points="12258.04,12451.99 -4515.99,13615.54 -4542.61,13339.77 "/>
    <polygon id="_157" class="fil155" points="12258.04,12451.99 -4537.29,13394.92 -4560.72,13118.97 "/>
    <polygon id="_158" class="fil156" points="12258.04,12451.99 -4556.03,13174.16 -4576.28,12898.07 "/>
    <polygon id="_159" class="fil157" points="12258.04,12451.99 -4572.23,12953.29 -4589.28,12677.11 "/>
    <polygon id="_160" class="fil158" points="12258.04,12451.99 -4585.87,12732.35 -4599.73,12456.11 "/>
    <polygon id="_161" class="fil159" points="12258.04,12451.99 -4596.96,12511.36 -4607.61,12235.11 "/>
    <polygon id="_162" class="fil160" points="12258.04,12451.99 -4605.48,12290.36 -4612.94,12014.14 "/>
    <polygon id="_163" class="fil161" points="12258.04,12451.99 -4611.45,12069.39 -4615.71,11793.24 "/>
    <polygon id="_164" class="fil162" points="12258.04,12451.99 -4614.86,11848.47 -4615.91,11572.44 "/>
    <polygon id="_165" class="fil163" points="12258.04,12451.99 -4615.7,11627.65 -4613.56,11351.77 "/>
    <polygon id="_166" class="fil164" points="12258.04,12451.99 -4613.99,11406.95 -4608.64,11131.27 "/>
    <polygon id="_167" class="fil165" points="12258.04,12451.99 -4609.71,11186.41 -4601.16,10910.97 "/>
    <polygon id="_168" class="fil166" points="12258.04,12451.99 -4602.87,10966.06 -4591.13,10690.91 "/>
    <polygon id="_169" class="fil167" points="12258.04,12451.99 -4593.48,10745.94 -4578.54,10471.11 "/>
    <polygon id="_170" class="fil168" points="12258.04,12451.99 -4581.52,10526.08 -4563.39,10251.61 "/>
    <polygon id="_171" class="fil169" points="12258.04,12451.99 -4567.01,10306.51 -4545.69,10032.45 "/>
    <polygon id="_172" class="fil170" points="12258.04,12451.99 -4549.95,10087.26 -4525.43,9813.65 "/>
    <polygon id="_173" class="fil171" points="12258.04,12451.99 -4530.34,9868.38 -4502.63,9595.26 "/>
    <polygon id="_174" class="fil172" points="12258.04,12451.99 -4508.18,9649.88 -4477.29,9377.29 "/>
    <polygon id="_175" class="fil173" points="12258.04,12451.99 -4483.47,9431.81 -4449.41,9159.8 "/>
    <polygon id="_176" class="fil174" points="12258.04,12451.99 -4456.22,9214.2 -4418.99,8942.8 "/>
    <polygon id="_177" class="fil175" points="12258.04,12451.99 -4426.44,8997.09 -4386.04,8726.34 "/>
    <polygon id="_178" class="fil176" points="12258.04,12451.99 -4394.12,8780.49 -4350.56,8510.44 "/>
    <polygon id="_179" class="fil177" points="12258.04,12451.99 -4359.27,8564.45 -4312.56,8295.14 "/>
    <polygon id="_180" class="fil178" points="12258.04,12451.99 -4321.91,8349.01 -4272.05,8080.47 "/>
    <polygon id="_181" class="fil179" points="12258.04,12451.99 -4282.02,8134.18 -4229.03,7866.47 "/>
    <polygon id="_182" class="fil180" points="12258.04,12451.99 -4239.63,7920.01 -4183.51,7653.16 "/>
    <polygon id="_183" class="fil181" points="12258.04,12451.99 -4194.73,7706.53 -4135.49,7440.58 "/>
    <polygon id="_184" class="fil182" points="12258.04,12451.99 -4147.34,7493.77 -4084.98,7228.76 "/>
    <polygon id="_185" class="fil183" points="12258.04,12451.99 -4097.45,7281.76 -4031.99,7017.73 "/>
    <polygon id="_186" class="fil184" points="12258.04,12451.99 -4045.08,7070.54 -3976.53,6807.53 "/>
    <polygon id="_187" class="fil185" points="12258.04,12451.99 -3990.24,6860.13 -3918.61,6598.18 "/>
    <polygon id="_188" class="fil186" points="12258.04,12451.99 -3932.93,6650.57 -3858.23,6389.72 "/>
    <polygon id="_189" class="fil187" points="12258.04,12451.99 -3873.17,6441.9 -3795.4,6182.19 "/>
    <polygon id="_190" class="fil188" points="12258.04,12451.99 -3810.95,6234.13 -3730.14,5975.6 "/>
    <polygon id="_191" class="fil189" points="12258.04,12451.99 -3746.3,6027.31 -3662.45,5770 "/>
    <polygon id="_192" class="fil190" points="12258.04,12451.99 -3679.22,5821.46 -3592.34,5565.41 "/>
    <polygon id="_193" class="fil191" points="12258.04,12451.99 -3609.72,5616.62 -3519.83,5361.87 "/>
    <polygon id="_194" class="fil192" points="12258.04,12451.99 -3537.81,5412.82 -3444.92,5159.4 "/>
    <polygon id="_195" class="fil193" points="12258.04,12451.99 -3463.5,5210.09 -3367.64,4958.04 "/>
    <polygon id="_196" class="fil194" points="12258.04,12451.99 -3386.81,5008.45 -3287.97,4757.82 "/>
    <polygon id="_197" class="fil195" points="12258.04,12451.99 -3307.74,4807.95 -3205.95,4558.76 "/>
    <polygon id="_198" class="fil196" points="12258.04,12451.99 -3226.31,4608.6 -3121.58,4360.9 "/>
    <polygon id="_199" class="fil197" points="12258.04,12451.99 -3142.53,4410.45 -3034.88,4164.28 "/>
    <polygon id="_200" class="fil198" points="12258.04,12451.99 -3056.41,4213.51 -2945.86,3968.9 "/>
    <polygon id="_201" class="fil199" points="12258.04,12451.99 -2967.97,4017.83 -2854.53,3774.82 "/>
    <polygon id="_202" class="fil200" points="12258.04,12451.99 -2877.22,3823.42 -2760.9,3582.06 "/>
    <polygon id="_203" class="fil201" points="12258.04,12451.99 -2784.17,3630.33 -2665,3390.63 "/>
    <polygon id="_204" class="fil202" points="12258.04,12451.99 -2688.83,3438.58 -2566.83,3200.59 "/>
    <polygon id="_205" class="fil203" points="12258.04,12451.99 -2591.23,3248.19 -2466.41,3011.95 "/>
    <polygon id="_206" class="fil204" points="12258.04,12451.99 -2491.37,3059.2 -2363.75,2824.74 "/>
    <polygon id="_207" class="fil205" points="12258.04,12451.99 -2389.28,2871.63 -2258.88,2638.99 "/>
    <polygon id="_208" class="fil206" points="12258.04,12451.99 -2284.96,2685.52 -2151.8,2454.74 "/>
    <polygon id="_209" class="fil207" points="12258.04,12451.99 -2178.44,2500.9 -2042.54,2272 "/>
    <polygon id="_210" class="fil208" points="12258.04,12451.99 -2069.72,2317.78 -1931.1,2090.8 "/>
    <polygon id="_211" class="fil209" points="12258.04,12451.99 -1958.83,2136.2 -1817.52,1911.18 "/>
    <polygon id="_212" class="fil210" points="12258.04,12451.99 -1845.78,1956.19 -1701.79,1733.16 "/>
    <polygon id="_213" class="fil211" points="12258.04,12451.99 -1730.59,1777.77 -1583.95,1556.76 "/>
    <polygon id="_214" class="fil212" points="12258.04,12451.99 -1613.28,1600.97 -1464,1382.02 "/>
    <polygon id="_215" class="fil213" points="12258.04,12451.99 -1493.86,1425.81 -1341.98,1208.96 "/>
    <polygon id="_216" class="fil214" points="12258.04,12451.99 -1372.35,1252.33 -1217.88,1037.61 "/>
    <polygon id="_217" class="fil215" points="12258.04,12451.99 -1248.78,1080.55 -1091.75,867.98 "/>
    <polygon id="_218" class="fil216" points="12258.04,12451.99 -1123.15,910.5 -963.58,700.12 "/>
    <polygon id="_219" class="fil217" points="12258.04,12451.99 -995.5,742.2 -833.41,534.04 "/>
    <polygon id="_220" class="fil218" points="12258.04,12451.99 -865.83,575.67 -701.26,369.77 "/>
    <polygon id="_221" class="fil219" points="12258.04,12451.99 -734.17,410.95 -567.13,207.33 "/>
    <polygon id="_222" class="fil220" points="12258.04,12451.99 -600.54,248.05 -431.06,46.75 "/>
    <polygon id="_223" class="fil221" points="12258.04,12451.99 -464.96,87.01 -293.07,-111.95 "/>
    <polygon id="_224" class="fil222" points="12258.04,12451.99 -327.45,-72.15 -153.16,-268.74 "/>
    <polygon id="_225" class="fil223" points="12258.04,12451.99 -188.02,-229.42 -11.38,-423.6 "/>
    <polygon id="_226" class="fil224" points="12258.04,12451.99 -46.71,-384.76 132.27,-576.5 "/>
    <polygon id="_227" class="fil225" points="12258.04,12451.99 96.47,-538.15 277.76,-727.43 "/>
    <polygon id="_228" class="fil226" points="12258.04,12451.99 241.5,-689.57 425.06,-876.35 "/>
    <polygon id="_229" class="fil227" points="12258.04,12451.99 388.35,-839 574.16,-1023.26 "/>
    <polygon id="_230" class="fil228" points="12258.04,12451.99 537,-986.4 725.04,-1168.12 "/>
    <polygon id="_231" class="fil229" points="12258.04,12451.99 687.43,-1131.77 877.67,-1310.91 "/>
    <polygon id="_232" class="fil230" points="12258.04,12451.99 839.62,-1275.08 1032.02,-1451.61 "/>
    <polygon id="_233" class="fil231" points="12258.04,12451.99 993.54,-1416.3 1188.08,-1590.2 "/>
    <polygon id="_234" class="fil232" points="12258.04,12451.99 1149.17,-1555.42 1345.81,-1726.66 "/>
    <polygon id="_235" class="fil233" points="12258.04,12451.99 1306.48,-1692.41 1505.21,-1860.97 "/>
    <polygon id="_236" class="fil234" points="12258.04,12451.99 1465.46,-1827.26 1666.23,-1993.11 "/>
    <polygon id="_237" class="fil235" points="12258.04,12451.99 1626.08,-1959.94 1828.87,-2123.05 "/>
    <polygon id="_238" class="fil236" points="12258.04,12451.99 1788.31,-2090.43 1993.08,-2250.78 "/>
    <polygon id="_239" class="fil237" points="12258.04,12451.99 1952.13,-2218.71 2158.86,-2376.28 "/>
    <polygon id="_240" class="fil238" points="12258.04,12451.99 2117.51,-2344.77 2326.17,-2499.53 "/>
    <polygon id="_241" class="fil239" points="12258.04,12451.99 2284.43,-2468.58 2494.98,-2620.51 "/>
    <polygon id="_242" class="fil240" points="12258.04,12451.99 2452.87,-2590.12 2665.28,-2739.2 "/>
    <polygon id="_243" class="fil241" points="12258.04,12451.99 2622.79,-2709.39 2837.03,-2855.59 "/>
    <polygon id="_244" class="fil242" points="12258.04,12451.99 2794.18,-2826.35 3010.21,-2969.65 "/>
    <polygon id="_245" class="fil243" points="12258.04,12451.99 2967,-2940.99 3184.8,-3081.38 "/>
    <polygon id="_246" class="fil244" points="12258.04,12451.99 3141.24,-3053.3 3360.76,-3190.74 "/>
    <polygon id="_247" class="fil245" points="12258.04,12451.99 3316.86,-3163.25 3538.08,-3297.73 "/>
    <polygon id="_248" class="fil246" points="12258.04,12451.99 3493.83,-3270.83 3716.71,-3402.33 "/>
    <polygon id="_249" class="fil247" points="12258.04,12451.99 3672.13,-3376.03 3896.65,-3504.52 "/>
    <polygon id="_250" class="fil248" points="12258.04,12451.99 3851.74,-3478.82 4077.85,-3604.3 "/>
    <polygon id="_251" class="fil249" points="12258.04,12451.99 4032.63,-3579.2 4260.29,-3701.63 "/>
    <polygon id="_252" class="fil250" points="12258.04,12451.99 4214.76,-3677.14 4443.95,-3796.51 "/>
    <polygon id="_253" class="fil251" points="12258.04,12451.99 4398.11,-3772.64 4628.8,-3888.93 "/>
    <polygon id="_254" class="fil252" points="12258.04,12451.99 4582.66,-3865.67 4814.8,-3978.87 "/>
    <polygon id="_255" class="fil251" points="12258.04,12451.99 4768.37,-3956.23 5001.93,-4066.31 "/>
    <polygon id="_256" class="fil250" points="12258.04,12451.99 4955.22,-4044.29 5190.16,-4151.25 "/>
    <polygon id="_257" class="fil249" points="12258.04,12451.99 5143.17,-4129.85 5379.47,-4233.66 "/>
    <polygon id="_258" class="fil248" points="12258.04,12451.99 5332.21,-4212.9 5569.82,-4313.54 "/>
    <polygon id="_259" class="fil247" points="12258.04,12451.99 5522.29,-4293.42 5761.18,-4390.88 "/>
    <polygon id="_260" class="fil246" points="12258.04,12451.99 5713.4,-4371.39 5953.53,-4465.67 "/>
    <polygon id="_261" class="fil245" points="12258.04,12451.99 5905.51,-4446.81 6146.84,-4537.88 "/>
    <polygon id="_262" class="fil244" points="12258.04,12451.99 6098.57,-4519.66 6341.08,-4607.51 "/>
    <polygon id="_263" class="fil243" points="12258.04,12451.99 6292.58,-4589.94 6536.21,-4674.56 "/>
    <polygon id="_264" class="fil242" points="12258.04,12451.99 6487.48,-4657.64 6732.21,-4739.01 "/>
    <polygon id="_265" class="fil241" points="12258.04,12451.99 6683.27,-4722.73 6929.06,-4800.85 "/>
    <polygon id="_266" class="fil240" points="12258.04,12451.99 6879.9,-4785.22 7126.71,-4860.06 "/>
    <polygon id="_267" class="fil239" points="12258.04,12451.99 7077.34,-4845.1 7325.13,-4916.66 "/>
    <polygon id="_268" class="fil238" points="12258.04,12451.99 7275.57,-4902.34 7524.31,-4970.61 "/>
    <polygon id="_269" class="fil237" points="12258.04,12451.99 7474.56,-4956.96 7724.21,-5021.92 "/>
    <polygon id="_270" class="fil236" points="12258.04,12451.99 7674.28,-5008.93 7924.79,-5070.58 "/>
    <polygon id="_271" class="fil235" points="12258.04,12451.99 7874.69,-5058.25 8126.03,-5116.58 "/>
    <polygon id="_272" class="fil234" points="12258.04,12451.99 8075.76,-5104.91 8327.9,-5159.91 "/>
    <polygon id="_273" class="fil233" points="12258.04,12451.99 8277.47,-5148.91 8530.37,-5200.57 "/>
    <polygon id="_274" class="fil232" points="12258.04,12451.99 8479.79,-5190.24 8733.4,-5238.55 "/>
    <polygon id="_275" class="fil231" points="12258.04,12451.99 8682.67,-5228.89 8936.96,-5273.84 "/>
    <polygon id="_276" class="fil230" points="12258.04,12451.99 8886.1,-5264.85 9141.03,-5306.45 "/>
    <polygon id="_277" class="fil229" points="12258.04,12451.99 9090.05,-5298.13 9345.58,-5336.36 "/>
    <polygon id="_278" class="fil228" points="12258.04,12451.99 9294.47,-5328.71 9550.56,-5363.57 "/>
    <polygon id="_279" class="fil227" points="12258.04,12451.99 9499.34,-5356.6 9755.96,-5388.07 "/>
    <polygon id="_280" class="fil226" points="12258.04,12451.99 9704.63,-5381.78 9961.73,-5409.87 "/>
    <polygon id="_281" class="fil225" points="12258.04,12451.99 9910.31,-5404.25 10167.86,-5428.96 "/>
    <polygon id="_282" class="fil224" points="12258.04,12451.99 10116.35,-5424.01 10374.3,-5445.33 "/>
    <polygon id="_283" class="fil223" points="12258.04,12451.99 10322.71,-5441.06 10581.03,-5458.98 "/>
    <polygon id="_284" class="fil222" points="12258.04,12451.99 10529.36,-5455.4 10788.01,-5469.92 "/>
    <polygon id="_285" class="fil221" points="12258.04,12451.99 10736.28,-5467.02 10995.22,-5478.14 "/>
    <polygon id="_286" class="fil220" points="12258.04,12451.99 10943.43,-5475.91 11202.61,-5483.63 "/>
    <polygon id="_287" class="fil219" points="12258.04,12451.99 11150.77,-5482.09 11410.17,-5486.41 "/>
    <polygon id="_288" class="fil218" points="12258.04,12451.99 11358.29,-5485.54 11617.86,-5486.46 "/>
    <polygon id="_289" class="fil217" points="12258.04,12451.99 11565.94,-5486.27 11825.64,-5483.79 "/>
    <polygon id="_290" class="fil216" points="12258.04,12451.99 11773.7,-5484.28 12033.49,-5478.39 "/>
    <polygon id="_291" class="fil215" points="12258.04,12451.99 11981.53,-5479.57 12241.37,-5470.28 "/>
    <polygon id="_292" class="fil214" points="12258.04,12451.99 12189.4,-5472.13 12449.26,-5459.44 "/>
    <polygon id="_293" class="fil213" points="12258.04,12451.99 12397.28,-5461.98 12657.11,-5445.89 "/>
    <polygon id="_294" class="fil212" points="12258.04,12451.99 12605.14,-5449.1 12864.91,-5429.61 "/>
    <polygon id="_295" class="fil211" points="12258.04,12451.99 12812.95,-5433.51 13072.61,-5410.63 "/>
    <polygon id="_296" class="fil210" points="12258.04,12451.99 13020.68,-5415.21 13280.19,-5388.93 "/>
    <polygon id="_297" class="fil209" points="12258.04,12451.99 13228.29,-5394.19 13487.62,-5364.53 "/>
    <polygon id="_298" class="fil208" points="12258.04,12451.99 13435.75,-5370.46 13694.85,-5337.42 "/>
    <polygon id="_299" class="fil207" points="12258.04,12451.99 13643.03,-5344.03 13901.87,-5307.61 "/>
    <polygon id="_300" class="fil206" points="12258.04,12451.99 13850.1,-5314.9 14108.65,-5275.11 "/>
    <polygon id="_301" class="fil205" points="12258.04,12451.99 14056.93,-5283.07 14315.13,-5239.91 "/>
    <polygon id="_302" class="fil204" points="12258.04,12451.99 14263.49,-5248.54 14521.31,-5202.03 "/>
    <polygon id="_303" class="fil203" points="12258.04,12451.99 14469.75,-5211.34 14727.15,-5161.47 "/>
    <polygon id="_304" class="fil202" points="12258.04,12451.99 14675.66,-5171.45 14932.61,-5118.24 "/>
    <polygon id="_305" class="fil201" points="12258.04,12451.99 14881.22,-5128.88 15137.66,-5072.34 "/>
    <polygon id="_306" class="fil200" points="12258.04,12451.99 15086.37,-5083.65 15342.27,-5023.78 "/>
    <polygon id="_307" class="fil199" points="12258.04,12451.99 15291.09,-5035.76 15546.42,-4972.57 "/>
    <polygon id="_308" class="fil198" points="12258.04,12451.99 15495.35,-4985.21 15750.07,-4918.71 "/>
    <polygon id="_309" class="fil197" points="12258.04,12451.99 15699.13,-4932.01 15953.19,-4862.22 "/>
    <polygon id="_310" class="fil196" points="12258.04,12451.99 15902.38,-4876.18 16155.75,-4803.1 "/>
    <polygon id="_311" class="fil195" points="12258.04,12451.99 16105.07,-4817.72 16357.72,-4741.36 "/>
    <polygon id="_312" class="fil194" points="12258.04,12451.99 16307.18,-4756.63 16559.06,-4677.01 "/>
    <polygon id="_313" class="fil193" points="12258.04,12451.99 16508.68,-4692.93 16759.75,-4610.06 "/>
    <polygon id="_314" class="fil192" points="12258.04,12451.99 16709.54,-4626.63 16959.76,-4540.52 "/>
    <polygon id="_315" class="fil191" points="12258.04,12451.99 16909.71,-4557.74 17159.05,-4468.4 "/>
    <polygon id="_316" class="fil190" points="12258.04,12451.99 17109.18,-4486.27 17357.6,-4393.72 "/>
    <polygon id="_317" class="fil189" points="12258.04,12451.99 17307.92,-4412.23 17555.38,-4316.47 "/>
    <polygon id="_318" class="fil188" points="12258.04,12451.99 17505.89,-4335.62 17752.35,-4236.68 "/>
    <polygon id="_319" class="fil187" points="12258.04,12451.99 17703.06,-4256.47 17948.49,-4154.36 "/>
    <polygon id="_320" class="fil186" points="12258.04,12451.99 17899.4,-4174.79 18143.77,-4069.52 "/>
    <polygon id="_321" class="fil185" points="12258.04,12451.99 18094.89,-4090.57 18338.15,-3982.17 "/>
    <polygon id="_322" class="fil184" points="12258.04,12451.99 18289.5,-4003.85 18531.61,-3892.33 "/>
    <polygon id="_323" class="fil183" points="12258.04,12451.99 18483.18,-3914.63 18724.11,-3800 "/>
    <polygon id="_324" class="fil182" points="12258.04,12451.99 18675.93,-3822.93 18915.64,-3705.21 "/>
    <polygon id="_325" class="fil181" points="12258.04,12451.99 18867.7,-3728.76 19106.15,-3607.97 "/>
    <polygon id="_326" class="fil180" points="12258.04,12451.99 19058.46,-3632.13 19295.63,-3508.29 "/>
    <polygon id="_327" class="fil179" points="12258.04,12451.99 19248.19,-3533.05 19484.04,-3406.18 "/>
    <polygon id="_328" class="fil178" points="12258.04,12451.99 19436.87,-3431.56 19671.35,-3301.67 "/>
    <polygon id="_329" class="fil177" points="12258.04,12451.99 19624.45,-3327.65 19857.53,-3194.77 "/>
    <polygon id="_330" class="fil176" points="12258.04,12451.99 19810.91,-3221.35 20042.56,-3085.49 "/>
    <polygon id="_331" class="fil175" points="12258.04,12451.99 19996.23,-3112.66 20226.42,-2973.86 "/>
    <polygon id="_332" class="fil174" points="12258.04,12451.99 20180.38,-3001.62 20409.06,-2859.88 "/>
    <polygon id="_333" class="fil173" points="12258.04,12451.99 20363.32,-2888.23 20590.46,-2743.58 "/>
    <polygon id="_334" class="fil172" points="12258.04,12451.99 20545.03,-2772.51 20770.6,-2624.97 "/>
    <polygon id="_335" class="fil171" points="12258.04,12451.99 20725.48,-2654.48 20949.45,-2504.08 "/>
    <polygon id="_336" class="fil170" points="12258.04,12451.99 20904.65,-2534.16 21126.97,-2380.91 "/>
    <polygon id="_337" class="fil169" points="12258.04,12451.99 21082.51,-2411.56 21303.15,-2255.5 "/>
    <polygon id="_338" class="fil168" points="12258.04,12451.99 21259.02,-2286.71 21477.96,-2127.85 "/>
    <polygon id="_339" class="fil167" points="12258.04,12451.99 21434.17,-2159.62 21651.37,-1997.99 "/>
    <polygon id="_340" class="fil166" points="12258.04,12451.99 21607.93,-2030.32 21823.36,-1865.93 "/>
    <polygon id="_341" class="fil165" points="12258.04,12451.99 21780.27,-1898.81 21993.89,-1731.7 "/>
    <polygon id="_342" class="fil164" points="12258.04,12451.99 21951.16,-1765.13 22162.94,-1595.32 "/>
    <polygon id="_343" class="fil163" points="12258.04,12451.99 22120.58,-1629.29 22330.49,-1456.81 "/>
    <polygon id="_344" class="fil162" points="12258.04,12451.99 22288.51,-1491.31 22496.51,-1316.19 "/>
    <polygon id="_345" class="fil161" points="12258.04,12451.99 22454.91,-1351.21 22660.98,-1173.47 "/>
    <polygon id="_346" class="fil160" points="12258.04,12451.99 22619.77,-1209.02 22823.87,-1028.69 "/>
    <polygon id="_347" class="fil159" points="12258.04,12451.99 22783.05,-1064.76 22985.16,-881.86 "/>
    <polygon id="_348" class="fil158" points="12258.04,12451.99 22944.73,-918.44 23144.81,-733.01 "/>
    <polygon id="_349" class="fil157" points="12258.04,12451.99 23104.8,-770.1 23302.82,-582.16 "/>
    <polygon id="_350" class="fil156" points="12258.04,12451.99 23263.21,-619.75 23459.15,-429.33 "/>
    <polygon id="_351" class="fil155" points="12258.04,12451.99 23419.96,-467.41 23613.78,-274.54 "/>
    <polygon id="_352" class="fil154" points="12258.04,12451.99 23575.01,-313.12 23766.68,-117.82 "/>
    <polygon id="_353" class="fil153" points="12258.04,12451.99 23728.35,-156.88 23917.84,40.8 "/>
    <polygon id="_354" class="fil152" points="12258.04,12451.99 23879.94,1.26 24067.23,201.31 "/>
    <polygon id="_355" class="fil151" points="12258.04,12451.99 24029.77,161.3 24214.82,363.68 "/>
    <polygon id="_356" class="fil150" points="12258.04,12451.99 24177.81,323.2 24360.6,527.89 "/>
    <polygon id="_357" class="fil149" points="12258.04,12451.99 24324.04,486.95 24504.55,693.9 "/>
    <polygon id="_358" class="fil148" points="12258.04,12451.99 24468.45,652.51 24646.63,861.7 "/>
    <polygon id="_359" class="fil147" points="12258.04,12451.99 24610.99,819.86 24786.84,1031.25 "/>
    <polygon id="_360" class="fil146" points="12258.04,12451.99 24751.67,988.97 24925.14,1202.55 "/>
    <polygon id="_361" class="fil145" points="12258.04,12451.99 24890.45,1159.83 25061.52,1375.54 "/>
    <polygon id="_362" class="fil144" points="12258.04,12451.99 25027.31,1332.4 25195.96,1550.22 "/>
    <polygon id="_363" class="fil143" points="12258.04,12451.99 25162.23,1506.66 25328.43,1726.56 "/>
    <polygon id="_364" class="fil142" points="12258.04,12451.99 25295.19,1682.58 25458.92,1904.52 "/>
    <polygon id="_365" class="fil141" points="12258.04,12451.99 25426.18,1860.13 25587.41,2084.08 "/>
    <polygon id="_366" class="fil140" points="12258.04,12451.99 25555.16,2039.29 25713.87,2265.22 "/>
    <polygon id="_367" class="fil139" points="12258.04,12451.99 25682.13,2220.03 25838.29,2447.9 "/>
    <polygon id="_368" class="fil138" points="12258.04,12451.99 25807.06,2402.33 25960.65,2632.1 "/>
    <polygon id="_369" class="fil137" points="12258.04,12451.99 25929.93,2586.15 26080.93,2817.79 "/>
    <polygon id="_370" class="fil136" points="12258.04,12451.99 26050.73,2771.46 26199.11,3004.95 "/>
    <polygon id="_371" class="fil135" points="12258.04,12451.99 26169.44,2958.25 26315.18,3193.54 "/>
    <polygon id="_372" class="fil134" points="12258.04,12451.99 26286.03,3146.48 26429.11,3383.53 "/>
    <polygon id="_373" class="fil133" points="12258.04,12451.99 26400.5,3336.12 26540.89,3574.9 "/>
    <polygon id="_374" class="fil132" points="12258.04,12451.99 26512.81,3527.14 26650.51,3767.62 "/>
    <polygon id="_375" class="fil131" points="12258.04,12451.99 26622.97,3719.52 26757.94,3961.65 "/>
    <polygon id="_376" class="fil130" points="12258.04,12451.99 26730.94,3913.22 26863.17,4156.97 "/>
    <polygon id="_377" class="fil129" points="12258.04,12451.99 26836.72,4108.22 26966.18,4353.56 "/>
    <polygon id="_378" class="fil128" points="12258.04,12451.99 26940.28,4304.49 27066.96,4551.37 "/>
    <polygon id="_379" class="fil127" points="12258.04,12451.99 27041.62,4501.99 27165.49,4750.38 "/>
    <polygon id="_380" class="fil126" points="12258.04,12451.99 27140.71,4700.7 27261.76,4950.56 "/>
    <polygon id="_381" class="fil125" points="12258.04,12451.99 27237.55,4900.59 27355.75,5151.88 "/>
    <polygon id="_382" class="fil124" points="12258.04,12451.99 27332.11,5101.62 27447.45,5354.3 "/>
    <polygon id="_383" class="fil123" points="12258.04,12451.99 27424.38,5303.76 27536.84,5557.81 "/>
    <polygon id="_384" class="fil122" points="12258.04,12451.99 27514.35,5507 27623.92,5762.36 "/>
    <polygon id="_385" class="fil121" points="12258.04,12451.99 27602,5711.28 27708.66,5967.92 "/>
    <polygon id="_386" class="fil120" points="12258.04,12451.99 27687.33,5916.59 27791.06,6174.47 "/>
    <polygon id="_387" class="fil119" points="12258.04,12451.99 27770.31,6122.9 27871.1,6381.98 "/>
    <polygon id="_388" class="fil118" points="12258.04,12451.99 27850.94,6330.16 27948.77,6590.4 "/>
    <polygon id="_389" class="fil117" points="12258.04,12451.99 27929.2,6538.35 28024.06,6799.71 "/>
    <polygon id="_390" class="fil116" points="12258.04,12451.99 28005.09,6747.44 28096.96,7009.88 "/>
    <polygon id="_391" class="fil115" points="12258.04,12451.99 28078.58,6957.39 28167.45,7220.88 "/>
    <polygon id="_392" class="fil114" points="12258.04,12451.99 28149.67,7168.18 28235.53,7432.67 "/>
    <polygon id="_393" class="fil113" points="12258.04,12451.99 28218.35,7379.77 28301.18,7645.23 "/>
    <polygon id="_394" class="fil112" points="12258.04,12451.99 28284.61,7592.13 28364.4,7858.51 "/>
    <polygon id="_395" class="fil111" points="12258.04,12451.99 28348.44,7805.23 28425.17,8072.49 "/>
    <polygon id="_396" class="fil110" points="12258.04,12451.99 28409.82,8019.03 28483.49,8287.13 "/>
    <polygon id="_397" class="fil109" points="12258.04,12451.99 28468.75,8233.51 28539.34,8502.41 "/>
    <polygon id="_398" class="fil108" points="12258.04,12451.99 28525.23,8448.63 28592.73,8718.29 "/>
    <polygon id="_399" class="fil107" points="12258.04,12451.99 28579.23,8664.35 28643.63,8934.73 "/>
    <polygon id="_400" class="fil106" points="12258.04,12451.99 28630.75,8880.65 28692.05,9151.71 "/>
    <polygon id="_401" class="fil105" points="12258.04,12451.99 28679.79,9097.49 28737.98,9369.18 "/>
    <polygon id="_402" class="fil104" points="12258.04,12451.99 28726.34,9314.84 28781.4,9587.13 "/>
    <polygon id="_403" class="fil103" points="12258.04,12451.99 28770.39,9532.67 28822.32,9805.51 "/>
    <polygon id="_404" class="fil102" points="12258.04,12451.99 28811.93,9750.94 28860.72,10024.29 "/>
    <polygon id="_405" class="fil101" points="12258.04,12451.99 28850.96,9969.62 28896.6,10243.44 "/>
    <polygon id="_406" class="fil100" points="12258.04,12451.99 28887.47,10188.67 28929.96,10462.93 "/>
    <polygon id="_407" class="fil99" points="12258.04,12451.99 28921.46,10408.07 28960.78,10682.71 "/>
    <polygon id="_408" class="fil98" points="12258.04,12451.99 28952.92,10627.78 28989.07,10902.77 "/>
    <polygon id="_409" class="fil97" points="12258.04,12451.99 28981.84,10847.77 29014.82,11123.06 "/>
    <polygon id="_410" class="fil96" points="12258.04,12451.99 29008.22,11068 29038.03,11343.56 "/>
    <polygon id="_411" class="fil95" points="12258.04,12451.99 29032.07,11288.44 29058.69,11564.22 "/>
    <polygon id="_412" class="fil94" points="12258.04,12451.99 29053.37,11509.06 29076.8,11785.01 "/>
    <polygon id="_413" class="fil93" points="12258.04,12451.99 29072.11,11729.82 29092.36,12005.91 "/>
    <polygon id="_414" class="fil92" points="12258.04,12451.99 29088.31,11950.69 29105.36,12226.88 "/>
    <polygon id="_415" class="fil91" points="12258.04,12451.99 29101.95,12171.64 29115.81,12447.87 "/>
    <polygon id="_416" class="fil90" points="12258.04,12451.99 29113.04,12392.62 29123.69,12668.87 "/>
    <polygon id="_417" class="fil89" points="12258.04,12451.99 29121.56,12613.62 29129.02,12889.84 "/>
    <polygon id="_418" class="fil88" points="12258.04,12451.99 29127.53,12834.6 29131.79,13110.74 "/>
    <polygon id="_419" class="fil87" points="12258.04,12451.99 29130.94,13055.51 29131.99,13331.54 "/>
    <polygon id="_420" class="fil86" points="12258.04,12451.99 29131.78,13276.33 29129.64,13552.21 "/>
    <polygon id="_421" class="fil85" points="12258.04,12451.99 29130.07,13497.03 29124.72,13772.71 "/>
    <polygon id="_422" class="fil84" points="12258.04,12451.99 29125.79,13717.57 29117.24,13993.01 "/>
    <polygon id="_423" class="fil83" points="12258.04,12451.99 29118.95,13937.92 29107.21,14213.07 "/>
    <polygon id="_424" class="fil82" points="12258.04,12451.99 29109.56,14158.04 29094.62,14432.87 "/>
    <polygon id="_425" class="fil81" points="12258.04,12451.99 29097.6,14377.9 29079.47,14652.37 "/>
    <polygon id="_426" class="fil80" points="12258.04,12451.99 29083.09,14597.47 29061.77,14871.53 "/>
    <polygon id="_427" class="fil79" points="12258.04,12451.99 29066.03,14816.72 29041.51,15090.33 "/>
    <polygon id="_428" class="fil78" points="12258.04,12451.99 29046.42,15035.61 29018.71,15308.73 "/>
    <polygon id="_429" class="fil77" points="12258.04,12451.99 29024.26,15254.1 28993.37,15526.69 "/>
    <polygon id="_430" class="fil76" points="12258.04,12451.99 28999.55,15472.17 28965.49,15744.18 "/>
    <polygon id="_431" class="fil75" points="12258.04,12451.99 28972.3,15689.78 28935.07,15961.18 "/>
    <polygon id="_432" class="fil74" points="12258.04,12451.99 28942.52,15906.9 28902.12,16177.64 "/>
    <polygon id="_433" class="fil73" points="12258.04,12451.99 28910.2,16123.49 28866.64,16393.54 "/>
    <polygon id="_434" class="fil72" points="12258.04,12451.99 28875.35,16339.53 28828.64,16608.84 "/>
    <polygon id="_435" class="fil71" points="12258.04,12451.99 28837.99,16554.98 28788.13,16823.51 "/>
    <polygon id="_436" class="fil70" points="12258.04,12451.99 28798.1,16769.8 28745.11,17037.51 "/>
    <polygon id="_437" class="fil69" points="12258.04,12451.99 28755.71,16983.97 28699.59,17250.82 "/>
    <polygon id="_438" class="fil68" points="12258.04,12451.99 28710.81,17197.45 28651.57,17463.4 "/>
    <polygon id="_439" class="fil67" points="12258.04,12451.99 28663.42,17410.21 28601.06,17675.22 "/>
    <polygon id="_440" class="fil66" points="12258.04,12451.99 28613.53,17622.22 28548.07,17886.25 "/>
    <polygon id="_441" class="fil65" points="12258.04,12451.99 28561.16,17833.44 28492.61,18096.46 "/>
    <polygon id="_442" class="fil64" points="12258.04,12451.99 28506.32,18043.85 28434.69,18305.8 "/>
    <polygon id="_443" class="fil63" points="12258.04,12451.99 28449.01,18253.41 28374.31,18514.26 "/>
    <polygon id="_444" class="fil62" points="12258.04,12451.99 28389.25,18462.09 28311.48,18721.8 "/>
    <polygon id="_445" class="fil61" points="12258.04,12451.99 28327.03,18669.85 28246.22,18928.38 "/>
    <polygon id="_446" class="fil60" points="12258.04,12451.99 28262.38,18876.67 28178.53,19133.98 "/>
    <polygon id="_447" class="fil59" points="12258.04,12451.99 28195.3,19082.52 28108.42,19338.57 "/>
    <polygon id="_448" class="fil59" points="12258.04,12451.99 28125.8,19287.36 28035.91,19542.12 "/>
    <polygon id="_449" class="fil58" points="12258.04,12451.99 28053.89,19491.16 27961,19744.58 "/>
    <polygon id="_450" class="fil57" points="12258.04,12451.99 27979.58,19693.9 27883.72,19945.94 "/>
    <polygon id="_451" class="fil57" points="12258.04,12451.99 27902.89,19895.53 27804.05,20146.17 "/>
    <polygon id="_452" class="fil56" points="12258.04,12451.99 27823.82,20096.04 27722.03,20345.22 "/>
    <polygon id="_453" class="fil55" points="12258.04,12451.99 27742.39,20295.38 27637.66,20543.08 "/>
    <polygon id="_454" class="fil54" points="12258.04,12451.99 27658.61,20493.54 27550.96,20739.71 "/>
    <polygon id="_455" class="fil53" points="12258.04,12451.99 27572.49,20690.47 27461.94,20935.08 "/>
    <polygon id="_456" class="fil52" points="12258.04,12451.99 27484.05,20886.15 27370.61,21129.16 "/>
    <polygon id="_457" class="fil51" points="12258.04,12451.99 27393.3,21080.56 27276.98,21321.93 "/>
    <polygon id="_458" class="fil50" points="12258.04,12451.99 27300.25,21273.65 27181.08,21513.35 "/>
    <polygon id="_459" class="fil49" points="12258.04,12451.99 27204.91,21465.41 27082.91,21703.39 "/>
    <polygon id="_460" class="fil48" points="12258.04,12451.99 27107.31,21655.79 26982.49,21892.03 "/>
    <polygon id="_461" class="fil47" points="12258.04,12451.99 27007.45,21844.78 26879.83,22079.24 "/>
    <polygon id="_462" class="fil46" points="12258.04,12451.99 26905.36,22032.35 26774.96,22264.99 "/>
    <polygon id="_463" class="fil45" points="12258.04,12451.99 26801.04,22218.46 26667.88,22449.25 "/>
    <polygon id="_464" class="fil44" points="12258.04,12451.99 26694.52,22403.09 26558.62,22631.98 "/>
    <polygon id="_465" class="fil43" points="12258.04,12451.99 26585.8,22586.2 26447.18,22813.18 "/>
    <polygon id="_466" class="fil42" points="12258.04,12451.99 26474.91,22767.78 26333.6,22992.8 "/>
    <polygon id="_467" class="fil41" points="12258.04,12451.99 26361.86,22947.8 26217.87,23170.82 "/>
    <polygon id="_468" class="fil40" points="12258.04,12451.99 26246.67,23126.22 26100.03,23347.22 "/>
    <polygon id="_469" class="fil39" points="12258.04,12451.99 26129.36,23303.02 25980.08,23521.96 "/>
    <polygon id="_470" class="fil38" points="12258.04,12451.99 26009.94,23478.17 25858.06,23695.02 "/>
    <polygon id="_471" class="fil37" points="12258.04,12451.99 25888.43,23651.65 25733.96,23866.38 "/>
    <polygon id="_472" class="fil36" points="12258.04,12451.99 25764.86,23823.43 25607.83,24036 "/>
    <polygon id="_473" class="fil35" points="12258.04,12451.99 25639.23,23993.48 25479.66,24203.86 "/>
    <polygon id="_474" class="fil34" points="12258.04,12451.99 25511.58,24161.79 25349.49,24369.94 "/>
    <polygon id="_475" class="fil33" points="12258.04,12451.99 25381.91,24328.31 25217.34,24534.22 "/>
    <polygon id="_476" class="fil32" points="12258.04,12451.99 25250.25,24493.03 25083.21,24696.65 "/>
    <polygon id="_477" class="fil31" points="12258.04,12451.99 25116.62,24655.93 24947.14,24857.23 "/>
    <polygon id="_478" class="fil30" points="12258.04,12451.99 24981.04,24816.97 24809.15,25015.93 "/>
    <polygon id="_479" class="fil29" points="12258.04,12451.99 24843.53,24976.14 24669.24,25172.72 "/>
    <polygon id="_480" class="fil28" points="12258.04,12451.99 24704.1,25133.4 24527.46,25327.58 "/>
    <polygon id="_481" class="fil27" points="12258.04,12451.99 24562.79,25288.74 24383.81,25480.48 "/>
    <polygon id="_482" class="fil26" points="12258.04,12451.99 24419.61,25442.13 24238.32,25631.41 "/>
    <polygon id="_483" class="fil25" points="12258.04,12451.99 24274.58,25593.55 24091.02,25780.34 "/>
    <polygon id="_484" class="fil24" points="12258.04,12451.99 24127.73,25742.98 23941.92,25927.24 "/>
    <polygon id="_485" class="fil23" points="12258.04,12451.99 23979.08,25890.39 23791.04,26072.1 "/>
    <polygon id="_486" class="fil22" points="12258.04,12451.99 23828.65,26035.75 23638.41,26214.89 "/>
    <polygon id="_487" class="fil21" points="12258.04,12451.99 23676.46,26179.06 23484.06,26355.59 "/>
    <polygon id="_488" class="fil20" points="12258.04,12451.99 23522.54,26320.28 23328,26494.18 "/>
    <polygon id="_489" class="fil19" points="12258.04,12451.99 23366.91,26459.4 23170.27,26630.64 "/>
    <polygon id="_490" class="fil18" points="12258.04,12451.99 23209.6,26596.39 23010.87,26764.95 "/>
    <polygon id="_491" class="fil17" points="12258.04,12451.99 23050.62,26731.24 22849.85,26897.09 "/>
    <polygon id="_492" class="fil16" points="12258.04,12451.99 22890,26863.92 22687.21,27027.03 "/>
    <polygon id="_493" class="fil15" points="12258.04,12451.99 22727.77,26994.41 22523,27154.76 "/>
    <polygon id="_494" class="fil14" points="12258.04,12451.99 22563.95,27122.69 22357.22,27280.26 "/>
    <polygon id="_495" class="fil13" points="12258.04,12451.99 22398.57,27248.75 22189.91,27403.51 "/>
    <polygon id="_496" class="fil12" points="12258.04,12451.99 22231.65,27372.56 22021.1,27524.49 "/>
    <polygon id="_497" class="fil11" points="12258.04,12451.99 22063.21,27494.11 21850.8,27643.19 "/>
    <polygon id="_498" class="fil10" points="12258.04,12451.99 21893.29,27613.37 21679.05,27759.57 "/>
    <polygon id="_499" class="fil9" points="12258.04,12451.99 21721.9,27730.33 21505.87,27873.64 "/>
    <polygon id="_500" class="fil8" points="12258.04,12451.99 21549.08,27844.97 21331.28,27985.36 "/>
    <polygon id="_501" class="fil7" points="12258.04,12451.99 21374.84,27957.28 21155.32,28094.72 "/>
    <polygon id="_502" class="fil6" points="12258.04,12451.99 21199.22,28067.23 20978,28201.71 "/>
    <polygon id="_503" class="fil5" points="12258.04,12451.99 21022.25,28174.82 20799.37,28306.31 "/>
    <polygon id="_504" class="fil4" points="12258.04,12451.99 20843.95,28280.01 20619.43,28408.51 "/>
    <polygon id="_505" class="fil3" points="12258.04,12451.99 20664.34,28382.81 20438.23,28508.28 "/>
    <polygon id="_506" class="fil2" points="12258.04,12451.99 20483.45,28483.18 20255.79,28605.61 "/>
    <polygon id="_507" class="fil1" points="12258.04,12451.99 20301.32,28581.13 20072.13,28700.5 "/>
    <polygon id="_508" class="fil0" points="12258.04,12451.99 20117.97,28676.62 19887.28,28792.91 "/>
    <polygon id="_509" class="fil253" points="12258.04,12451.99 19933.42,28769.65 19747.71,28860.21 "/>
   </g>
  </g>
  <path class="fil254" d="M4793.15 13151.2l1503.39 175.91c-56.85,608.53 -111.25,2364.45 1.55,2938.4 144.77,736.27 958.51,1282.28 1753.67,826.6 748.05,-428.71 614.36,-1273.65 617.87,-2325.95 5.31,-1583.95 2.81,-1205.75 -541.25,-2373.79 230.41,-17.7 533.78,-57.01 759.39,-51.61l799.49 181.61c-523.43,330.75 -734.03,3.74 -918.69,601.27 1420.92,906.49 3084.64,-1776.65 -623.27,-1308.56 -1546.59,195.24 -4362.4,-747.46 -3352.15,1336.12zm440.21 -637.42l643.54 198.74c1403.64,113.87 1872.17,-376.34 1886,2047.44 4.45,783.16 225.71,1231.56 -434,1480.8 -492.68,-767.68 207.07,-2478.73 -440.94,-2723.92 -606.11,3744.28 1201.83,3932.93 1211.64,1848.68 6.95,-1484.49 300.26,-2868.48 -1458.45,-3005.76 -553.82,-43.27 -994.36,-93.47 -1407.79,154.02z"/>
  <path class="fil254" d="M15214.37 13151.2l1503.37 175.93c-56.83,608.53 -111.23,2364.45 1.58,2938.38 144.77,736.29 958.51,1282.3 1753.66,826.6 748.03,-428.71 614.34,-1273.63 617.87,-2325.95 5.29,-1583.93 2.79,-1205.73 -541.27,-2373.77 230.42,-17.7 533.8,-57.01 759.42,-51.61l799.48 181.61c-523.44,330.75 -734.04,3.74 -918.71,601.28 1420.92,906.46 3084.64,-1776.68 -623.25,-1308.59 -1546.59,195.24 -4362.41,-747.44 -3352.15,1336.12zm440.2 -637.4l643.55 198.76c1403.65,113.87 1872.15,-376.33 1886,2047.45 4.45,783.13 225.7,1231.53 -434.02,1480.8 -492.67,-767.71 207.07,-2478.74 -440.94,-2723.93 -606.11,3744.26 1201.85,3932.93 1211.64,1848.69 6.97,-1484.5 300.29,-2868.49 -1458.42,-3005.79 -553.83,-43.25 -994.39,-93.47 -1407.81,154.02z"/>
 </g>
</svg>
