<?xml version="1.0" encoding="UTF-8"?>
<!DOCTYPE svg PUBLIC "-//W3C//DTD SVG 1.1//EN" "http://www.w3.org/Graphics/SVG/1.1/DTD/svg11.dtd">
<!-- Creator: CorelDRAW (Versión de evaluación) -->
<svg xmlns="http://www.w3.org/2000/svg" xml:space="preserve" width="32" height="32" version="1.1" style="shape-rendering:geometricPrecision; text-rendering:geometricPrecision; image-rendering:optimizeQuality; fill-rule:evenodd; clip-rule:evenodd"
viewBox="0 0 32 32"
 xmlns:xlink="http://www.w3.org/1999/xlink"
 xmlns:xodm="http://www.corel.com/coreldraw/odm/2003">
 <defs>
  <style type="text/css">
   <![CDATA[
    .str0 {stroke:#191827;stroke-width:20;stroke-miterlimit:22.9256}
    .fil1 {fill:#191827;fill-rule:nonzero}
    .fil0 {fill:white;fill-rule:nonzero}
   ]]>
  </style>
 </defs>
 <g id="Capa_x0020_1">
  <metadata id="CorelCorpID_0Corel-Layer"/>
  <path class="fil0 str0" d="M10477.5 13546.67l635 0c58.44,0 105.83,47.39 105.83,105.83l0 635c0,58.43 -47.39,105.82 -105.83,105.82l-635 0.01c-58.43,-0.01 -105.82,-47.4 -105.82,-105.84l-0.01 -634.99c0.01,-58.44 47.4,-105.83 105.84,-105.83z"/>
  <path class="fil1" d="M10934.72 14234.58l-281.65 0 56.23 -235.57c1.63,-6.68 -0.1,-9.61 -5.39,-13.31 -44.71,-31.23 -68.62,-74.76 -67.63,-128.67 1.46,-79.26 58.45,-134.95 126.2,-149.03 58.32,-12.13 138.03,18.62 168.91,90.25 28.06,65.09 8.05,140.81 -49.61,183.6 -5.4,4.01 -6.38,7.33 -4.85,13.57l57.79 239.16z"/>
 </g>
</svg>
