<?xml version="1.0" encoding="UTF-8"?>
<!DOCTYPE svg PUBLIC "-//W3C//DTD SVG 1.1//EN" "http://www.w3.org/Graphics/SVG/1.1/DTD/svg11.dtd">
<!-- Creator: CorelDRAW (Versión de evaluación) -->
<svg xmlns="http://www.w3.org/2000/svg" xml:space="preserve" width="2.54mm" height="2.54mm" version="1.1" style="shape-rendering:geometricPrecision; text-rendering:geometricPrecision; image-rendering:optimizeQuality; fill-rule:evenodd; clip-rule:evenodd"
viewBox="0 0 254 254"
 xmlns:xlink="http://www.w3.org/1999/xlink"
 xmlns:xodm="http://www.corel.com/coreldraw/odm/2003">
 <defs>
  <style type="text/css">
   <![CDATA[
    .fil6 {fill:#632D02}
    .fil0 {fill:#743A03}
    .fil4 {fill:#AC5303}
    .fil7 {fill:#CA620A}
    .fil3 {fill:#E47B0B}
    .fil5 {fill:#FCBC0C}
    .fil1 {fill:#FDF40B}
    .fil2 {fill:#FED30B}
   ]]>
  </style>
 </defs>
 <g id="Capa_x0020_1">
  <metadata id="CorelCorpID_0Corel-Layer"/>
  <g id="_2158534882640">
   <path class="fil0" d="M110.04 152.64c-0.76,-0.72 -0.76,0.12 -1.96,-1.89 -4.43,1.24 -8.1,0.3 -12.21,1.41 -1.35,0.36 -3.19,1.4 -4.93,1.92l-29 4.27c-13.09,-0.31 -12.73,-1.08 -22.5,-4.9 -1.92,-0.75 -3.08,-0.9 -4.89,-2.01l-12.83 -10.23c-0.42,-0.66 -0.63,-1.23 -1.09,-1.84 -1.88,-2.53 -2.01,-1.6 -3.2,-3.56 -7.71,-12.63 -9.28,-39.73 0.43,-54.41 3.18,-4.84 9.16,-7.86 12.58,-10.8 1.57,-1.34 0.42,0 1.72,-1.72 -12.23,2.09 -24.37,21.66 -26.78,34.56 -6.49,34.64 21.16,61.28 57.6,64.22 14.52,1.18 40.74,-6.7 47.06,-15.02z"/>
   <path class="fil1" d="M36.02 83.35c14.94,-9.95 40.71,-2.38 50.25,6.43 2.14,2.36 1.49,1.22 3.85,3.15 1.62,1.33 2.48,2.28 3.97,3.75 1.56,1.53 2.41,2.31 4.01,3.7l4.09 3.87c3.55,2.82 5.84,6.35 9.06,10.05 2.82,3.24 5.13,8.35 9.59,9.72 3.61,-1.69 6.58,-5.77 6.84,-10.01 -3.19,-3.64 -6.19,-8.83 -9.9,-11.88 -3.61,-2.02 -2.06,-1.43 -4.33,-4.27l-12.25 -10.98c-15.89,-10.84 -25.99,-16.57 -48.15,-14.65 -8.14,0.71 -11.74,3.35 -17.15,6.46 -4.35,2.52 -3.51,0.61 -4.81,5.21l4.93 -0.55z"/>
   <path class="fil2" d="M213.69 76.48c2.41,2.51 3.69,2.09 6.55,4.5 16.59,13.98 13.69,21.63 14.53,31.56 0.64,7.64 2.96,16.52 -6.2,27.36 -3.64,4.3 -7.74,7.79 -12.47,10.73 -10.67,6.64 -28.2,7.48 -39.18,3.65 -2.48,-0.86 -5.66,-2.12 -8.2,-3.45l-3.74 -2.03c-3.12,-1.6 -1.66,-1.35 -5.85,-2 2.24,4 1.97,3.45 6.55,5.38l7.07 2.28c-2.55,2.84 0.04,1.22 -3.76,2.45l-10.51 -0.69c-3.83,-0.92 -7.01,-2.59 -10.23,-4.41 -9.11,-5.13 -11.42,-9.63 -16.61,-13.56 0.66,3.58 3.02,7.09 6.13,9.34 4.23,3.04 1.35,1.26 3.69,1.12 10.92,4.54 11.99,14.77 53.99,11.99 8.3,-0.55 12.56,-3.12 19.99,-3.85 2.87,0.18 4.07,-1.29 6.08,-2.8 2.81,-2.13 4.31,-2.02 6.76,-3.96 4.61,-3.63 9.95,-12.76 12.26,-17.75 1.06,-2.3 2.1,-4.97 2.85,-7.45 4.41,-14.59 -2.56,-33.26 -14.82,-44.37 -9.39,-8.5 -19.32,-9.22 -32.67,-8.03 1.86,-0.78 6.36,-0.31 9.1,0.16 3.4,0.58 6.25,1.56 8.69,3.83z"/>
   <path class="fil3" d="M127.68 114.01c3.09,-0.39 0.99,0.64 2.98,-0.47 -0.55,7.41 -0.84,8.83 -5.69,11.83l-4.85 3.06c-2.22,0.28 -0.94,-0.78 -4.19,0.31l-13.72 11.43c-10.82,8.12 -27.85,13.9 -41.69,11.82 -16.99,-2.54 -13.73,-4.54 -21.29,-6.14 -1.12,0.66 1.36,1.61 -3.31,0.02l0.26 1.69c5.2,9.11 33.08,10.56 46.36,6.52 7.17,-2.19 13.48,-5.44 19.93,-8.2 4.73,-2.03 4.15,-3.92 11.83,-6.34 0.16,-0.05 0.44,-0.11 0.59,-0.16 0.24,-0.07 0.84,-0.22 1.06,-0.29 0.1,-0.04 0.36,-0.13 0.47,-0.17 0.11,-0.04 0.36,-0.16 0.46,-0.2l4.07 -1.47 0.07 6.7c2.02,-1.49 2.54,-2.28 4.47,-4.13 2.96,-2.86 1.48,-2.37 4.94,-1.57 -1.67,-2.95 -2.04,-2.91 0.63,-6.19 2.18,-2.7 3.06,-4.45 7.45,-4.47 0.47,-4.92 1.8,-3.44 3,-7.39 -1.23,-0.75 0.51,-1.14 -2.8,0.06 -2.2,0.8 1.28,0.48 -3.14,1.5 -3.36,-5.1 0.17,-11.2 0.39,-16.61 -1.83,1.01 -2.19,0.95 -3.34,1.95 -2.26,1.28 -2.3,2.2 -3.93,4.54 -5.11,-3.32 -5.7,-5.73 -7.68,-7.83 -3.71,-3.96 -0.57,-1.62 -3.23,-1.68 3.71,3.05 6.71,8.24 9.9,11.88z"/>
   <path class="fil0" d="M156.18 78.93l-5.48 4.6c-2.19,2.76 -3.79,3.92 -5.32,6.49 5.1,-1.39 1.03,-0.61 2.63,0.72 -0.92,3.03 -1.07,2.43 -0.02,6.07 1.12,3.88 1.18,4.02 5.5,3.98 1.49,1 1.76,-1.82 0.88,2.3 4.3,-3.1 12,-16.31 25.42,-23.7l4.86 -3.16c-1.47,-0.73 -1.26,1.32 -1.12,-1.71 5.7,-1.72 7.11,-4.21 14.87,-4.9 3.79,-2.7 10.17,-1.86 14.75,-1.62 11.59,0.63 23.49,8.87 29.03,18.66 12.17,21.51 8.52,30.41 4.13,50.64l2.57 -4.36c1.64,-4.87 2.67,-14.3 2.57,-19.43 -0.23,-13.56 -7.23,-31.78 -16.95,-40.62 -3.9,-3.56 -13.45,-9.82 -19.42,-10.4l-14.72 -1.25 -1.97 3.84c-8.55,0.19 -7.8,2.34 -12.16,5.14l-3.05 1.8c-0.17,0.11 -0.41,0.26 -0.59,0.36 -12.71,7.32 -5.31,4.68 -15.26,10.88l-1.17 0.78c-4.08,2.37 -3.29,1.09 -11.03,1 1.52,-1.09 5.59,-6.7 5.68,-8.7l-4.63 2.59z"/>
   <path class="fil4" d="M32.16 68.88c-1.3,1.72 -0.15,0.38 -1.72,1.72 -3.42,2.94 -9.4,5.96 -12.58,10.8 -9.71,14.68 -8.14,41.78 -0.43,54.41 1.19,1.96 1.32,1.03 3.2,3.56 0.46,0.61 0.67,1.18 1.09,1.84l12.83 10.23c1.81,1.11 2.97,1.26 4.89,2.01 9.77,3.82 9.41,4.59 22.5,4.9l29 -4.27c1.74,-0.52 3.58,-1.56 4.93,-1.92 4.11,-1.11 7.78,-0.17 12.21,-1.41 1.2,2.01 1.2,1.17 1.96,1.89 3.04,-0.99 9.03,-6.29 10.98,-8.69l-0.07 -6.7 -4.07 1.47c-0.1,0.04 -0.35,0.16 -0.46,0.2 -0.11,0.04 -0.37,0.13 -0.47,0.17 -0.22,0.07 -0.82,0.22 -1.06,0.29 -0.15,0.05 -0.43,0.11 -0.59,0.16 -7.68,2.42 -7.1,4.31 -11.83,6.34 -6.45,2.76 -12.76,6.01 -19.93,8.2 -13.28,4.04 -41.16,2.59 -46.36,-6.52 -16.61,-5.75 -29.06,-36.29 -18.59,-57.97 3.71,-7.67 12.05,-16.4 20.95,-19.95 14.42,-5.74 19.5,-4.31 35.18,-2.03 -8.11,-3.32 -22.33,-4.06 -32.82,-2l-6.79 1.96c-2.13,0.99 -1.31,0.55 -1.95,1.31z"/>
   <path class="fil3" d="M184.65 76.23c3.65,0.09 2.9,-0.52 6.3,-1.24l15.17 -0.31c2.99,0.35 4.21,1.21 7.57,1.8 -2.44,-2.27 -5.29,-3.25 -8.69,-3.83 -2.74,-0.47 -7.24,-0.94 -9.1,-0.16 13.35,-1.19 23.28,-0.47 32.67,8.03 12.26,11.11 19.23,29.78 14.82,44.37 -0.75,2.48 -1.79,5.15 -2.85,7.45 -2.31,4.99 -7.65,14.12 -12.26,17.75 -2.45,1.94 -3.95,1.83 -6.76,3.96 -2.01,1.51 -3.21,2.98 -6.08,2.8 -2.69,3.42 -8.51,4.38 -12.73,5.61 -16.22,4.72 -28.73,3.01 -42.61,-1.23 1.74,2.45 -0.2,0.89 2.95,2.71 1.1,0.64 1.81,0.73 3.49,1.36 3.11,1.17 4.66,2.17 8.29,2.32 8.53,1.04 18.82,1.74 26.26,-0.94 5.67,-2.04 13.36,-3.71 20,-7.3 7.4,-3.98 16.96,-13.38 20.39,-20.58l3.46 -9.93c1.78,-4.87 2.2,-5.17 2.39,-11.5 0.12,-4.32 -0.22,-8.91 -1.05,-12.73 -4.99,-23 -21.09,-36.31 -47.88,-35.02 -7.76,0.69 -9.17,3.18 -14.87,4.9 -0.14,3.03 -0.35,0.98 1.12,1.71z"/>
   <path class="fil4" d="M174.83 167.62c1.05,0.7 0.26,0.36 2.01,0.98 18.41,6.53 45.76,-1.95 59.14,-14.87 3.26,-3.14 9.65,-11.73 10.33,-16.43 4.39,-20.23 8.04,-29.13 -4.13,-50.64 -5.54,-9.79 -17.44,-18.03 -29.03,-18.66 -4.58,-0.24 -10.96,-1.08 -14.75,1.62 26.79,-1.29 42.89,12.02 47.88,35.02 0.83,3.82 1.17,8.41 1.05,12.73 -0.19,6.33 -0.61,6.63 -2.39,11.5l-3.46 9.93c-3.43,7.2 -12.99,16.6 -20.39,20.58 -6.64,3.59 -14.33,5.26 -20,7.3 -7.44,2.68 -17.73,1.98 -26.26,0.94z"/>
   <path class="fil5" d="M35.92 145.87c4.67,1.59 2.19,0.64 3.31,-0.02 -0.6,-0.9 -34,-25.25 -11.31,-55.11 1.75,-3.41 3.27,-3.07 6.47,-5.81l1.63 -1.58 -4.93 0.55c1.3,-4.6 0.46,-2.69 4.81,-5.21 5.41,-3.11 9.01,-5.75 17.15,-6.46 22.16,-1.92 32.26,3.81 48.15,14.65l12.25 10.98c2.27,2.84 0.72,2.25 4.33,4.27 0.18,-4.12 -2.89,-5.06 -4.93,-7.46l-11.4 -11.77c-1.08,-0.95 -2.16,-1.89 -3.28,-2.59 -3.16,-1.96 -0.48,-1.6 -3.83,-1.14 -7.8,-3.3 -16.69,-11.22 -36.39,-10 -43.45,2.69 -55.63,50.94 -22.03,76.7z"/>
   <path class="fil1" d="M130.43 138.25c0.36,1.49 0.04,1.13 1.21,0 5.19,3.93 7.5,8.43 16.61,13.56 3.22,1.82 6.4,3.49 10.23,4.41l10.51 0.69c3.8,-1.23 1.21,0.39 3.76,-2.45l-7.07 -2.28c-4.58,-1.93 -4.31,-1.38 -6.55,-5.38 -0.35,-1.07 0.1,-0.61 -1.65,-2.17l-18.97 -17.04c-4.39,0.02 -5.27,1.77 -7.45,4.47 -2.67,3.28 -2.3,3.24 -0.63,6.19z"/>
   <path class="fil3" d="M36.18 147.56l-0.26 -1.69c-33.6,-25.76 -21.42,-74.01 22.03,-76.7 19.7,-1.22 28.59,6.7 36.39,10 -1.58,-3.26 -0.49,-2.02 -4.32,-4.26 -1.79,-1.04 -3.21,-1.87 -4.92,-2.79 -3.46,-1.85 -7.45,-3.02 -11.38,-4.51 -15.68,-2.28 -20.76,-3.71 -35.18,2.03 -8.9,3.55 -17.24,12.28 -20.95,19.95 -10.47,21.68 1.98,52.22 18.59,57.97z"/>
   <path class="fil6" d="M156.18 78.93l4.63 -2.59c-0.09,2 -4.16,7.61 -5.68,8.7 7.74,0.09 6.95,1.37 11.03,-1l1.17 -0.78c9.95,-6.2 2.55,-3.56 15.26,-10.88 0.18,-0.1 0.42,-0.25 0.59,-0.36l3.05 -1.8c4.36,-2.8 3.61,-4.95 12.16,-5.14l1.97 -3.84 14.72 1.25c-0.2,-0.16 -0.54,-0.59 -0.65,-0.4l-16.04 -2.79c-14.04,0.32 -28.85,7.53 -39.15,16.3 -3.16,2.68 -0.75,-0.9 -3.06,3.33z"/>
   <path class="fil5" d="M160.1 161.23c13.88,4.24 26.39,5.95 42.61,1.23 4.22,-1.23 10.04,-2.19 12.73,-5.61 -7.43,0.73 -11.69,3.3 -19.99,3.85 -42,2.78 -43.07,-7.45 -53.99,-11.99 2.04,4.87 8.34,8.23 13.13,11.08 3.08,1.81 2.62,1.89 5.51,1.44z"/>
   <path class="fil7" d="M36.02 83.35l-1.63 1.58c-3.2,2.74 -4.72,2.4 -6.47,5.81 13.05,-3.54 8.94,-4.51 28.27,-6.52 4.39,-0.46 13.04,-0.6 17.15,0.24 1.53,0.3 5.18,1.57 6.58,2.17 2.96,1.26 3.72,2.39 6.35,3.15 -9.54,-8.81 -35.31,-16.38 -50.25,-6.43z"/>
   <path class="fil7" d="M132.62 107.1c1.15,-1 1.51,-0.94 3.34,-1.95 -0.22,5.41 -3.75,11.51 -0.39,16.61 4.42,-1.02 0.94,-0.7 3.14,-1.5 3.31,-1.2 1.57,-0.81 2.8,-0.06 2.02,-1.49 4.42,-5.49 6.4,-8.02 2.73,-3.51 4.1,-5.4 6.46,-9.09 0.88,-4.12 0.61,-1.3 -0.88,-2.3 -1.05,3.87 -3.91,5.69 -8.92,11.56 -0.86,-2.48 0.29,-1.58 -1.17,-3.15 -3.84,-4.14 1.82,0.79 -1.25,-0.76 -1.19,-0.59 -0.3,2.22 -1.07,-0.4 -0.06,-0.22 -0.41,-0.09 -0.57,-0.2 -0.3,-4.08 -0.63,-3.41 0.76,-7.07 0.06,-0.18 1.03,-2.04 1.09,-2.71 0.28,-3.18 2.61,-1.04 -0.9,-2.54 -2.12,1.32 -3,2.85 -4.64,4.98 -1.85,2.39 -3.44,3.54 -4.2,6.6z"/>
   <path class="fil3" d="M115.93 128.74c3.25,-1.09 1.97,-0.03 4.19,-0.31l4.85 -3.06c4.85,-3 5.14,-4.42 5.69,-11.83 -1.99,1.11 0.11,0.08 -2.98,0.47 -0.26,4.24 -3.23,8.32 -6.84,10.01 -4.46,-1.37 -6.77,-6.48 -9.59,-9.72 -3.22,-3.7 -5.51,-7.23 -9.06,-10.05 1.01,3.25 0.98,1.14 2.18,5.27 2.24,7.79 1.47,7.93 11.56,14.47l0 4.75z"/>
   <path class="fil4" d="M141.46 95.52c3.51,1.5 1.18,-0.64 0.9,2.54 -0.06,0.67 -1.03,2.53 -1.09,2.71 -1.39,3.66 -1.06,2.99 -0.76,7.07 0.16,0.11 0.51,-0.02 0.57,0.2 0.77,2.62 -0.12,-0.19 1.07,0.4 3.07,1.55 -2.59,-3.38 1.25,0.76 1.46,1.57 0.31,0.67 1.17,3.15 5.01,-5.87 7.87,-7.69 8.92,-11.56 -4.32,0.04 -4.38,-0.1 -5.5,-3.98 -1.05,-3.64 -0.9,-3.04 0.02,-6.07 -1.6,-1.33 2.47,-2.11 -2.63,-0.72 -2.12,2.58 -2.97,1.99 -3.92,5.5z"/>
  </g>
 </g>
</svg>
