<?xml version="1.0" encoding="UTF-8"?>
<!DOCTYPE svg PUBLIC "-//W3C//DTD SVG 1.1//EN" "http://www.w3.org/Graphics/SVG/1.1/DTD/svg11.dtd">
<!-- Creator: CorelDRAW (Versión de evaluación) -->
<svg xmlns="http://www.w3.org/2000/svg" xml:space="preserve" width="30px" height="30px" version="1.1" style="shape-rendering:geometricPrecision; text-rendering:geometricPrecision; image-rendering:optimizeQuality; fill-rule:evenodd; clip-rule:evenodd"
viewBox="0 0 30 30"
 xmlns:xlink="http://www.w3.org/1999/xlink"
 xmlns:xodm="http://www.corel.com/coreldraw/odm/2003">
 <defs>
  <style type="text/css">
   <![CDATA[
    .str0 {stroke:#191827;stroke-width:2.36;stroke-miterlimit:22.9256}
    .fil0 {fill:none;fill-rule:nonzero}
    .fil1 {fill:#191827;fill-rule:nonzero}
   ]]>
  </style>
 </defs>
 <g id="Capa_x0020_1">
  <metadata id="CorelCorpID_0Corel-Layer"/>
  <path class="fil0 str0" d="M6.5 3.57l17.61 0c1.62,0 2.93,1.31 2.93,2.93l0 17.61c0,1.62 -1.31,2.93 -2.93,2.93l-17.61 0c-1.62,0 -2.93,-1.31 -2.93,-2.93l0 -17.61c0,-1.62 1.31,-2.93 2.93,-2.93z"/>
  <path class="fil1" d="M19.18 22.64l-7.81 0 1.56 -6.53c0.04,-0.19 -0.01,-0.27 -0.15,-0.37 -1.24,-0.87 -1.9,-2.07 -1.88,-3.57 0.04,-2.2 1.62,-3.74 3.5,-4.13 1.62,-0.34 3.83,0.52 4.69,2.5 0.77,1.81 0.22,3.91 -1.38,5.09 -0.15,0.11 -0.18,0.21 -0.13,0.38l1.6 6.63z"/>
 </g>
</svg>
