<?xml version="1.0" encoding="UTF-8"?>
<!DOCTYPE svg PUBLIC "-//W3C//DTD SVG 1.1//EN" "http://www.w3.org/Graphics/SVG/1.1/DTD/svg11.dtd">
<!-- Creator: CorelDRAW (Versión de evaluación) -->
<svg xmlns="http://www.w3.org/2000/svg" xml:space="preserve" width="30px" height="39px" version="1.1" style="shape-rendering:geometricPrecision; text-rendering:geometricPrecision; image-rendering:optimizeQuality; fill-rule:evenodd; clip-rule:evenodd"
viewBox="0 0 30 38.82"
 xmlns:xlink="http://www.w3.org/1999/xlink"
 xmlns:xodm="http://www.corel.com/coreldraw/odm/2003">
 <defs>
  <style type="text/css">
   <![CDATA[
    .str0 {stroke:#191827;stroke-width:0.03;stroke-miterlimit:22.9256}
    .fil1 {fill:#191827;fill-rule:nonzero}
    .fil0 {fill:white;fill-rule:nonzero}
   ]]>
  </style>
 </defs>
 <g id="Capa_x0020_1">
  <metadata id="CorelCorpID_0Corel-Layer"/>
  <path class="fil0 str0" d="M14.56 18.82l0.88 0c0.08,0 0.15,0.07 0.15,0.15l0 0.88c0,0.08 -0.07,0.15 -0.15,0.15l-0.88 0c-0.08,0 -0.15,-0.07 -0.15,-0.15l0 -0.88c0,-0.08 0.07,-0.15 0.15,-0.15z"/>
  <path class="fil1" d="M15.19 19.78l-0.39 0 0.08 -0.33c0,-0.01 0,-0.01 -0.01,-0.02 -0.06,-0.04 -0.09,-0.1 -0.09,-0.18 0,-0.11 0.08,-0.18 0.17,-0.2 0.09,-0.02 0.2,0.02 0.24,0.12 0.04,0.09 0.01,0.2 -0.07,0.26 -0.01,0 -0.01,0.01 -0.01,0.02l0.08 0.33z"/>
 </g>
</svg>
